<?xml version="1.0" encoding="UTF-8" standalone="no"?>
<!-- Created with Inkscape (http://www.inkscape.org/) -->

<svg
   xmlns:dc="http://purl.org/dc/elements/1.1/"
   xmlns:cc="http://creativecommons.org/ns#"
   xmlns:rdf="http://www.w3.org/1999/02/22-rdf-syntax-ns#"
   xmlns:svg="http://www.w3.org/2000/svg"
   xmlns="http://www.w3.org/2000/svg"
   xmlns:sodipodi="http://sodipodi.sourceforge.net/DTD/sodipodi-0.dtd"
   xmlns:inkscape="http://www.inkscape.org/namespaces/inkscape"
   width="101.82856mm"
   height="36.874958mm"
   viewBox="0 0 101.82856 36.874958"
   version="1.1"
   id="svg8"
   inkscape:version="0.92.4 (5da689c313, 2019-01-14)"
   sodipodi:docname="beach-hat.svg">
  <defs
     id="defs2" />
  <sodipodi:namedview
     id="base"
     pagecolor="#ffffff"
     bordercolor="#666666"
     borderopacity="1.0"
     inkscape:pageopacity="0.0"
     inkscape:pageshadow="2"
     inkscape:zoom="2.8"
     inkscape:cx="172.72093"
     inkscape:cy="79.413517"
     inkscape:document-units="mm"
     inkscape:current-layer="g826"
     showgrid="false"
     fit-margin-top="0"
     fit-margin-left="0"
     fit-margin-right="0"
     fit-margin-bottom="0"
     inkscape:window-width="1920"
     inkscape:window-height="1001"
     inkscape:window-x="-9"
     inkscape:window-y="-9"
     inkscape:window-maximized="1" />
  <metadata
     id="metadata5">
    <rdf:RDF>
      <cc:Work
         rdf:about="">
        <dc:format>image/svg+xml</dc:format>
        <dc:type
           rdf:resource="http://purl.org/dc/dcmitype/StillImage" />
        <dc:title></dc:title>
      </cc:Work>
    </rdf:RDF>
  </metadata>
  <g
     inkscape:label="Layer 1"
     inkscape:groupmode="layer"
     id="layer1"
     transform="translate(98.834245,-233.53111)">
    <g
       id="g826"
       transform="translate(-27.119792,-8.5989583)">
      <path
         style="fill:#f9b96e;stroke-width:0.26458335"
         d="m -29.964027,278.8578 c -0.32744,-0.0932 -3.155188,-0.32151 -6.283886,-0.50739 -7.318621,-0.43481 -6.48629,-0.35401 -12.303125,-1.19425 -2.764896,-0.3994 -5.845672,-0.75797 -6.84617,-0.79684 -1.000499,-0.0389 -1.947045,-0.19864 -2.103438,-0.35503 -0.156393,-0.15639 -0.528428,-0.28539 -0.826746,-0.28665 -0.298318,-0.001 -2.328333,-0.37953 -4.511146,-0.84059 -2.182812,-0.46106 -4.385469,-0.84698 -4.894792,-0.8576 -0.509323,-0.0106 -1.016048,-0.15883 -1.126055,-0.32936 -0.110007,-0.17052 -0.526726,-0.38336 -0.926042,-0.47296 -0.795083,-0.17841 -2.121999,-1.08421 -1.905471,-1.30073 0.14593,-0.14593 5.606002,-1.68916 7.132568,-2.01594 1.3958,-0.29879 2.38125,-0.74649 2.38125,-1.08182 0,-0.1903 0.249786,-0.23713 0.683833,-0.12819 0.457104,0.11473 1.982683,-0.22666 4.601267,-1.02965 2.154589,-0.6607 4.17232,-1.20128 4.483846,-1.20128 0.311526,0 0.634945,-0.17859 0.718706,-0.39687 0.09067,-0.23628 0.488797,-0.39689 0.983885,-0.39692 0.457372,-10e-6 1.735572,-0.27896 2.84044,-0.61987 2.907718,-0.89719 3.679944,-1.81512 4.594886,-5.46188 1.151959,-4.59145 3.539221,-11.61428 4.857967,-14.29113 1.087843,-2.20814 1.350809,-2.55191 2.164337,-2.82933 0.669155,-0.2282 4.800031,-0.31994 14.891311,-0.33073 15.2871196,-0.0163 15.3800677,-0.008 16.1660839,1.51233 1.40471,2.71641 3.8538917,9.82203 5.21900152,15.14148 0.46680437,1.81902 0.97878638,3.4471 1.13773218,3.61798 0.1589484,0.17088 1.3031099,0.48324 2.5425823,0.69414 2.5563962,0.43497 5.7196752,1.6211 7.9045801,2.96397 1.486901,0.91386 3.84583,1.58347 9.782464,2.77686 6.367865,1.28007 8.340397,1.91786 8.681617,2.80706 0.239493,0.62411 -0.708057,1.33561 -2.455096,1.84349 -0.780356,0.22685 -1.487588,0.52372 -1.571625,0.65969 -0.08404,0.13598 -0.473194,0.24733 -0.864788,0.24745 -0.391593,1.2e-4 -1.56606,0.1784 -2.609924,0.39617 -1.043866,0.21778 -3.656758,0.69867 -5.806429,1.06866 -2.149671,0.36999 -4.063119,0.80104 -4.252106,0.95788 -0.188986,0.15685 -0.66604,0.22354 -1.060119,0.14821 -0.698225,-0.13348 -8.0205102,0.71135 -8.811535,1.01665 -0.2182812,0.0842 -1.5875,0.19343 -3.04270833,0.24264 -1.45520837,0.0492 -4.25317707,0.23343 -6.21770837,0.4094 -3.7546173,0.3363 -22.3265683,0.51205 -23.3494473,0.22095 z"
         id="path834"
         inkscape:connector-curvature="0" />
      <path
         style="fill:#f6ab59;stroke-width:0.26458335"
         d="m -29.057239,278.45292 c 0.04695,-0.2421 0.234196,-0.48973 0.416097,-0.55029 0.486479,-0.16198 0.403754,0.64309 -0.08537,0.83078 -0.290163,0.11135 -0.39026,0.0265 -0.330729,-0.28049 z m 7.600849,-0.50347 c 0.445064,-0.37449 1.25308,-1.59488 1.795592,-2.71198 0.542513,-1.11709 1.177716,-2.28728 1.411566,-2.60043 0.233852,-0.31315 0.574037,-1.26565 0.755967,-2.11666 0.181933,-0.85103 0.430697,-1.93415 0.552807,-2.40695 0.267984,-1.03759 0.02842,-1.23726 -1.206484,-1.00559 -0.653317,0.12256 -1.031835,0.0544 -1.324647,-0.23836 -0.655732,-0.65574 -3.37444,-0.55349 -4.34404,0.16336 -0.700196,0.51768 -0.878901,0.54233 -1.841368,0.25396 -0.586256,-0.17564 -1.065916,-0.41607 -1.065916,-0.53427 0,-0.1182 -1.781302,-0.36093 -3.958447,-0.5394 -3.193193,-0.26175 -4.139465,-0.25902 -4.894792,0.0141 -0.875273,0.3165 -1.267812,0.76145 -0.671761,0.76145 0.145521,0 0.264583,0.17859 0.264583,0.39687 0,0.7326 -0.797988,0.40594 -1.232074,-0.50435 -0.573757,-1.20318 -1.099916,-1.42587 -4.059592,-1.71824 -3.912394,-0.38647 -4.962774,-1.07925 -3.167605,-2.08919 0.442928,-0.24919 0.865568,-0.74648 0.945226,-1.11218 0.07925,-0.3638 0.324708,-1.37583 0.545471,-2.24895 0.22076,-0.87313 0.501867,-2.00422 0.624678,-2.51355 0.550445,-2.28278 0.735045,-2.84938 1.125662,-3.45507 0.229124,-0.35528 0.502671,-1.12222 0.607883,-1.7043 0.243795,-1.3488 1.175504,-3.90154 2.433246,-6.66673 0.783161,-1.7218 1.150075,-2.23631 1.78023,-2.49634 1.112637,-0.45912 28.7671275,-0.63991 29.8457174,-0.19511 0.415364,0.17129 0.9640014,0.74185 1.2472722,1.2971 0.759042,1.48785 2.463972,5.88517 3.3819069,8.72254 0.7123006,2.20175 1.09973794,3.5856 2.42150102,8.64915 0.32370183,1.24007 0.331978,1.24445 3.33058298,1.76625 2.6008488,0.45259 5.7959016,1.69808 7.9587645,3.10248 2.022401,1.3132 3.310588,1.70469 9.493422,2.88514 5.54002,1.05773 8.233042,1.94611 8.521356,2.81105 0.08942,0.26825 -1.529628,1.08711 -3.085057,1.56034 -0.357016,0.10862 -0.806945,0.35531 -0.999845,0.54821 -0.1929,0.1929 -0.524492,0.28405 -0.73687,0.20255 -0.212378,-0.0815 -0.953074,-0.0276 -1.645989,0.11973 -2.53043,0.5381 -4.23835,0.85541 -7.466875,1.38724 -1.813136,0.29868 -3.42048,0.63571 -3.571875,0.74897 -0.151394,0.11325 -1.005639,0.22015 -1.898322,0.23755 -1.6094019,0.0314 -7.7309262,0.79701 -8.0756227,1.01005 -0.09869,0.061 -1.46919955,0.1631 -3.0455844,0.22691 -1.5763822,0.0638 -4.473493,0.23631 -6.4380242,0.38333 -1.9645313,0.14702 -6.1706207,0.27246 -9.3468637,0.27876 l -5.774987,0.0115 z m -16.122102,-15.44834 c 0.214066,-0.13538 0.30053,-0.33483 0.192138,-0.44322 -0.108392,-0.1084 -0.398346,0.004 -0.644348,0.25019 -0.478203,0.47821 -0.191937,0.6004 0.45221,0.19303 z m 7.680579,-19.17702 c 0,-0.0642 -0.119062,-0.19026 -0.264583,-0.28019 -0.145521,-0.0899 -0.264584,-0.0374 -0.264584,0.11667 0,0.15411 0.119063,0.2802 0.264584,0.2802 0.145521,0 0.264583,-0.0525 0.264583,-0.11668 z m -13.758333,33.56443 c 0,-0.82887 0.621366,-0.73815 0.746006,0.10891 0.05615,0.38159 -0.05494,0.57459 -0.33073,0.57459 -0.270144,0 -0.415276,-0.23887 -0.415276,-0.6835 z m 18.634149,-1.82187 c -0.247269,-0.37738 -0.377635,-0.75809 -0.289706,-0.84602 0.244039,-0.24403 1.546006,0.69776 1.433052,1.03661 -0.19119,0.57357 -0.698008,0.48909 -1.143346,-0.19059 z m -15.00164,-1.09406 c -0.106111,-0.10611 -0.192926,-0.37549 -0.192926,-0.59862 0,-0.29782 0.07827,-0.32743 0.294349,-0.11135 0.161891,0.16189 0.248708,0.43127 0.192926,0.59862 -0.05579,0.16735 -0.18824,0.21745 -0.294349,0.11135 z m -28.371051,-0.6339 c 0.08994,-0.14552 0.216026,-0.26458 0.280198,-0.26458 0.06417,0 0.116677,0.11906 0.116677,0.26458 0,0.14552 -0.126089,0.26458 -0.280198,0.26458 -0.154109,0 -0.206614,-0.11906 -0.116677,-0.26458 z m 20.240625,-0.0686 c 0,-0.39358 0.929182,-1.03064 1.162677,-0.79715 0.184647,0.18465 -0.601054,1.13038 -0.939101,1.13038 -0.122966,0 -0.223576,-0.14995 -0.223576,-0.33323 z m -11.641667,-1.38656 c 0,-0.21828 0.193173,-0.39688 0.429271,-0.39688 0.351578,0 0.369657,0.0718 0.0999,0.39688 -0.181158,0.21828 -0.37433,0.39688 -0.429271,0.39688 -0.05494,0 -0.0999,-0.1786 -0.0999,-0.39688 z m 5.820834,0.20678 c 0,-0.43467 0.830614,-1.39741 1.205627,-1.39741 0.515926,0 0.481166,0.36189 -0.08115,0.8448 -0.682593,0.5862 -1.124479,0.80336 -1.124479,0.55261 z m 30.427083,-1.34705 c 0,-0.14208 0.188542,-0.33067 0.418984,-0.4191 0.25768,-0.0989 0.37864,-0.0398 0.314192,0.15359 -0.131836,0.39551 -0.733176,0.61328 -0.733176,0.26551 z m -19.579167,-0.57952 c 0,-0.14552 0.119063,-0.26459 0.264584,-0.26459 0.145521,0 0.264583,0.11907 0.264583,0.26459 0,0.14552 -0.119062,0.26458 -0.264583,0.26458 -0.145521,0 -0.264584,-0.11906 -0.264584,-0.26458 z m -18.653125,-0.79375 c -0.08994,-0.14552 0.08163,-0.26459 0.38126,-0.26459 0.29963,0 0.544782,0.11907 0.544782,0.26459 0,0.14552 -0.171567,0.26458 -0.38126,0.26458 -0.209693,0 -0.454845,-0.11906 -0.544782,-0.26458 z m 4.133289,-0.24104 c -0.509624,-0.32002 -0.126783,-0.8173 0.629211,-0.8173 0.555932,0 1.137772,0.42417 0.886392,0.6462 -0.299252,0.2643 -1.204442,0.36648 -1.515603,0.1711 z m 25.569276,-2.06276 c 0.329117,-0.0633 0.805367,-0.0609 1.058333,0.005 0.252965,0.0662 -0.01632,0.118 -0.598398,0.11506 -0.582083,-0.003 -0.789053,-0.0571 -0.459935,-0.1204 z m -18.590065,-0.60662 c -0.08994,-0.14552 -0.04446,-0.26458 0.101063,-0.26458 0.145521,0 0.338167,0.11906 0.428104,0.26458 0.08994,0.14552 0.04446,0.26458 -0.101063,0.26458 -0.145521,0 -0.338166,-0.11906 -0.428104,-0.26458 z m 6.217709,-0.24958 c 0,-0.13727 0.267271,-0.43678 0.593936,-0.66559 0.74131,-0.51923 1.05011,0.026 0.317942,0.56137 -0.567288,0.41481 -0.911878,0.45419 -0.911878,0.10422 z"
         id="path832"
         inkscape:connector-curvature="0" />
      <path
         style="fill:#f49e47;stroke-width:0.26458335"
         d="m -12.955272,277.32483 c -0.417599,-0.78029 -0.335007,-0.86339 0.387567,-0.38994 0.737307,0.4831 0.864458,0.90172 0.273892,0.90172 -0.213162,0 -0.510818,-0.2303 -0.661459,-0.51178 z m 4.2240257,-0.51416 c 0,-0.54497 0.705948,-1.26673 0.9754155,-0.99726 0.2294308,0.22943 -0.3674401,1.49403 -0.7051595,1.49403 -0.1486403,0 -0.270256,-0.22355 -0.270256,-0.49677 z m 4.0600524,-2.02818 c -0.086172,-0.22456 -0.085312,-0.47965 0.00185,-0.56687 0.1884415,-0.18845 0.9651206,0.40945 0.9651206,0.74296 0,0.39928 -0.802304,0.25318 -0.9670309,-0.17609 z m 11.6416667,-1.05834 c -0.086172,-0.22456 -0.085312,-0.47965 0.00185,-0.56687 0.1884416,-0.18844 0.9651207,0.40946 0.9651207,0.74297 0,0.39928 -0.802304,0.25318 -0.967031,-0.1761 z m 17.3711972,0.14371 c 0,-0.14553 0.238125,-0.26459 0.529167,-0.26459 0.291042,0 0.529167,0.11906 0.529167,0.26459 0,0.14552 -0.238125,0.26458 -0.529167,0.26458 -0.291042,0 -0.529167,-0.11906 -0.529167,-0.26458 z M 9.6572953,271.84374 c -3.3992846,-0.71081 -7.1189109,-2.58469 -11.0282408,-5.55584 -1.3762699,-1.04598 -1.4994334,-1.08691 -2.6163428,-0.86936 -0.6446441,0.12556 -2.600833,0.36313 -4.347083,0.52792 -1.8556977,0.17513 -3.3399117,0.44535 -3.5718747,0.65032 -0.672053,0.59383 -1.740739,0.72699 -2.551192,0.31788 -0.496589,-0.25068 -2.083599,-0.43947 -4.623843,-0.55006 -3.607488,-0.15704 -3.912954,-0.13281 -4.539649,0.36015 -0.840568,0.66119 -1.785398,0.67433 -2.60328,0.0362 -0.503304,-0.39268 -1.450629,-0.55352 -4.681305,-0.7948 -2.729624,-0.20387 -4.212161,-0.21589 -4.546669,-0.0369 -0.734324,0.393 -1.454261,0.32578 -2.57352,-0.24027 -0.596908,-0.30187 -2.120725,-0.62936 -3.778459,-0.81204 -2.951747,-0.32527 -3.799496,-0.70771 -3.19183,-1.4399 0.52774,-0.63589 1.969966,-0.77126 4.258074,-0.39968 1.886294,0.30633 2.212991,0.29541 3.045857,-0.10175 1.248847,-0.59554 1.791221,-0.56118 2.680618,0.1698 0.650283,0.53446 1.231408,0.65521 4.452073,0.92513 3.548107,0.29736 3.734369,0.28819 4.421058,-0.21781 0.900205,-0.66334 1.28919,-0.66317 2.13343,7.9e-4 0.593998,0.46724 1.073357,0.52917 4.096089,0.52917 h 3.423359 l -0.07491,-4.82865 c -0.0412,-2.65576 -0.20043,-5.60255 -0.353838,-6.54844 -0.153408,-0.94588 -0.25976,-2.39244 -0.236336,-3.21457 0.03277,-1.14999 -0.120669,-1.82132 -0.665184,-2.91042 -0.389276,-0.77848 -0.693111,-1.7727 -0.675188,-2.20926 0.01791,-0.43657 -0.04997,-1.04282 -0.150886,-1.34724 -0.180301,-0.54391 -0.104177,-0.55592 4.40051,-0.69433 5.9602264,-0.18313 7.7795808,0.001 8.4227194,0.85396 1.0019056,1.32826 3.8260893,9.0923 5.14788414,14.15219 0.89047638,3.40878 1.21065925,4.42688 1.51133969,4.80565 0.13435806,0.16925 0.86337507,0.38591 1.62003847,0.48146 3.5282082,0.44554 8.0292253,2.17199 10.0506003,3.85509 0.799933,0.66607 0.940093,0.90878 0.695206,1.20384 -0.455975,0.54942 -1.164228,0.44989 -2.039514,-0.28662 -2.1354446,-1.79685 -8.9142045,-3.7734 -10.63783267,-3.10177 l -0.66145833,0.25775 0.79375,0.35149 c 0.4365625,0.19333 1.0483268,0.59393 1.3594768,0.89022 0.9218586,0.87786 4.7233866,2.78647 6.6439785,3.33571 2.7356647,0.78233 6.3077227,0.53024 7.5922217,-0.5358 0.334819,-0.27787 0.573103,-0.30453 0.896813,-0.10034 0.548801,0.34617 0.57776,1.01415 0.04397,1.01415 -0.218281,0 -0.575468,0.35361 -0.79375,0.78581 -0.275137,0.54476 -0.721508,0.88344 -1.455208,1.10414 -1.01586,0.30557 -4.188428,0.41767 -5.2916667,0.18698 z m -24.6125783,-0.64166 c -0.242819,-0.76506 0.105275,-1.01004 0.557127,-0.39209 0.476975,0.6523 0.475808,0.9412 -0.0038,0.9412 -0.208475,0 -0.457472,-0.2471 -0.553325,-0.54911 z m 6.6391124,-0.24464 c 0.2078804,-1.09437 0.2555054,-1.16569 0.6256549,-0.93692 0.4096279,0.25316 0.3505438,0.53492 -0.2596859,1.23834 l -0.5418746,0.62462 z m 10.6974243,0.54417 c 0,-0.13727 0.2672715,-0.43679 0.5939366,-0.66559 0.7413096,-0.51924 1.0501101,0.026 0.3179419,0.56137 -0.5672878,0.41481 -0.9118785,0.45419 -0.9118785,0.10422 z m -12.7683497,-3.48758 c -0.25345,-0.14184 -0.460817,-0.37103 -0.460817,-0.50932 0,-0.41351 0.797822,-0.28411 0.9670309,0.15685 0.210902,0.5496 0.048321,0.6628 -0.5062139,0.35247 z m 17.5349004,0.0991 c 0.00728,-0.3562 0.3816324,-0.77479 0.9697615,-1.08435 0.4663466,-0.24546 0.6612757,-0.21933 1.0169022,0.13629 0.4102259,0.41023 0.398055,0.46321 -0.1800649,0.78385 -0.6789869,0.3766 -1.8130387,0.47967 -1.8065988,0.16421 z M -6.085413,267.66772 c 0,-0.2866 0.2516584,-0.41445 0.8157977,-0.41445 1.0122879,0 0.9214591,0.62324 -0.1085982,0.74518 -0.5011923,0.0593 -0.7071995,-0.037 -0.7071995,-0.33073 z"
         id="path830"
         inkscape:connector-curvature="0" />
      <path
         style="fill:#985922;stroke-width:0.26458335"
         d="M 9.6167321,271.47753 C 6.7807083,270.97044 2.5534577,268.83061 -1.0976706,266.0539 l -1.6044518,-1.2202 -1.7577911,0.27102 c -0.9667849,0.14906 -3.0079474,0.40978 -4.5359162,0.57938 -1.5279683,0.16961 -2.9567183,0.45489 -3.1750003,0.63397 -0.721188,0.59167 -1.34675,0.67188 -2.120288,0.27187 -1.113047,-0.57558 -9.04343,-0.57402 -9.521378,0.002 -0.449022,0.54104 -1.488962,0.49857 -2.482313,-0.10138 -0.632339,-0.38191 -1.749949,-0.56593 -4.786165,-0.78808 -2.583005,-0.18899 -4.05127,-0.19975 -4.220104,-0.0309 -0.392043,0.39204 -1.814486,0.31 -2.459601,-0.14185 -0.31473,-0.22045 -2.018532,-0.59561 -3.786711,-0.8338 -2.21755,-0.29873 -3.259119,-0.54922 -3.358285,-0.80764 -0.302551,-0.78844 0.338394,-0.89195 3.311888,-0.53484 2.706576,0.32505 3.011815,0.31615 3.813249,-0.11122 1.197766,-0.63872 1.621118,-0.60074 2.613665,0.23443 0.794922,0.66888 1.113102,0.73946 4.389006,0.97357 3.102166,0.2217 3.645355,0.19834 4.463889,-0.19199 1.209296,-0.57668 1.572202,-0.56046 2.480193,0.11085 0.694442,0.51342 1.028105,0.54831 4.428059,0.46302 3.335462,-0.0837 3.747278,-0.14754 4.433311,-0.68755 0.896075,-0.70536 1.778365,-0.75787 2.690601,-0.16015 0.533548,0.34959 1.065,0.40415 2.702668,0.27743 3.3175575,-0.2567 8.069715,-1.01341 8.84220042,-1.40798 1.22576696,-0.6261 6.41411388,0.39921 10.08782168,1.99354 1.6303069,0.70752 3.6137109,2.1253 3.6137109,2.58315 0,0.56174 -1.019937,0.40824 -1.937448,-0.29158 -1.009423,-0.76992 -4.252831,-2.10127 -6.5574074,-2.69168 -1.7519173,-0.44882 -4.27883106,-0.40103 -4.77007764,0.0902 -0.53758836,0.53759 6.04861314,4.43001 8.85840874,5.23529 1.4596453,0.41833 2.8830563,0.43333 6.6482173,0.07 0.578191,-0.0558 0.811318,0.0481 0.880258,0.39213 0.205248,1.02437 -3.601511,1.75556 -6.4698059,1.2427 z"
         id="path828"
         inkscape:connector-curvature="0" />
    </g>
  </g>
</svg>
