<?xml version="1.0" encoding="UTF-8" standalone="no"?>
<!-- Created with Inkscape (http://www.inkscape.org/) -->

<svg
   xmlns:dc="http://purl.org/dc/elements/1.1/"
   xmlns:cc="http://creativecommons.org/ns#"
   xmlns:rdf="http://www.w3.org/1999/02/22-rdf-syntax-ns#"
   xmlns:svg="http://www.w3.org/2000/svg"
   xmlns="http://www.w3.org/2000/svg"
   xmlns:sodipodi="http://sodipodi.sourceforge.net/DTD/sodipodi-0.dtd"
   xmlns:inkscape="http://www.inkscape.org/namespaces/inkscape"
   width="91.870285mm"
   height="124.63071mm"
   viewBox="0 0 73.49623 99.704563"
   version="1.1"
   id="svg8"
   inkscape:version="0.92.4 (5da689c313, 2019-01-14)"
   sodipodi:docname="bunny-hat.svg"
   inkscape:export-filename="C:\coding\bytecoin\src\assets\bunny-hat.png"
   inkscape:export-xdpi="29"
   inkscape:export-ydpi="29">
  <defs
     id="defs2" />
  <sodipodi:namedview
     id="base"
     pagecolor="#ffffff"
     bordercolor="#666666"
     borderopacity="1.0"
     inkscape:pageopacity="0.0"
     inkscape:pageshadow="2"
     inkscape:zoom="0.9899495"
     inkscape:cx="-79.488983"
     inkscape:cy="217.79785"
     inkscape:document-units="mm"
     inkscape:current-layer="g1377"
     showgrid="false"
     inkscape:window-width="1920"
     inkscape:window-height="1001"
     inkscape:window-x="-9"
     inkscape:window-y="-9"
     inkscape:window-maximized="1"
     scale-x="0.8"
     fit-margin-top="0"
     fit-margin-left="0"
     fit-margin-right="0"
     fit-margin-bottom="0" />
  <metadata
     id="metadata5">
    <rdf:RDF>
      <cc:Work
         rdf:about="">
        <dc:format>image/svg+xml</dc:format>
        <dc:type
           rdf:resource="http://purl.org/dc/dcmitype/StillImage" />
        <dc:title></dc:title>
      </cc:Work>
    </rdf:RDF>
  </metadata>
  <g
     inkscape:label="Layer 1"
     inkscape:groupmode="layer"
     id="layer1"
     transform="translate(-97.826206,-96.815844)">
    <g
       id="g1377"
       transform="translate(39.876488,3.5907738)">
      <path
         style="fill:#f8c9c9;stroke-width:0.26458335"
         d="m 72.98613,192.39083 c -0.624118,-0.62412 -1.163827,-1.82788 -2.019378,-4.50402 -3.302725,-10.3308 -0.703836,-22.52292 6.435327,-30.18994 0.62381,-0.66993 1.134202,-1.37307 1.134202,-1.56253 0,-0.18947 -1.101365,-1.48681 -2.447481,-2.88298 -10.644792,-11.04068 -12.197679,-14.94214 -15.016779,-37.72809 -0.975708,-7.88636 -1.967154,-14.58478 -2.541314,-17.169675 -0.691911,-3.11501 -0.758556,-4.48857 -0.238717,-4.92 0.392602,-0.32583 0.601067,-0.29263 1.647188,0.26234 3.47262,1.84222 14.400829,14.817355 19.353232,22.978215 2.548366,4.19935 4.388173,8.50212 5.171022,12.0935 0.87498,4.01403 1.498087,10.26281 1.713405,17.1827 0.139448,4.48166 0.225404,5.28515 0.561528,5.24909 0.218281,-0.0234 1.349375,-0.30944 2.513541,-0.63561 2.996737,-0.83961 8.118232,-0.85386 11.049304,-0.0308 1.12941,0.31716 2.21178,0.57666 2.40527,0.57666 0.27704,0 0.38798,-1.2511 0.52205,-5.88698 0.3482,-12.04082 1.60854,-18.66839 4.6946,-24.68677 3.82701,-7.46339 12.49865,-18.77486 19.16419,-24.998175 2.10998,-1.96999 3.34447,-2.62535 3.96899,-2.10705 0.46429,0.38533 0.52456,2.08648 0.1219,3.44113 -0.67289,2.26382 -1.48513,7.486015 -2.88038,18.519095 -2.95312,23.35221 -4.25553,26.64469 -14.91423,37.70312 -1.4026,1.45521 -2.55423,2.77391 -2.55917,2.93045 -0.005,0.15653 0.30542,0.57325 0.68969,0.92604 1.20426,1.10559 3.73796,4.41444 4.69781,6.13504 4.303,7.71339 5.07563,17.74783 2.01525,26.17292 -0.98107,2.70084 -1.79122,3.65535 -3.10254,3.65535 -1.02067,0 -2.45717,-1.18693 -2.45703,-2.03017 4e-5,-0.26586 0.41056,-1.63174 0.91226,-3.03529 3.61885,-10.12412 1.42426,-20.73381 -5.71833,-27.6451 -2.21194,-2.14031 -4.01831,-3.33094 -6.50889,-4.29016 -7.046755,-2.714 -14.074234,-1.08452 -19.79221,4.58926 -2.58956,2.56954 -4.076367,4.80905 -5.357528,8.06979 -1.353588,3.44508 -1.76759,5.80008 -1.744235,9.92187 0.02285,4.03342 0.544816,6.87164 1.821605,9.90515 0.870475,2.06816 0.850348,2.786 -0.104898,3.74125 -0.944716,0.94471 -2.382049,1.05753 -3.189254,0.25033 z"
         id="path1387"
         inkscape:connector-curvature="0" />
      <path
         style="fill:#f8bec0;stroke-width:0.26458335"
         d="m 73.250714,192.12625 c -1.213029,-1.21303 -2.793283,-6.52123 -3.209089,-10.77959 -0.522545,-5.35149 0.50462,-11.24966 2.802368,-16.0917 1.226455,-2.58451 2.56797,-4.58508 4.63936,-6.91856 0.870151,-0.98025 1.582095,-1.94399 1.582095,-2.14164 0,-0.19765 -1.16086,-1.573 -2.579688,-3.05634 -7.617075,-7.9634 -10.415526,-12.39112 -11.942602,-18.89562 -0.883114,-3.76158 -2.070078,-11.16242 -3.079857,-19.20322 -1.343406,-10.69744 -1.915763,-14.48151 -2.682275,-17.733545 -0.608752,-2.58272 -0.635922,-2.91228 -0.270249,-3.27795 0.365673,-0.36567 0.521599,-0.33905 1.550921,0.26478 3.857934,2.26321 16.071012,17.346465 20.404039,25.199155 3.586445,6.49968 4.878903,12.99793 5.420251,27.25208 0.221279,5.8265 -0.212857,5.33848 3.762793,4.22978 2.279079,-0.63557 2.822046,-0.6889 5.820834,-0.57173 1.861187,0.0727 3.943577,0.31499 4.762495,0.55406 0.80037,0.23366 1.84217,0.49842 2.31511,0.58837 l 0.85989,0.16355 v -2.61882 c 0,-6.06967 0.88884,-15.72694 1.85486,-20.15306 1.49349,-6.84296 5.65492,-13.97748 14.27672,-24.47657 5.3512,-6.516375 9.7061,-10.764545 11.03498,-10.764545 0.56109,0 0.64304,1.09449 0.20801,2.77813 -0.83034,3.21352 -2.04538,11.173835 -3.29142,21.563545 -0.98791,8.23743 -2.08896,14.24998 -3.41412,18.64362 -1.57946,5.23678 -4.68089,9.77827 -11.08371,16.23012 -1.48838,1.49978 -2.70535,2.92853 -2.70437,3.175 0.001,0.24648 0.71298,1.14294 1.58224,1.99214 4.74119,4.63183 7.94098,12.81342 7.94098,20.30445 0,4.03633 -1.08807,9.19276 -2.62845,12.45636 -0.71346,1.51161 -1.71762,2.0475 -2.91063,1.55334 -1.34125,-0.55556 -1.41975,-1.42823 -0.39351,-4.37477 1.22251,-3.51013 1.6999,-6.25509 1.69578,-9.75063 -0.0122,-10.32565 -5.63925,-19.26996 -14.30401,-22.73641 -4.737324,-1.89523 -9.726886,-1.59475 -14.71959,0.88642 -2.314493,1.15021 -3.121805,1.7321 -5.068345,3.6531 -3.371517,3.32729 -5.375938,6.85446 -6.711386,11.80997 -0.470458,1.74575 -0.571448,2.8585 -0.57631,6.35 -0.0065,4.65842 0.271226,6.28107 1.730838,10.11313 0.724272,1.90149 0.788675,2.27221 0.511142,2.94224 -0.546775,1.32003 -2.256052,1.7714 -3.186095,0.84136 z M 127.1204,112.1829 c -0.091,-0.45475 -0.16537,-0.99881 -0.16537,-1.20902 0,-0.24502 -0.21367,-0.35186 -0.59531,-0.29766 -1.12856,0.16028 -0.78108,2.33351 0.37311,2.33351 0.47817,0 0.53057,-0.11179 0.38757,-0.82683 z m -63.929952,-0.24465 c 0,-0.77527 -0.717025,-2.53303 -0.94165,-2.3084 -0.182212,0.18221 0.506678,3.11529 0.731686,3.11529 0.11548,0 0.209964,-0.3631 0.209964,-0.80689 z m 57.839782,-3.56028 c 0.68582,-0.36465 1.4126,-0.89951 1.61506,-1.18858 0.66062,-0.94316 1.33047,-1.13757 2.6139,-0.75861 0.93765,0.27685 1.16667,0.46298 1.16667,0.94817 0,0.4273 0.15462,0.60369 0.52917,0.60369 0.42227,0 0.52917,-0.17639 0.52917,-0.87312 0,-0.48022 0.11104,-0.98624 0.24676,-1.12448 0.13572,-0.13825 0.27793,-1.08479 0.31604,-2.10344 0.0386,-1.03121 0.281,-2.36019 0.54698,-2.9985 0.6022,-1.445145 0.60012,-1.467135 -0.11759,-1.242635 -0.32743,0.10242 -1.01204,0.26687 -1.52136,0.365455 -0.80982,0.15674 -0.94264,0.29497 -1.05833,1.10142 -0.11745,0.81871 -0.23619,0.93702 -1.05834,1.05447 -0.82314,0.11759 -0.94074,0.23519 -1.05833,1.05833 -0.11759,0.82315 -0.23518,0.94074 -1.05833,1.05834 -0.79712,0.11387 -0.93809,0.2428 -1.01255,0.92604 -0.1078,0.98921 -0.51059,1.45828 -0.82097,0.95608 -0.12319,-0.19933 -0.35636,-0.28061 -0.51815,-0.18061 -0.42589,0.26321 -0.36093,0.62746 0.12957,0.72648 0.34627,0.0699 0.2979,0.22105 -0.26459,0.82678 -0.59779,0.64376 -0.92443,1.50773 -0.57002,1.50773 0.0651,0 0.67942,-0.29836 1.36524,-0.66301 z m -57.046032,-1.47002 v -1.07469 l 2.255178,0.0542 c 1.240348,0.0298 2.331754,-0.0223 2.425347,-0.11593 0.09359,-0.0936 0.06103,-0.17044 -0.07237,-0.17077 -0.133395,-3.3e-4 -0.255502,-0.36324 -0.271351,-0.80645 -0.04207,-1.17657 -1.273439,-2.38531 -2.23421,-2.19315 -0.622955,0.12459 -0.74887,0.0517 -0.823673,-0.47688 -0.05816,-0.411 -0.29148,-0.65281 -0.683614,-0.70851 -0.660129,-0.0937 -0.770025,-0.54736 -0.264583,-1.0921 0.26987,-0.29085 0.246208,-0.326725 -0.128591,-0.19493 -0.586805,0.20634 -2.292686,-0.864035 -2.307606,-1.447925 -0.01616,-0.63243 -1.069532,-0.30071 -1.069532,0.33682 0,0.34636 0.189196,0.49831 0.620451,0.49831 1.080427,0 1.558906,0.831925 1.47454,2.563775 -0.04119,0.8455 -0.05316,2.51953 -0.02661,3.72008 0.04402,1.99033 0.09494,2.18281 0.577448,2.18281 0.442315,0 0.529167,-0.17639 0.529167,-1.07469 z m 4.433095,0.2148 c -0.0599,-0.1819 -0.391552,-0.37193 -0.736993,-0.42229 -0.548357,-0.0799 -0.583592,-0.038 -0.277608,0.33073 0.414363,0.49928 1.171372,0.56759 1.014601,0.0916 z"
         id="path1385"
         inkscape:connector-curvature="0" />
      <path
         style="fill:#f4b2b2;stroke-width:0.26458335"
         d="m 73.30903,192.054 c -1.03693,-1.29431 -2.432613,-5.6101 -2.996706,-9.26654 -0.434769,-2.81817 -0.167305,-8.41987 0.539772,-11.30481 1.30906,-5.34111 3.496226,-9.41266 7.204559,-13.41177 0.700357,-0.75528 1.273376,-1.53177 1.273376,-1.72556 0,-0.19378 -0.55286,-0.94505 -1.228579,-1.66948 -7.972789,-8.54756 -10.083264,-11.36741 -12.040163,-16.0871 -0.789236,-1.9035 -1.358601,-4.14978 -1.050745,-4.14545 0.16948,0.002 2.203806,3.0336 2.379902,3.54613 0.202543,0.58951 1.921568,3.06614 2.128199,3.06614 0.117972,0 0.42169,0.54254 0.674928,1.20563 0.253238,0.66309 0.686132,1.34658 0.961987,1.51885 0.275855,0.17228 0.501554,0.457 0.501554,0.63272 2.480477,2.80161 6.299235,8.45847 9.0272,10.13655 0.149059,0 0.449609,0.1786 0.667891,0.39688 0.743743,0.74374 1.071126,0.45558 1.277535,-1.12448 0.484449,-3.70843 0.770316,-6.39948 0.976688,-9.19427 0.0332,-0.44957 -0.135755,-2.49973 -0.697741,-8.46667 -0.05482,-0.58208 -0.231584,-1.59411 -0.392805,-2.24896 -0.161219,-0.65484 -0.342988,-1.93113 -0.403926,-2.8362 -0.06094,-0.90507 -0.305123,-2.27429 -0.542629,-3.04271 -0.237506,-0.76842 -0.591489,-2.05197 -0.786627,-2.85234 -0.864294,-3.54492 -1.169046,-4.55305 -1.495158,-4.94599 -0.337299,-0.40642 -0.980446,-2.47577 -1.004168,-3.23095 -0.04627,-1.47312 3.244244,4.36643 4.605287,8.17282 0.389443,1.08914 0.871485,2.75707 1.071205,3.70652 0.920478,4.37579 1.712767,13.48357 1.7178,19.74698 0.0027,3.34616 0.224808,3.82925 1.523481,3.31342 0.400312,-0.159 1.737371,-0.54571 2.971242,-0.85934 1.911112,-0.48577 2.714493,-0.54853 5.423958,-0.4237 1.795799,0.0827 3.814133,0.33989 4.635763,0.59064 0.80037,0.24425 1.83679,0.50339 2.30315,0.57586 1.09164,0.16963 1.06503,0.31651 1.25626,-6.9348 0.21188,-8.03406 1.14476,-15.08721 2.55245,-19.29816 0.80899,-2.42003 3.90395,-8.56375 4.60871,-9.14865 0.63322,-0.52552 0.47941,0.14784 -0.30425,1.33203 -0.54055,0.81683 -0.66279,1.25779 -0.54681,1.97248 0.10797,0.66533 -0.0179,1.23512 -0.45416,2.05558 -0.33195,0.6243 -0.75191,1.78796 -0.93324,2.58591 -0.18133,0.79794 -0.50291,2.04612 -0.71462,2.77373 -0.21172,0.7276 -0.45305,1.85869 -0.5363,2.51354 -0.0833,0.65484 -0.30862,1.31773 -0.50083,1.47308 -0.19221,0.15535 -0.33598,0.69113 -0.31949,1.19063 0.0165,0.49949 -0.0411,1.52459 -0.12793,2.278 -0.374,3.24451 -0.49975,11.82979 -0.22847,15.59844 0.30844,4.28496 0.44231,4.96515 0.91857,4.66733 0.16665,-0.10421 0.44754,-0.21142 0.62419,-0.23825 0.56246,-0.0854 2.00917,-1.22456 3.72841,-2.93577 0.91759,-0.9133 1.76723,-1.66054 1.88808,-1.66054 0.12086,0 0.41058,-0.40216 0.64382,-0.89369 0.23325,-0.49153 0.71904,-1.08695 1.07955,-1.32316 0.36051,-0.23622 1.29711,-1.41163 2.08134,-2.61205 0.78423,-1.20041 1.85981,-2.69984 2.39018,-3.33207 0.53037,-0.63224 0.96431,-1.30771 0.96431,-1.50106 0,-0.19335 0.27549,-0.6881 0.6122,-1.09944 0.58048,-0.70915 1.50447,-2.46794 1.50447,-2.86372 0,-0.10106 -0.26176,-0.55136 -0.58169,-1.00066 -0.45263,-0.63566 -0.48629,-0.7803 -0.15168,-0.6519 0.60788,0.23326 1.63952,-0.31731 1.99131,-1.06275 0.35749,-0.75752 0.16687,-1.40908 -0.3538,-1.20928 -0.20623,0.0791 -0.37498,0.0121 -0.37498,-0.149 0,-0.16109 0.13571,-0.29289 0.30157,-0.29289 0.16585,0 0.45549,-0.20836 0.64364,-0.46302 0.226,-0.30589 0.42865,-0.37323 0.59716,-0.19844 0.29976,0.31094 -0.18968,3.02393 -0.64901,3.59753 -0.16349,0.20417 -0.35452,0.99788 -0.42451,1.76379 -0.15683,1.71617 -1.5189,4.54851 -3.81838,7.94008 -1.79735,2.65096 -2.2553,3.20695 -4.72026,5.73088 -0.87312,0.89401 -2.03764,2.09717 -2.58782,2.67368 -0.55017,0.57651 -1.35384,1.3906 -1.78593,1.80907 -0.43209,0.41847 -0.78482,0.95426 -0.78384,1.19062 10e-4,0.23638 0.71757,1.12907 1.59244,1.98377 3.16289,3.08997 5.58873,7.45716 7.02681,12.65022 0.83453,3.01357 1.16951,9.17219 0.66453,12.21736 -0.69048,4.16374 -2.27341,8.6689 -3.22481,9.17807 -0.84836,0.45403 -2.03297,0.29283 -2.47388,-0.33665 -0.56825,-0.8113 -0.51832,-1.51845 0.24316,-3.44407 3.22718,-8.16082 2.32827,-17.27452 -2.42436,-24.57982 -1.68468,-2.58953 -5.36595,-5.9744 -7.97224,-7.33033 -3.951532,-2.05582 -8.667336,-2.70228 -12.748015,-1.74755 -5.768597,1.34963 -11.114593,5.86652 -14.012739,11.83951 -1.947431,4.0136 -2.413969,5.93797 -2.578739,10.63676 -0.160099,4.56558 0.247029,7.41739 1.529779,10.71562 0.909246,2.33788 0.965458,3.24833 0.245032,3.96875 -0.598605,0.59861 -2.164397,0.71897 -2.581418,0.19844 z m 36.08164,-33.12975 c -0.23502,-0.35869 -0.42731,-0.96102 -0.42731,-1.33853 0,-0.39022 -0.11416,-0.61583 -0.26458,-0.52287 -0.45186,0.27927 -0.29157,1.26009 0.3107,1.90118 0.74937,0.79766 0.91835,0.78002 0.38119,-0.0398 z m -0.95647,-6.09473 c 0,-0.21828 0.17859,-0.39687 0.39687,-0.39687 0.21828,0 0.39688,0.17859 0.39688,0.39687 0,0.21828 -0.1786,0.39688 -0.39688,0.39688 -0.21828,0 -0.39687,-0.1786 -0.39687,-0.39688 z m 2.91041,-3.78333 c 0,-0.1163 -0.41758,-0.1627 -0.92796,-0.10312 -0.96431,0.11258 -2.24704,-0.49239 -2.24704,-1.05975 0,-0.16709 -0.20668,-0.53218 -0.45929,-0.81131 -0.39714,-0.43884 -0.45956,-1.10409 -0.46122,-4.91563 -0.002,-4.76707 0.21719,-7.42477 0.68464,-8.29821 0.16296,-0.30449 0.32757,-1.04207 0.3658,-1.63905 0.0382,-0.59699 0.2733,-1.56168 0.52238,-2.14377 0.65028,-1.51963 1.46436,-4.09234 1.46436,-4.62775 0,-0.25178 0.29766,-0.8964 0.66146,-1.43249 0.3638,-0.53609 0.66146,-1.07549 0.66146,-1.19866 0,-0.40221 0.91194,-2.25317 1.54725,-3.14045 0.45132,-0.63031 0.5734,-1.05811 0.44639,-1.56418 -0.14878,-0.59279 -0.11673,-0.64836 0.21512,-0.37295 0.29805,0.24736 0.43545,0.25004 0.58295,0.0114 0.10874,-0.17594 0.004,-0.41831 -0.24102,-0.55516 -0.56575,-0.31662 -0.54038,-0.72706 0.0951,-1.53953 l 0.5174,-0.66146 0.006,0.72761 c 0.003,0.40018 0.1222,0.7276 0.26437,0.7276 0.14216,0 0.4661,-0.32742 0.71986,-0.7276 0.25377,-0.40019 0.91136,-1.27105 1.46131,-1.93526 0.54997,-0.66421 0.99993,-1.30361 0.99993,-1.4209 0,-0.11729 0.74414,-0.972 1.65365,-1.89936 1.69503,-1.7283 2.18307,-1.92808 3.49325,-1.42996 0.90483,0.34402 1.21939,1.26278 1.36043,3.9735 0.0644,1.23692 0.16767,2.80547 0.22958,3.48565 0.0761,0.83559 -0.004,1.33338 -0.24664,1.53481 -0.19756,0.16396 -0.42119,0.97667 -0.49694,1.80602 -0.14463,1.58332 -0.35038,2.88039 -1.07772,6.79398 -0.39309,2.11507 -0.76436,3.33065 -2.1796,7.13625 -0.37515,1.00877 -0.36953,1.33241 0.0404,2.32818 0.1382,0.33572 0.0651,0.46302 -0.26587,0.46302 -0.66169,0 -1.97221,1.60074 -1.97716,2.41501 -0.002,0.38236 -0.17516,0.83707 -0.38409,1.01046 -0.20893,0.1734 -0.45651,0.66423 -0.55019,1.09073 -0.0937,0.42651 -0.32589,0.77547 -0.51603,0.77547 -0.19014,0 -0.54467,0.38695 -0.78785,0.8599 -0.52496,1.02094 -1.55905,2.5451 -2.1243,3.13105 -0.22234,0.23049 -0.40426,0.61744 -0.40426,0.85989 0,0.24246 -0.18154,0.44083 -0.40343,0.44083 -0.22188,0 -0.51659,0.29765 -0.65491,0.66146 -0.13831,0.3638 -0.38623,0.66146 -0.55092,0.66146 -0.16469,0 -0.23091,0.17859 -0.14715,0.39687 0.10359,0.26995 -0.0143,0.39688 -0.36856,0.39688 -0.28648,0 -0.52087,-0.0952 -0.52087,-0.21146 z m -34.023248,-0.85082 c -0.895874,-0.57406 -2.735486,-2.65404 -3.272627,-3.70022 -0.186786,-0.36381 -0.612626,-0.95912 -0.94631,-1.32292 -0.333685,-0.3638 -0.92604,-1.34111 -1.316345,-2.17179 -0.390305,-0.83069 -0.876649,-1.64894 -1.080764,-1.81834 -0.204115,-0.1694 -0.371118,-0.50879 -0.371118,-0.7542 0,-0.24541 -0.174807,-0.67732 -0.388461,-0.95979 -0.213653,-0.28247 -0.392247,-0.68065 -0.396875,-0.88484 -0.0046,-0.20419 -0.376398,-1.15009 -0.826157,-2.10201 -0.449758,-0.95191 -1.046981,-2.63032 -1.327163,-3.72979 -0.280181,-1.09947 -0.756771,-2.71341 -1.059088,-3.58653 -0.302316,-0.87313 -0.568296,-2.34125 -0.591065,-3.26249 -0.03234,-1.30847 -0.151304,-1.75534 -0.543681,-2.04225 -0.379168,-0.27724 -0.43086,-0.45332 -0.210894,-0.71837 0.203646,-0.24537 0.216819,-0.86531 0.04375,-2.05879 -0.43385,-2.99177 -0.582314,-8.72659 -0.246882,-9.53639 0.735104,-1.7747 2.649951,-1.3737 4.68249,0.98058 0.663841,0.76892 1.328444,1.37415 1.476896,1.34496 0.148452,-0.0292 0.411913,0.21927 0.585469,0.55214 0.173557,0.33288 0.570243,0.87634 0.881527,1.20768 0.311283,0.33135 0.565969,0.92475 0.565969,1.31867 0,0.50722 0.193027,0.80417 0.661459,1.01761 0.363802,0.16576 0.661458,0.44011 0.661458,0.60966 0,0.16956 0.299658,0.5898 0.665908,0.93387 0.366249,0.34408 0.801814,1.07921 0.967922,1.63362 0.166108,0.55442 0.40223,1.00804 0.524717,1.00804 0.122486,0 0.222703,0.2196 0.222703,0.48801 0,0.26841 0.297511,0.83395 0.661135,1.25677 0.363625,0.42282 0.661281,0.90794 0.661459,1.07805 1.77e-4,0.17011 0.171632,0.64636 0.38101,1.05833 1.095034,2.1546 2.529729,6.51197 2.529729,7.68314 0,0.34273 0.173464,0.6897 0.385474,0.77106 0.261126,0.1002 0.339186,0.37937 0.241978,0.8654 -0.07892,0.39461 0.03858,1.36611 0.26112,2.15888 0.449162,1.6001 0.568325,3.39402 0.471603,7.09978 -0.177812,2.94892 -1.719917,7.59288 -4.956344,5.58249 z m 40.637838,-6.08148 c 0,-0.14552 0.11906,-0.26458 0.26458,-0.26458 0.14552,0 0.26458,0.11906 0.26458,0.26458 0,0.14553 -0.11906,0.26459 -0.26458,0.26459 -0.14552,0 -0.26458,-0.11906 -0.26458,-0.26459 z m -50.888197,-7.8493 c -0.260571,-0.26057 -0.214294,-1.14653 0.05989,-1.14653 0.236318,0 0.557474,0.62216 0.557474,1.07997 0,0.28296 -0.361941,0.32198 -0.617361,0.0666 z m -2.466648,-1.477 c -0.179887,-0.58334 -0.206364,-1.05343 -0.06428,-1.14125 0.332842,-0.20571 0.559323,0.48124 0.456038,1.38323 -0.08399,0.73345 -0.09261,0.72812 -0.391761,-0.24198 z m -0.234162,-1.8038 c -0.09592,-0.1552 -0.110868,-0.34572 -0.03322,-0.42337 0.189525,-0.18952 0.705556,0.14442 0.705556,0.45659 0,0.33813 -0.456779,0.31556 -0.672338,-0.0332 z m 59.265457,-1.28193 c 0.29612,-0.57264 0.53555,-0.73449 0.93283,-0.6306 0.74724,0.19541 0.66658,0.83467 -0.14421,1.14293 -1.07017,0.40688 -1.21523,0.31264 -0.78862,-0.51233 z m -57.799369,-0.40464 c 0,-0.22687 0.119063,-0.41249 0.264583,-0.41249 0.145521,0 0.264584,0.11203 0.264584,0.24897 0,0.13693 -0.119063,0.32255 -0.264584,0.41249 -0.14552,0.0899 -0.264583,-0.0221 -0.264583,-0.24897 z m -0.74217,-1.60312 c 0.0054,-0.43656 0.06469,-0.58312 0.131774,-0.32569 0.06708,0.25743 0.06267,0.61462 -0.0098,0.79375 -0.07248,0.17913 -0.127363,-0.0315 -0.121971,-0.46806 z m 60.337049,-1.61341 c -0.0162,-2.0703 0.0405,-2.38286 0.43778,-2.41279 0.41048,-0.0309 0.43461,0.14843 0.2396,1.78117 -0.36001,3.01435 -0.65649,3.29081 -0.67738,0.63162 z m -44.873893,1.34883 c -0.08376,-0.21828 -0.03697,-0.39688 0.103983,-0.39688 0.140955,0 0.256281,0.1786 0.256281,0.39688 0,0.21828 -0.04679,0.39687 -0.103984,0.39687 -0.05719,0 -0.172516,-0.17859 -0.25628,-0.39687 z m -17.098184,-0.59531 c 0.0032,-0.56699 0.06067,-0.64 0.260531,-0.33073 0.334542,0.51766 0.334542,1.05833 0,1.05833 -0.14552,0 -0.26276,-0.32742 -0.260531,-0.7276 z m -0.818045,-5.29167 c -0.01113,-0.40018 -0.05564,-0.9062 -0.0989,-1.12448 -0.04326,-0.21828 -0.166687,-1.15637 -0.274278,-2.08464 -0.154675,-1.33451 -0.125251,-1.64427 0.140581,-1.47998 0.341199,0.21087 0.294643,-0.20261 -0.14232,-1.26403 -0.133824,-0.32506 -0.0671,-0.46302 0.22393,-0.46302 0.35569,0 0.415066,0.50714 0.418196,3.57188 0.002,1.96453 -0.05274,3.57187 -0.121657,3.57187 -0.06892,0 -0.134415,-0.32742 -0.145548,-0.7276 z m 15.899294,-0.26458 c 0.0031,-0.56699 0.06067,-0.64 0.260533,-0.33073 0.334541,0.51766 0.334541,1.05833 0,1.05833 -0.145521,0 -0.262761,-0.32742 -0.260533,-0.7276 z m 47.553578,-0.4863 c -0.27727,-0.27727 -0.24569,-1.10616 0.0491,-1.28834 0.35537,-0.21963 0.48844,0.15832 0.3061,0.86942 -0.0869,0.33887 -0.24673,0.52738 -0.35519,0.41892 z m -48.880545,-0.86813 c 0,-0.36312 0.729469,-0.88186 0.885372,-0.62961 0.0763,0.12346 -0.09169,0.36838 -0.373319,0.54426 -0.28163,0.17588 -0.512053,0.21429 -0.512053,0.0853 z m 33.866665,-0.30293 c 0,-0.45855 1.17376,-2.10623 1.50288,-2.10968 0.36424,-0.004 0.0386,1.39893 -0.46583,2.00674 -0.35656,0.42963 -1.03705,0.49718 -1.03705,0.10294 z m -47.074944,-0.6798 c 0.0127,-0.30822 0.07539,-0.37091 0.159852,-0.15985 0.07643,0.191 0.06703,0.4192 -0.02089,0.50712 -0.08792,0.0879 -0.150452,-0.0683 -0.138964,-0.34727 z m 62.752084,-0.50711 c 0.003,-0.58209 0.0571,-0.78906 0.12041,-0.45994 0.0633,0.32912 0.0609,0.80537 -0.005,1.05833 -0.0662,0.25297 -0.11801,-0.0163 -0.11507,-0.59839 z m -0.33131,-1.5875 c 0,-0.21829 0.11907,-0.39688 0.26459,-0.39688 0.14552,0 0.26458,0.17859 0.26458,0.39688 0,0.21828 -0.11906,0.39687 -0.26458,0.39687 -0.14552,0 -0.26459,-0.17859 -0.26459,-0.39687 z M 76.684198,116.4337 c 0,-0.15411 0.119062,-0.20662 0.264583,-0.11668 0.145521,0.0899 0.264584,0.21603 0.264584,0.2802 0,0.0642 -0.119063,0.11667 -0.264584,0.11667 -0.145521,0 -0.264583,-0.12609 -0.264583,-0.28019 z m 0.661458,-0.77814 c -0.08994,-0.14552 -0.453404,-0.26458 -0.807704,-0.26458 -0.513986,0 -0.626253,-0.1175 -0.555465,-0.58134 0.131327,-0.86054 0.481365,-0.8063 1.323082,0.205 0.414515,0.49803 0.629902,0.9055 0.478637,0.9055 -0.151265,0 -0.348613,-0.11906 -0.43855,-0.26458 z m 34.843424,-0.81359 c 0.0521,-0.15644 0.20791,-0.28443 0.34616,-0.28443 0.13824,0 0.29402,0.12799 0.34616,0.28443 0.0521,0.15643 -0.10363,0.28442 -0.34616,0.28442 -0.24254,0 -0.39831,-0.12799 -0.34616,-0.28442 z m -39.209049,-1.31869 c 0,-0.15411 0.119063,-0.20661 0.264584,-0.11668 0.14552,0.0899 0.264583,0.21603 0.264583,0.2802 0,0.0642 -0.119063,0.11668 -0.264583,0.11668 -0.145521,0 -0.264584,-0.12609 -0.264584,-0.2802 z m 1.71158,-1.05601 c -0.251412,-0.40679 0.09296,-0.66925 0.43255,-0.32966 0.190019,0.19002 0.194584,0.33801 0.01387,0.4497 -0.148145,0.0915 -0.349035,0.0375 -0.446423,-0.12004 z m 40.092589,-0.0456 c 0,-0.50799 0.69238,-1.11293 0.89624,-0.78307 0.0823,0.13314 -0.0857,0.45503 -0.37331,0.71532 -0.44029,0.39845 -0.52293,0.40916 -0.52293,0.0677 z m -41.49284,-1.70512 c 0.126989,-0.65479 0.658716,-0.71885 0.820838,-0.0989 0.107035,0.4093 0.01445,0.53998 -0.382587,0.53998 -0.346756,0 -0.494883,-0.14908 -0.438251,-0.44109 z m 43.08034,-0.85059 c 0,-0.14552 0.11906,-0.33817 0.26458,-0.42811 0.14552,-0.0899 0.26458,-0.0445 0.26458,0.10106 0,0.14552 -0.11906,0.33817 -0.26458,0.42811 -0.14552,0.0899 -0.26458,0.0445 -0.26458,-0.10106 z m 0.26458,-1.16741 c 0,-0.21259 0.19003,-0.54424 0.42229,-0.737 0.36869,-0.30598 0.41066,-0.27074 0.33073,0.27761 -0.10006,0.68641 -0.75302,1.08475 -0.75302,0.45939 z M 59.089406,96.340975 c 0.08994,-0.14552 0.216026,-0.26459 0.280198,-0.26459 0.06417,0 0.116677,0.11907 0.116677,0.26459 0,0.14552 -0.126089,0.26458 -0.280198,0.26458 -0.154109,0 -0.206614,-0.11906 -0.116677,-0.26458 z m 1.45926,-0.99219 c 0.0023,-0.26424 0.08883,-0.34943 0.201515,-0.19844 0.108606,0.14552 0.30522,0.35388 0.436921,0.46302 0.131701,0.10914 0.04102,0.19844 -0.201515,0.19844 -0.245129,0 -0.439173,-0.20564 -0.436921,-0.46302 z m 68.750784,-0.60412 c 0.82819,-0.68995 1.3607,-0.66051 1.3557,0.075 -0.003,0.47607 -0.054,0.51626 -0.25357,0.20065 -0.19871,-0.31431 -0.3164,-0.32778 -0.57803,-0.0661 -0.18069,0.18068 -0.51307,0.32455 -0.73862,0.31971 -0.30105,-0.006 -0.24401,-0.14718 0.21452,-0.52917 z"
         id="path1383"
         inkscape:connector-curvature="0"
         sodipodi:nodetypes="csccscsccsscccssscscscccccccccccsscccccscccssccssccccscsccccsscccsscccccsscscsccssccccsccccsssssccscccscssscsccccccsccscccccccccscccsccsscscsccccccsscccscsccccccccscsccsscscsccscccssssscsscccccccccsccccccssscscccccccsccssscccsccssccscsccccscccccccccccsccsccccccccccsssssscssscsccsccscscscssscccccccccccssccscscssccscssscccsscccscccc" />
      <path
         style="fill:#c8898a;stroke-width:0.26458335"
         d="m 77.073241,146.45733 c -1.363734,-1.40318 -3.582409,-4.66534 -5.113467,-7.51844 -2.205805,-4.11047 -4.380604,-10.86973 -5.065233,-15.7427 -0.143115,-1.01865 -0.37024,-2.4593 -0.504724,-3.20146 -0.134483,-0.74215 -0.390408,-3.22138 -0.568722,-5.50939 -0.285922,-3.66876 -0.276407,-4.20783 0.08057,-4.56481 0.245952,-0.24595 0.61496,-0.33806 0.94044,-0.23476 0.800598,0.2541 5.344177,5.51196 5.344177,6.18432 0,0.13742 0.198303,0.41325 0.440674,0.61297 0.659686,0.5436 2.064084,2.82767 3.533195,5.74627 3.022302,6.00425 4.649042,11.77921 4.932641,17.51096 0.179557,3.62894 -0.187166,6.68216 -0.896839,7.46683 -0.758426,0.83858 -1.828774,0.58158 -3.122712,-0.74979 z m 32.031269,0.60201 c -1.04882,-1.60071 -1.22502,-6.63542 -0.40091,-11.45593 1.42897,-8.35856 5.64931,-17.04229 11.58039,-23.82766 2.93162,-3.35389 3.66266,-2.9794 3.36499,1.72377 -0.41168,6.50465 -1.78346,14.01722 -3.43736,18.82479 -2.50451,7.28014 -7.71283,15.34584 -9.90937,15.34584 -0.54109,0 -0.9262,-0.1964 -1.19774,-0.61081 z"
         id="path1381"
         inkscape:connector-curvature="0" />
      <path
         style="fill:#b77c7c;stroke-width:0.26458335"
         d="m 77.296224,146.0165 c -1.670615,-1.73036 -5.497388,-8.08445 -6.015327,-9.98802 -0.09899,-0.3638 0.283501,0.19422 0.849971,1.24004 2.767081,5.10863 4.933004,7.80825 5.951153,7.41755 0.534133,-0.20497 0.983427,-2.60653 0.983427,-5.25662 0,-1.58457 -0.265361,-3.70834 -0.794319,-6.3572 -1.121811,-5.61768 -1.449627,-6.75331 -3.147155,-10.90244 -0.17142,-0.41899 -0.255487,-0.81798 -0.186818,-0.88665 0.193669,-0.19367 2.442735,4.63575 3.331385,7.15349 0.438301,1.2418 1.118796,3.54727 1.512213,5.12326 0.632934,2.53547 0.716722,3.38341 0.727604,7.36336 0.0141,5.15566 -0.228441,6.21771 -1.419921,6.21771 -0.484563,0 -1.04767,-0.35331 -1.792213,-1.12448 z m 31.923456,0.26458 c -0.73598,-1.94962 -0.53796,-10.60596 0.2609,-11.40481 0.57028,-0.57029 0.88159,1.08542 0.83631,4.44797 -0.0384,2.85444 0.035,3.6085 0.42449,4.3614 0.25902,0.50066 0.60755,0.95299 0.77452,1.00518 0.33411,0.10445 2.61866,-1.94998 3.09857,-2.78645 0.16611,-0.28952 0.86859,-1.58962 1.56107,-2.88911 0.69247,-1.29948 1.4373,-2.59241 1.65518,-2.87318 0.37015,-0.47698 0.37934,-0.46332 0.14,0.20812 -0.44023,1.23498 -1.33319,2.88156 -3.21534,5.92893 -2.79894,4.53173 -4.79183,5.97246 -5.5357,4.00195 z m 9.00815,-11.22917 c 0.002,-0.11773 0.11947,-0.39265 0.26053,-0.61093 0.22104,-0.34203 0.25704,-0.33504 0.26054,0.0505 0.002,0.24607 -0.11501,0.52099 -0.26054,0.61093 -0.14552,0.0899 -0.26276,0.0672 -0.26053,-0.0505 z m -8.45142,-0.98456 c -0.26083,-0.31427 -0.18712,-0.84957 0.37462,-2.72079 1.20837,-4.02526 3.40763,-9.33182 3.73275,-9.0067 0.13325,0.13325 -0.54119,2.44846 -1.52796,5.24517 -0.2869,0.81313 -0.78127,2.64889 -1.09861,4.07947 -0.58203,2.62389 -0.88685,3.11852 -1.4808,2.40285 z"
         id="path1379"
         inkscape:connector-curvature="0" />
    </g>
  </g>
</svg>
