<?xml version="1.0" encoding="UTF-8" standalone="no"?>
<!-- Created with Inkscape (http://www.inkscape.org/) -->

<svg
   xmlns:dc="http://purl.org/dc/elements/1.1/"
   xmlns:cc="http://creativecommons.org/ns#"
   xmlns:rdf="http://www.w3.org/1999/02/22-rdf-syntax-ns#"
   xmlns:svg="http://www.w3.org/2000/svg"
   xmlns="http://www.w3.org/2000/svg"
   xmlns:sodipodi="http://sodipodi.sourceforge.net/DTD/sodipodi-0.dtd"
   xmlns:inkscape="http://www.inkscape.org/namespaces/inkscape"
   width="499.99997"
   height="500"
   viewBox="0 0 132.29166 132.29167"
   version="1.1"
   id="svg8"
   inkscape:version="0.92.4 (5da689c313, 2019-01-14)"
   sodipodi:docname="bytecoin.svg"
   inkscape:export-filename="C:\proger\bytecoin\src\assets\bytecoin512.png"
   inkscape:export-xdpi="98.304008"
   inkscape:export-ydpi="98.304008">
  <defs
     id="defs2" />
  <sodipodi:namedview
     id="base"
     pagecolor="#ffffff"
     bordercolor="#666666"
     borderopacity="1.0"
     inkscape:pageopacity="0.0"
     inkscape:pageshadow="2"
     inkscape:zoom="0.7"
     inkscape:cx="-80.237897"
     inkscape:cy="248.52003"
     inkscape:document-units="mm"
     inkscape:current-layer="layer1"
     showgrid="false"
     units="px"
     inkscape:window-width="1920"
     inkscape:window-height="1017"
     inkscape:window-x="-8"
     inkscape:window-y="-8"
     inkscape:window-maximized="1"
     fit-margin-top="0"
     fit-margin-left="0"
     fit-margin-right="0"
     fit-margin-bottom="0" />
  <metadata
     id="metadata5">
    <rdf:RDF>
      <cc:Work
         rdf:about="">
        <dc:format>image/svg+xml</dc:format>
        <dc:type
           rdf:resource="http://purl.org/dc/dcmitype/StillImage" />
        <dc:title />
      </cc:Work>
    </rdf:RDF>
  </metadata>
  <g
     inkscape:label="Layer 1"
     inkscape:groupmode="layer"
     id="layer1"
     transform="translate(-4.5526171,-162.29386)">
    <ellipse
       id="path3721"
       cx="228.4397"
       cy="70.698448"
       style="fill:#f0c850;fill-opacity:1;stroke:#b58000;stroke-width:8.68505669;stroke-miterlimit:4;stroke-dasharray:none;stroke-opacity:1"
       transform="matrix(0,1,1,0,0,0)"
       rx="61.803307"
       ry="61.803303" />
    <g
       aria-label="B"
       transform="matrix(0.28724014,0,0,0.28724014,-0.38984979,153.58667)"
       style="font-style:normal;font-weight:normal;font-size:40px;line-height:1.25;font-family:sans-serif;letter-spacing:0px;word-spacing:0px;fill:#000000;fill-opacity:1;stroke:none"
       id="flowRoot4530">
      <path
         sodipodi:type="inkscape:offset"
         inkscape:radius="0.88295317"
         inkscape:original="M 138.0957 155.82617 L 138.0957 157.29883 L 141.04297 158.35352 C 141.21266 158.41412 141.3573 158.50574 141.47852 158.62695 C 141.61185 158.74817 141.67773 158.92945 141.67773 159.17188 L 141.67773 178.80859 C 141.67773 179.07526 141.61731 179.27487 141.49609 179.4082 C 141.38701 179.52942 141.23691 179.62104 141.04297 179.68164 L 138.0957 180.69922 L 138.0957 182.20898 L 149.57031 182.20898 C 150.49153 182.20898 151.39445 182.15947 152.2793 182.0625 C 153.17626 181.96553 154.02422 181.80803 154.82422 181.58984 C 155.62422 181.35954 156.36418 181.0574 157.04297 180.68164 C 157.73388 180.29377 158.32179 179.8193 158.80664 179.26172 C 159.30361 178.69203 159.68996 178.0199 159.96875 177.24414 C 160.24754 176.46838 160.38672 175.57833 160.38672 174.57227 C 160.38672 173.65105 160.20543 172.81401 159.8418 172.0625 C 159.47816 171.29887 158.969 170.64506 158.31445 170.09961 C 157.67203 169.55415 156.90283 169.12374 156.00586 168.80859 C 155.10889 168.48131 154.12721 168.28716 153.06055 168.22656 L 153.06055 168.08008 C 153.92115 167.87402 154.69581 167.58474 155.38672 167.20898 C 156.07763 166.8211 156.66008 166.35951 157.13281 165.82617 C 157.61766 165.28072 157.98764 164.66357 158.24219 163.97266 C 158.50885 163.28175 158.64258 162.51801 158.64258 161.68164 C 158.64258 160.93013 158.5034 160.20107 158.22461 159.49805 C 157.95794 158.79501 157.4671 158.17241 156.75195 157.62695 C 156.0368 157.0815 155.05513 156.64368 153.80664 156.31641 C 152.55816 155.98913 150.96284 155.82617 149.02344 155.82617 L 138.0957 155.82617 z M 145.66016 158.26172 L 148.40625 158.26172 C 149.47292 158.26172 150.38129 158.35879 151.13281 158.55273 C 151.89645 158.74667 152.52101 159.05077 153.00586 159.46289 C 153.49071 159.86289 153.84783 160.37751 154.07812 161.00781 C 154.30842 161.63811 154.42383 162.38899 154.42383 163.26172 C 154.42383 163.91627 154.30842 164.50418 154.07812 165.02539 C 153.85995 165.5466 153.48451 165.98988 152.95117 166.35352 C 152.41784 166.71716 151.71452 166.99552 150.8418 167.18945 C 149.96907 167.38339 148.89032 167.48047 147.60547 167.48047 L 145.66016 167.48047 L 145.66016 158.26172 z M 145.66016 169.84375 L 149.06055 169.84375 C 150.33327 169.84375 151.40657 169.93537 152.2793 170.11719 C 153.16414 170.299 153.87837 170.60114 154.42383 171.02539 C 154.98141 171.43751 155.38063 171.97786 155.62305 172.64453 C 155.86547 173.3112 155.98828 174.12991 155.98828 175.09961 C 155.98828 176.74809 155.48458 177.94225 154.47852 178.68164 C 153.48458 179.40891 151.95709 179.77148 149.89648 179.77148 L 145.66016 179.77148 L 145.66016 169.84375 z "
         style="font-style:normal;font-variant:normal;font-weight:normal;font-stretch:normal;font-family:'Sitka Small';-inkscape-font-specification:'Sitka Small';fill:#b58000;fill-opacity:1"
         id="path4538"
         d="m 138.0957,154.94336 a 0.88304146,0.88304146 0 0 0 -0.88281,0.88281 v 1.47266 a 0.88304146,0.88304146 0 0 0 0.58594,0.83203 l 2.94726,1.05469 c 0.0243,0.009 0.0334,0.0202 0.0488,0.0293 v 19.59375 c 0,0.13331 -0.0268,0.089 0.0488,0.006 a 0.88304146,0.88304146 0 0 0 -0.004,0.004 c 0.0123,-0.0137 0.0154,-0.002 -0.0605,0.0215 a 0.88304146,0.88304146 0 0 0 -0.0254,0.008 l -2.94727,1.01757 a 0.88304146,0.88304146 0 0 0 -0.59375,0.83399 v 1.50976 a 0.88304146,0.88304146 0 0 0 0.88281,0.88282 h 11.47461 c 0.95286,0 1.88753,-0.0518 2.80469,-0.15235 0.93941,-0.10156 1.8329,-0.26656 2.68164,-0.49804 a 0.88304146,0.88304146 0 0 0 0.0117,-0.004 c 0.85819,-0.24705 1.66113,-0.57211 2.40234,-0.98242 a 0.88304146,0.88304146 0 0 0 0.004,-0.004 c 0.77249,-0.43367 1.44404,-0.97226 1.99805,-1.60937 0.5741,-0.65812 1.01447,-1.4315 1.32617,-2.29883 0.31985,-0.89002 0.4707,-1.88321 0.4707,-2.9707 0,-1.03491 -0.20717,-2.01076 -0.63086,-2.88868 v -0.002 c -0.41704,-0.87526 -1.01204,-1.63667 -1.75976,-2.25976 -0.72972,-0.61809 -1.59477,-1.0984 -2.57422,-1.44336 -0.11998,-0.0437 -0.26626,-0.0388 -0.38867,-0.0781 0.71912,-0.41791 1.36014,-0.90521 1.87695,-1.48828 0.55541,-0.62483 0.98388,-1.34121 1.27539,-2.13086 0.3073,-0.79985 0.45703,-1.67262 0.45703,-2.59961 0,-0.85782 -0.16173,-1.70036 -0.47851,-2.50195 -0.33334,-0.87461 -0.94392,-1.63164 -1.75977,-2.25391 -0.84379,-0.64357 -1.93035,-1.11543 -3.25586,-1.46289 -1.3574,-0.35583 -3.01895,-0.51953 -5.00781,-0.51953 z m 8.44727,4.20117 h 1.86328 c 1.0131,0 1.852,0.0949 2.50586,0.26367 a 0.88304146,0.88304146 0 0 0 0.004,0 c 0.66153,0.16801 1.15451,0.41796 1.51757,0.72657 a 0.88304146,0.88304146 0 0 0 0.01,0.01 c 0.36226,0.29887 0.62221,0.66658 0.80469,1.16602 0.18535,0.50729 0.29297,1.15628 0.29297,1.95117 0,0.55076 -0.0963,1.00981 -0.27149,1.40625 a 0.88304146,0.88304146 0 0 0 -0.006,0.0156 c -0.14771,0.35288 -0.3938,0.65531 -0.81055,0.93946 -0.40809,0.27825 -1.0066,0.52817 -1.80273,0.70507 -0.78323,0.17406 -1.80455,0.26954 -3.04492,0.26954 h -1.0625 z m 0,11.58203 h 2.51758 c 1.23034,0 2.24985,0.0914 3.03906,0.25586 a 0.88304146,0.88304146 0 0 0 0.002,0 c 0.78769,0.16185 1.36832,0.42058 1.7793,0.74024 a 0.88304146,0.88304146 0 0 0 0.0176,0.0137 c 0.42291,0.31258 0.70614,0.69089 0.89453,1.20898 0.19581,0.53849 0.3125,1.25915 0.3125,2.1543 0,1.46862 -0.39656,2.31708 -1.15039,2.87109 -0.7592,0.55459 -2.10302,0.91797 -4.0586,0.91797 h -3.35351 z"
         transform="matrix(6.4789706,0,0,7.1188662,-717.52571,-946.81775)" />
    </g>
    <rect
       style="fill:#b58000;fill-opacity:1;stroke:none;stroke-width:9.24924755;stroke-miterlimit:4;stroke-dasharray:none;stroke-opacity:1"
       id="rect4585"
       width="5.9119358"
       height="7.7979522"
       x="58.185467"
       y="192.20642" />
    <rect
       style="fill:#b58000;fill-opacity:1;stroke:none;stroke-width:9.47858715;stroke-miterlimit:4;stroke-dasharray:none;stroke-opacity:1"
       id="rect4587"
       width="6.38344"
       height="9.8653164"
       x="69.719185"
       y="191.95253" />
    <rect
       style="fill:#b58000;fill-opacity:1;stroke:none;stroke-width:8.68505669;stroke-miterlimit:4;stroke-dasharray:none;stroke-opacity:1"
       id="rect4589"
       width="6.5647879"
       height="9.8653164"
       x="58.838318"
       y="252.55893" />
    <rect
       style="fill:#b58000;fill-opacity:1;stroke:none;stroke-width:8.68505669;stroke-miterlimit:4;stroke-dasharray:none;stroke-opacity:1"
       id="rect4591"
       width="6.3471704"
       height="9.9015856"
       x="71.750282"
       y="252.66774" />
  </g>
</svg>
