<?xml version="1.0" encoding="UTF-8" standalone="no"?>
<!-- Created with Inkscape (http://www.inkscape.org/) -->

<svg
   xmlns:dc="http://purl.org/dc/elements/1.1/"
   xmlns:cc="http://creativecommons.org/ns#"
   xmlns:rdf="http://www.w3.org/1999/02/22-rdf-syntax-ns#"
   xmlns:svg="http://www.w3.org/2000/svg"
   xmlns="http://www.w3.org/2000/svg"
   xmlns:sodipodi="http://sodipodi.sourceforge.net/DTD/sodipodi-0.dtd"
   xmlns:inkscape="http://www.inkscape.org/namespaces/inkscape"
   width="128.07315mm"
   height="90.070053mm"
   viewBox="0 0 128.07315 90.070053"
   version="1.1"
   id="svg8"
   inkscape:export-filename="C:\coding\bytecoin\src\assets\christmas-hat.png"
   inkscape:export-xdpi="17.766172"
   inkscape:export-ydpi="17.766172"
   inkscape:version="0.92.4 (5da689c313, 2019-01-14)"
   sodipodi:docname="christmas-hat.svg">
  <defs
     id="defs2" />
  <sodipodi:namedview
     id="base"
     pagecolor="#ffffff"
     bordercolor="#666666"
     borderopacity="1.0"
     inkscape:pageopacity="0.0"
     inkscape:pageshadow="2"
     inkscape:zoom="0.7"
     inkscape:cx="215.22158"
     inkscape:cy="22.045135"
     inkscape:document-units="mm"
     inkscape:current-layer="g1153"
     showgrid="false"
     fit-margin-top="0"
     fit-margin-left="0"
     fit-margin-right="0"
     fit-margin-bottom="0"
     inkscape:window-width="1920"
     inkscape:window-height="1001"
     inkscape:window-x="-9"
     inkscape:window-y="-9"
     inkscape:window-maximized="1" />
  <metadata
     id="metadata5">
    <rdf:RDF>
      <cc:Work
         rdf:about="">
        <dc:format>image/svg+xml</dc:format>
        <dc:type
           rdf:resource="http://purl.org/dc/dcmitype/StillImage" />
        <dc:title></dc:title>
      </cc:Work>
    </rdf:RDF>
  </metadata>
  <g
     inkscape:label="Layer 1"
     inkscape:groupmode="layer"
     id="layer1"
     transform="translate(-84.736463,-69.341662)">
    <g
       id="g858"
       transform="translate(-3.7417781,-19.243406)">
      <g
         id="g905"
         transform="translate(139.47321,-26.269345)">
        <g
           id="g1153"
           transform="translate(37.417734,-10.156242)">
          <path
             style="fill:#ff2e2c;fill-opacity:1;stroke-width:0.26458335"
             d="m -75.22079,181.36257 c 0.543196,-0.004 0.394654,0.31601 2.951449,-6.35323 6.300809,-16.43525 9.212796,-21.9225 13.972473,-26.32923 1.981197,-1.83428 4.729255,-3.59328 6.906524,-4.42077 1.621359,-0.61621 4.947132,-1.36278 7.847735,-1.76166 6.452706,-0.88734 10.29213,-1.73839 13.947978,-3.09173 3.425606,-1.2681 6.139667,-2.74621 10.884675,-5.92793 4.651616,-3.11909 7.740573,-4.67437 12.065529,-6.07496 4.0194652,-1.30166 9.5304025,-2.40643 11.9333695,-2.39227 7.3507205,0.0433 14.7188255,7.62764 20.8632475,21.47543 3.244474,7.31213 6.810798,20.17563 6.902431,24.89661 0.02434,1.25422 -0.929712,2.51119 0.366193,3.11685 -23.038824,-6.47155 -104.832159,22.06609 -108.641604,6.86289 z"
             id="path1161"
             inkscape:connector-curvature="0"
             sodipodi:nodetypes="cscscccscsccc" />
          <path
             style="fill:#f5fafa;fill-opacity:1;stroke:#c8c8c8;stroke-width:0.79374999;stroke-miterlimit:4;stroke-dasharray:none;stroke-opacity:1"
             d="m -74.631149,214.45067 c -0.436563,-0.10561 -1.031875,-0.31589 -1.322917,-0.46729 -0.291041,-0.1514 -1.064948,-0.43976 -1.719791,-0.6408 -1.131591,-0.3474 -1.202663,-0.42784 -1.433407,-1.6223 -0.224722,-1.16328 -0.68326,-1.75084 -0.68326,-0.87551 0,0.20969 -0.111422,0.45012 -0.247604,0.53429 -0.319715,0.19759 -4.243992,-3.63552 -5.135901,-5.01659 -0.908164,-1.40624 -2.10577,-6.00425 -1.946817,-7.47448 0.104517,-0.96674 0.0519,-1.12448 -0.375095,-1.12448 -1.211811,0 -0.216458,-3.14753 2.109091,-6.66942 0.989024,-1.49781 2.242297,-3.46347 2.785051,-4.36815 0.542754,-0.90466 1.477461,-2.06481 2.077127,-2.57811 1.291067,-1.1051 4.842348,-2.54199 6.387568,-2.58448 0.6014,-0.0165 1.226779,-0.13045 1.389731,-0.25313 0.162951,-0.12269 1.090937,-0.11053 2.062191,0.027 1.767724,0.25034 3.312432,0.96662 5.182158,2.40296 1.114822,0.85641 4.578432,2.24431 5.100711,2.04389 0.211066,-0.081 0.514459,-0.87148 0.698873,-1.82092 0.488836,-2.51668 1.988421,-7.0664 2.80415,-8.50774 0.39647,-0.70054 1.1529,-1.55943 1.680956,-1.90864 0.528055,-0.34921 1.436351,-0.96667 2.018434,-1.37213 2.982749,-2.07767 10.689516,-4.29461 18.25625,-5.25161 0.727604,-0.092 1.441979,-0.24362 1.5875,-0.33688 0.145521,-0.0933 0.859896,-0.18459 1.5875,-0.20296 0.727604,-0.0184 1.799166,-0.11056 2.38125,-0.20484 0.582083,-0.0943 1.891771,-0.21914 2.910416,-0.27744 1.018646,-0.0583 2.328334,-0.18843 2.910417,-0.28917 0.582083,-0.10073 2.665677,-0.22483 4.630208,-0.27579 1.964531,-0.051 4.464844,-0.15691 5.55625,-0.23547 2.306119,-0.166 2.996761,-0.16601 6.2177082,-9e-5 1.3096875,0.0675 3.7504687,0.16641 5.4239582,0.21988 1.67348955,0.0535 3.5784895,0.24085 4.2333332,0.41638 l 5.5273759,0.67214 c 0.8162449,0.0345 1.9603323,0.18842 2.5424155,0.34207 0.582083,0.15365 1.891771,0.41944 2.910417,0.59066 1.018645,0.17122 2.268802,0.4082 2.778125,0.52664 2.732402,0.63538 5.610145,1.39153 7.061046,1.85533 l 3.856051,1.19234 c 0.471273,0.0993 1.214048,0.33042 1.650611,0.51359 0.436562,0.18317 1.327068,0.55756 1.978903,0.83199 0.651833,0.27442 1.306676,0.51046 1.455208,0.52453 0.148529,0.0141 0.50818,0.11452 0.799222,0.22323 0.291041,0.10872 0.855302,0.31948 1.253913,0.46837 1.915208,0.71534 3.203562,3.35127 4.046339,8.27866 0.491233,2.87205 1.076124,9.32223 0.86451,9.53385 -0.08332,0.0833 -1.921198,-0.44504 -4.084169,-1.17412 -6.494396,-2.18911 -13.553738,-3.83504 -19.882267,-4.63566 -7.3751733,-0.93304 -10.5645877,-1.0782 -23.4733251,-1.06835 -13.5313309,0.0103 -16.6166429,0.17691 -27.1197909,1.46424 -6.208898,0.761 -18.729695,2.89873 -20.968229,3.57999 -0.635061,0.19327 -0.587375,0.57252 0.328711,2.6143 0.998024,2.22441 1.589518,4.48745 1.589518,6.08146 0,2.51663 -2.599007,8.52584 -4.534683,10.48472 -0.529545,0.53589 -1.747017,1.41291 -2.705493,1.94892 -0.958476,0.53601 -2.523886,1.49841 -3.478691,2.13868 -0.954804,0.64027 -2.348552,1.34603 -3.097217,1.56836 -1.404036,0.41695 -4.989624,0.50517 -6.42454,0.15806 z"
             id="path1157"
             inkscape:connector-curvature="0"
             sodipodi:nodetypes="ccccscscsscccccccccscccccscccccccsscccsccccsccccsssscssccc" />
          <circle
             style="fill:#f5fafa;fill-opacity:1;stroke:#c8c8c8;stroke-width:1.05833328;stroke-linejoin:miter;stroke-miterlimit:4;stroke-dasharray:none;stroke-opacity:1"
             id="path1772"
             cx="-76.670746"
             cy="205.52995"
             r="2.9675217" />
        </g>
      </g>
      <g
         id="g887"
         transform="translate(-51.850285,-29.934189)" />
    </g>
  </g>
</svg>
