<?xml version="1.0" encoding="UTF-8" standalone="no"?>
<!-- Created with Inkscape (http://www.inkscape.org/) -->

<svg
   xmlns:dc="http://purl.org/dc/elements/1.1/"
   xmlns:cc="http://creativecommons.org/ns#"
   xmlns:rdf="http://www.w3.org/1999/02/22-rdf-syntax-ns#"
   xmlns:svg="http://www.w3.org/2000/svg"
   xmlns="http://www.w3.org/2000/svg"
   xmlns:sodipodi="http://sodipodi.sourceforge.net/DTD/sodipodi-0.dtd"
   xmlns:inkscape="http://www.inkscape.org/namespaces/inkscape"
   width="87.047089mm"
   height="43.44162mm"
   viewBox="0 0 87.047089 43.44162"
   version="1.1"
   id="svg8"
   inkscape:export-filename="C:\coding\bytecoin\src\assets\clown-hat.png"
   inkscape:export-xdpi="29.179609"
   inkscape:export-ydpi="29.179609"
   inkscape:version="0.92.4 (5da689c313, 2019-01-14)"
   sodipodi:docname="clown-hat.svg">
  <defs
     id="defs2" />
  <sodipodi:namedview
     id="base"
     pagecolor="#ffffff"
     bordercolor="#666666"
     borderopacity="1.0"
     inkscape:pageopacity="0.0"
     inkscape:pageshadow="2"
     inkscape:zoom="2.8"
     inkscape:cx="103.9998"
     inkscape:cy="44.875517"
     inkscape:document-units="mm"
     inkscape:current-layer="layer1"
     showgrid="false"
     fit-margin-top="0"
     fit-margin-left="0"
     fit-margin-right="0"
     fit-margin-bottom="0"
     inkscape:window-width="1920"
     inkscape:window-height="1001"
     inkscape:window-x="-9"
     inkscape:window-y="-9"
     inkscape:window-maximized="1" />
  <metadata
     id="metadata5">
    <rdf:RDF>
      <cc:Work
         rdf:about="">
        <dc:format>image/svg+xml</dc:format>
        <dc:type
           rdf:resource="http://purl.org/dc/dcmitype/StillImage" />
        <dc:title></dc:title>
      </cc:Work>
    </rdf:RDF>
  </metadata>
  <g
     inkscape:label="Layer 1"
     inkscape:groupmode="layer"
     id="layer1"
     transform="translate(-82.543196,-173.22393)">
    <g
       id="g826"
       transform="translate(46.302083,-5.6696428)">
      <path
         style="fill:#f3c108;stroke-width:0.07443225"
         d="m 88.833713,222.27125 c -0.872538,-0.0537 -1.633357,-0.11669 -3.609964,-0.29905 -0.450315,-0.0415 -1.555633,-0.15872 -2.456264,-0.26038 -7.102288,-0.80167 -9.12362,-0.95464 -12.541833,-0.94912 -3.220575,0.005 -5.057935,0.14816 -8.025238,0.62442 -0.749954,0.12037 -1.465024,0.21885 -1.589044,0.21885 -0.666782,0 -1.062577,-0.53586 -1.04457,-1.41421 0.0055,-0.2661 0.113982,-0.95273 0.24117,-1.52586 0.352383,-1.5879 0.355655,-1.85548 0.04172,-3.41309 -0.388507,-1.92762 -0.343445,-2.47972 0.231698,-2.83883 0.13147,-0.0821 0.240328,-0.18916 0.241905,-0.23793 0.0016,-0.0488 -0.300182,-1.17083 -0.670575,-2.49348 -1.457448,-5.20443 -1.970256,-6.4315 -3.317284,-7.93776 -1.655801,-1.85153 -3.448193,-3.06649 -5.478237,-3.71338 -0.563683,-0.17963 -0.725211,-0.19679 -1.881954,-0.19999 -1.197582,-0.003 -1.299232,0.008 -1.898023,0.20824 -0.34797,0.11646 -0.766652,0.27772 -0.930403,0.35837 -0.577104,0.28421 -2.213058,1.28879 -2.249645,1.38143 -0.02038,0.0516 0.04557,0.20231 0.146548,0.33494 0.446568,0.58655 0.78478,1.48553 0.85036,2.2603 0.135783,1.6041 -0.72009,3.2308 -2.140328,4.06797 -0.751158,0.44278 -1.151283,0.53753 -2.263785,0.53609 -0.930497,-0.001 -0.989851,-0.0108 -1.547093,-0.24995 -1.181259,-0.50694 -2.116224,-1.49412 -2.518205,-2.65885 -0.226338,-0.6558 -0.247084,-1.97821 -0.04147,-2.6432 0.128663,-0.41612 0.489605,-1.075 0.843053,-1.53895 0.338923,-0.44489 1.242867,-1.05815 1.904184,-1.29186 0.56847,-0.20089 0.684405,-0.21603 1.526051,-0.1993 0.515107,0.0103 0.938364,-0.013 0.974184,-0.0536 0.03484,-0.0394 0.157707,-0.33961 0.273042,-0.66712 1.284926,-3.64861 4.210245,-6.08432 8.671822,-7.22042 2.684237,-0.68351 5.585355,-0.72239 8.522492,-0.11422 1.929781,0.39959 4.051847,1.15234 5.999261,2.12807 2.205125,1.10486 4.105299,2.383 6.221477,4.18486 0.498871,0.42478 0.931766,0.77183 0.961989,0.77124 0.03022,-5.9e-4 0.261105,-0.59762 0.513069,-1.32673 1.50601,-4.35795 3.314778,-7.48347 5.724312,-9.89151 2.421839,-2.42034 5.216061,-3.80433 8.867256,-4.39199 0.473583,-0.0762 1.439964,-0.13311 2.676449,-0.15755 2.150243,-0.0425 3.516697,0.056 5.43972,0.39231 0.591865,0.1035 1.108933,0.16789 1.149042,0.14311 0.04011,-0.0248 0.07292,-0.0955 0.07292,-0.15721 0,-0.0617 0.113339,-0.35744 0.251864,-0.65726 0.355045,-0.76845 1.212143,-1.6597 1.93663,-2.01381 0.812862,-0.39731 1.361644,-0.5098 2.245774,-0.46035 0.56871,0.0318 0.87442,0.0909 1.26535,0.24454 1.72851,0.67941 2.80347,2.22777 2.81165,4.04985 0.009,1.96739 -1.18685,3.56431 -3.15215,4.20993 -0.55808,0.18334 -1.73763,0.18545 -2.340721,0.004 -0.961509,-0.28899 -1.705327,-0.82005 -2.392167,-1.70793 l -0.220485,-0.28502 -0.593642,0.2358 c -1.426185,0.5665 -2.598832,1.22318 -3.442781,1.92796 -0.598295,0.49963 -1.728626,1.79719 -2.214186,2.54176 -0.870924,1.3355 -1.58218,3.05607 -2.03356,4.91932 -0.178644,0.73742 -0.457987,2.24548 -0.457987,2.47247 0,0.13822 0.226057,-0.009 0.770636,-0.50172 1.857613,-1.68086 4.152647,-3.27112 6.374859,-4.41724 2.633106,-1.35804 5.370974,-2.23067 8.038684,-2.56214 1.01641,-0.12629 3.54493,-0.12724 4.54036,-0.002 1.74998,0.22069 3.82649,0.80966 5.17602,1.4681 2.31797,1.13096 3.61463,2.32654 5.05958,4.66515 0.14739,0.23855 0.16177,0.24355 0.81875,0.28486 1.28368,0.0807 2.35663,0.60702 3.11491,1.52791 1.7858,2.16875 1.11434,5.45048 -1.36003,6.64706 -0.80144,0.38757 -1.27361,0.47996 -2.23846,0.43798 -0.66703,-0.029 -0.86694,-0.0693 -1.35043,-0.27241 -1.06295,-0.44646 -1.79448,-1.14094 -2.30084,-2.18427 -0.52613,-1.08409 -0.56239,-2.30403 -0.10265,-3.45321 0.15105,-0.37756 0.1737,-0.50422 0.10497,-0.58704 -0.11186,-0.13478 -1.12387,-0.52624 -1.72976,-0.66909 -0.59472,-0.14022 -1.96375,-0.14355 -2.67342,-0.007 -1.89491,0.36594 -4.08861,1.6986 -5.79753,3.522 -1.53042,1.63292 -2.12292,2.9551 -3.427,7.64751 -0.20502,0.7377 -0.47154,1.69613 -0.59226,2.12983 -0.12073,0.43369 -0.21821,0.85237 -0.21664,0.9304 0.002,0.078 0.1088,0.20885 0.23826,0.29072 0.60695,0.38385 0.67417,1.04878 0.31875,3.15334 l -0.21828,1.29254 0.13163,0.866 c 0.0724,0.4763 0.17843,1.11721 0.23563,1.42424 0.25757,1.38261 0.0421,2.19967 -0.62763,2.38 -0.849407,0.22872 -3.812091,0.62507 -5.551991,0.74276 -1.264528,0.0855 -4.890266,0.0848 -6.289525,-10e-4 z"
         id="path832"
         inkscape:connector-curvature="0" />
      <path
         style="fill:#2d979c;stroke-width:0.07443225"
         d="m 91.141113,212.77128 c -0.90297,-0.0266 -3.78899,-0.22899 -4.614799,-0.3237 -0.347971,-0.0399 -1.369554,-0.15712 -2.270184,-0.26046 -0.90063,-0.10334 -1.838476,-0.21928 -2.084103,-0.25764 -0.245626,-0.0384 -0.748044,-0.10417 -1.116483,-0.14625 -0.978568,-0.11175 -1.781514,-0.20924 -2.456264,-0.2982 -3.406326,-0.44911 -7.536835,-0.63218 -10.048353,-0.44536 -0.532191,0.0396 -1.336059,0.0904 -1.786374,0.113 -0.450315,0.0226 -1.053216,0.0884 -1.33978,0.14625 -0.286565,0.0579 -1.023444,0.19407 -1.63751,0.30267 -0.614066,0.1086 -1.583648,0.3106 -2.154626,0.4489 -0.570979,0.1383 -1.066732,0.25145 -1.101674,0.25145 -0.109995,0 -0.24919,-0.42832 -0.798234,-2.45626 -1.632663,-6.03039 -2.31293,-7.37543 -4.830916,-9.55183 -2.489165,-2.1515 -5.164996,-2.97988 -7.583852,-2.34781 -0.722929,0.18891 -1.544759,0.57379 -2.548136,1.19335 -0.429846,0.26542 -0.839117,0.50384 -0.90949,0.52982 -0.08745,0.0323 -0.252378,-0.0608 -0.521026,-0.294 -0.216191,-0.18768 -0.669404,-0.47255 -1.00714,-0.63303 -0.337736,-0.16049 -0.614066,-0.32101 -0.614066,-0.35672 0,-0.0357 0.104354,-0.36067 0.231899,-0.72213 1.313528,-3.72261 4.291633,-6.13882 8.923267,-7.23965 1.386171,-0.32946 2.493928,-0.45141 4.100519,-0.45141 1.656407,0 2.45318,0.0759 3.975379,0.37882 4.22746,0.84121 8.602481,3.09183 12.41998,6.38914 0.485639,0.41946 0.907315,0.73462 0.937058,0.70035 0.02974,-0.0343 0.248455,-0.63171 0.486026,-1.32765 1.989576,-5.82826 4.84262,-9.88457 8.561042,-12.17166 1.221125,-0.75107 2.937635,-1.4467 4.469046,-1.81111 1.477042,-0.35146 2.200801,-0.43211 4.239526,-0.47241 2.144814,-0.0424 3.525152,0.0567 5.420177,0.38909 0.578417,0.10146 1.07495,0.18447 1.103407,0.18447 0.02846,0 0.03435,0.30983 0.01309,0.6885 -0.04354,0.77573 0.08112,1.51768 0.351751,2.09341 0.09391,0.1998 0.137342,0.37867 0.09993,0.41163 -0.03639,0.032 -0.267127,0.13604 -0.512754,0.2311 -1.314713,0.50878 -2.620172,1.23944 -3.444597,1.92791 -0.598295,0.49964 -1.728626,1.79719 -2.214186,2.54176 -0.870924,1.3355 -1.58218,3.05607 -2.03356,4.91932 -0.273738,1.12996 -0.485242,2.4477 -0.405539,2.52664 0.03256,0.0322 0.444387,-0.27838 0.915171,-0.69029 4.372017,-3.82528 9.306851,-6.19577 14.145185,-6.79476 1.16847,-0.14466 3.48491,-0.14857 4.61978,-0.008 4.62002,0.57312 8.26815,2.7027 10.03256,5.85648 0.26792,0.47889 0.25437,0.50575 -0.32719,0.64859 -0.67388,0.16552 -1.31026,0.53173 -1.82481,1.05012 -0.26676,0.26876 -0.55234,0.58546 -0.6346,0.70377 l -0.14956,0.21512 -0.66797,-0.26714 c -1.28296,-0.51309 -2.18874,-0.64631 -3.40369,-0.5006 -2.20592,0.26455 -4.53277,1.63789 -6.55649,3.86971 -1.37761,1.51929 -2.02742,3.04068 -3.32358,7.7815 -0.59121,2.16237 -0.73997,2.6585 -0.82952,2.7664 -0.0453,0.0546 -0.20387,0.0995 -0.35237,0.0998 -0.148512,3e-4 -0.772432,0.069 -1.386498,0.1526 -0.614066,0.0836 -1.535157,0.16771 -2.046869,0.18685 -0.511712,0.0191 -1.298833,0.0674 -1.749158,0.10728 -0.75526,0.0669 -1.989162,0.0741 -3.758846,0.0221 z"
         id="path830"
         inkscape:connector-curvature="0" />
      <path
         style="fill:#d32517;stroke-width:0.07443225"
         d="m 90.434554,212.7407 c -1.594752,-0.0671 -1.763691,-0.0924 -1.70153,-0.2544 0.02361,-0.0615 -0.0096,-0.58871 -0.0737,-1.17155 -0.371381,-3.37472 -0.505102,-5.39215 -0.548799,-8.27962 -0.03439,-2.27265 0.03663,-4.31977 0.174958,-5.04322 0.06547,-0.3424 2.360335,-2.28572 4.120976,-3.48969 3.55336,-2.42989 7.390567,-3.95727 11.093461,-4.41569 1.16847,-0.14466 3.48491,-0.14857 4.61978,-0.008 4.62002,0.57312 8.26815,2.7027 10.03256,5.85648 0.26792,0.47889 0.25437,0.50575 -0.32719,0.64859 -0.67388,0.16552 -1.31026,0.53173 -1.82481,1.05012 -0.26676,0.26876 -0.55234,0.58546 -0.6346,0.70377 l -0.14956,0.21512 -0.66797,-0.26714 c -1.28296,-0.51309 -2.18874,-0.64631 -3.40369,-0.5006 -2.20592,0.26455 -4.53277,1.63789 -6.55649,3.86971 -1.37761,1.51929 -2.02742,3.04068 -3.32358,7.7815 -0.59121,2.16237 -0.73997,2.6585 -0.82952,2.7664 -0.0453,0.0546 -0.20387,0.0995 -0.35237,0.0998 -0.14851,3e-4 -0.77243,0.069 -1.386496,0.1526 -0.614066,0.0836 -1.535157,0.16771 -2.046869,0.18685 -0.511712,0.0191 -1.298833,0.0674 -1.749158,0.10728 -0.923908,0.0818 -2.386869,0.079 -4.465405,-0.008 z m -30.067463,-0.68066 c -0.05519,-0.13305 -0.34065,-1.12951 -0.634362,-2.21436 -1.632663,-6.03039 -2.31293,-7.37543 -4.830916,-9.55183 -2.489165,-2.1515 -5.164996,-2.97988 -7.583852,-2.34781 -0.722929,0.18891 -1.544759,0.57379 -2.548136,1.19335 -0.429846,0.26542 -0.839117,0.50384 -0.90949,0.52982 -0.08745,0.0323 -0.252378,-0.0608 -0.521026,-0.294 -0.216191,-0.18768 -0.669404,-0.47255 -1.00714,-0.63303 -0.337736,-0.16049 -0.614066,-0.32101 -0.614066,-0.35672 0,-0.0357 0.104354,-0.36067 0.231899,-0.72213 1.313528,-3.72261 4.291633,-6.13882 8.923267,-7.23965 1.386171,-0.32946 2.493928,-0.45141 4.100519,-0.45141 1.656407,0 2.45318,0.0759 3.975379,0.37882 4.159436,0.82768 8.438391,3.00462 12.206888,6.21034 1.285939,1.0939 1.189626,0.88699 0.882616,1.89611 -0.340604,1.11955 -0.849875,3.1096 -1.219063,4.76367 -0.265713,1.19047 -0.555725,2.57834 -0.707684,3.38666 -0.537103,2.85705 -0.721549,3.89414 -0.731363,4.11228 -0.01262,0.28043 -0.01577,0.28136 -1.201795,0.3543 -2.093936,0.12879 -2.633232,0.17474 -2.940074,0.25051 -0.18422,0.0455 -0.837363,0.17076 -1.451429,0.27839 -0.614066,0.10763 -1.583648,0.30884 -2.154626,0.44714 -0.570979,0.1383 -1.066732,0.25145 -1.101674,0.25145 -0.03494,0 -0.108684,-0.10886 -0.163872,-0.2419 z"
         id="path828"
         inkscape:connector-curvature="0" />
    </g>
  </g>
</svg>
