<?xml version="1.0" encoding="UTF-8" standalone="no"?>
<!-- Created with Inkscape (http://www.inkscape.org/) -->

<svg
   xmlns:dc="http://purl.org/dc/elements/1.1/"
   xmlns:cc="http://creativecommons.org/ns#"
   xmlns:rdf="http://www.w3.org/1999/02/22-rdf-syntax-ns#"
   xmlns:svg="http://www.w3.org/2000/svg"
   xmlns="http://www.w3.org/2000/svg"
   xmlns:sodipodi="http://sodipodi.sourceforge.net/DTD/sodipodi-0.dtd"
   xmlns:inkscape="http://www.inkscape.org/namespaces/inkscape"
   width="117.12875mm"
   height="65.747574mm"
   viewBox="0 0 117.12875 65.747574"
   version="1.1"
   id="svg8"
   inkscape:export-filename="C:\coding\bytecoin\src\assets\deer-hat.png"
   inkscape:export-xdpi="17"
   inkscape:export-ydpi="17"
   inkscape:version="0.92.4 (5da689c313, 2019-01-14)"
   sodipodi:docname="deer-hat.svg">
  <defs
     id="defs2" />
  <sodipodi:namedview
     id="base"
     pagecolor="#ffffff"
     bordercolor="#666666"
     borderopacity="1.0"
     inkscape:pageopacity="0.0"
     inkscape:pageshadow="2"
     inkscape:zoom="1.4"
     inkscape:cx="100.67928"
     inkscape:cy="7.4759835"
     inkscape:document-units="mm"
     inkscape:current-layer="layer1"
     showgrid="false"
     fit-margin-top="0"
     fit-margin-left="0"
     fit-margin-right="0"
     fit-margin-bottom="0"
     inkscape:window-width="1920"
     inkscape:window-height="1001"
     inkscape:window-x="-9"
     inkscape:window-y="-9"
     inkscape:window-maximized="1" />
  <metadata
     id="metadata5">
    <rdf:RDF>
      <cc:Work
         rdf:about="">
        <dc:format>image/svg+xml</dc:format>
        <dc:type
           rdf:resource="http://purl.org/dc/dcmitype/StillImage" />
        <dc:title></dc:title>
      </cc:Work>
    </rdf:RDF>
  </metadata>
  <g
     inkscape:label="Layer 1"
     inkscape:groupmode="layer"
     id="layer1"
     transform="translate(-216.60229,-63.042879)">
    <path
       style="fill:#cc1b00;fill-opacity:1;stroke-width:0.26458338"
       d="m 296.00948,127.51646 c -1.72798,-1.59489 -4.01736,-2.75188 -6.56828,-3.3194 -1.08531,-0.24146 -1.9733,-0.53286 -1.9733,-0.64756 0,-0.11469 1.10581,-0.5897 2.45736,-1.05558 3.9502,-1.36162 6.68492,-3.79224 7.09341,-6.30462 0.7507,-4.61702 0.49972,-13.93318 -0.53086,-19.704948 -0.25488,-1.427469 -0.37232,-2.651691 -0.26099,-2.720498 0.11134,-0.0688 0.49453,0.264078 0.85153,0.739748 2.36767,3.154601 3.83744,8.862638 4.29441,16.677858 0.10011,1.71215 0.26588,3.16483 0.36836,3.22817 0.1025,0.0633 3.50481,-0.98032 7.56069,-2.31926 6.37906,-2.10586 7.44764,-2.53513 7.91761,-3.18064 0.50067,-0.6877 0.54958,-1.1877 0.62367,-6.37656 l 0.0804,-5.630337 -1.53561,-1.408451 c -2.13365,-1.95694 -5.2521,-4.237749 -8.19632,-5.99472 -2.96725,-1.77072 -2.95689,-2.21616 0.0361,-1.55029 1.2916,0.28735 3.20917,1.05237 5.32984,2.12633 2.66614,1.350201 3.34239,1.599409 3.466,1.277289 0.20658,-0.53835 -0.36652,-5.216439 -0.99659,-8.135059 -0.28033,-1.29851 -0.4497,-2.42092 -0.37637,-2.49425 0.24182,-0.24183 1.64008,1.29951 2.32176,2.55934 0.96484,1.7832 2.4321,6.16042 3.08363,9.199312 0.30912,1.441839 0.62348,2.823948 0.69856,3.071328 0.20266,0.66766 2.74262,2.71122 3.02225,2.4316 0.28045,-0.280461 -0.0842,-8.30788 -0.67174,-14.78764 -0.41459,-4.57239 -1.65699,-13.72968 -2.35079,-17.32693 -0.21016,-1.08959 -0.33388,-2.02929 -0.27496,-2.08822 0.24511,-0.2451 1.00667,0.69676 1.74331,2.15603 2.48659,4.92593 4.34481,13.56423 5.39166,25.064321 0.23182,2.54662 0.48413,5.150588 0.56067,5.78661 0.46866,3.893707 1.29499,-4.721892 1.07522,-11.210561 -0.22536,-6.65295 -1.26623,-11.90464 -3.33576,-16.83027 -0.93058,-2.21484 -0.95653,-2.35203 -0.4449,-2.35203 0.67524,0 2.81183,2.69593 3.8615,4.87242 2.13858,4.43432 3.14388,10.41637 3.36078,19.99842 0.16777,7.411601 -0.21004,13.716538 -0.9692,16.174458 -0.29184,0.94486 -0.99899,2.37199 -1.57141,3.17138 -1.92626,2.69 -3.88483,3.63848 -10.04407,4.86406 -8.11968,1.61567 -12.44953,2.97224 -15.67597,4.9114 -4.34228,2.60979 -6.27225,4.44038 -7.44123,7.05803 l -0.60005,1.34371 z m 28.71173,-19.86578 c 0.22172,-0.41297 0.30237,-1.23668 0.22697,-2.31832 -0.10182,-1.46067 -0.23009,-1.79447 -0.99114,-2.57969 -1.44864,-1.4946 -1.65606,-1.28075 -1.50776,1.55454 0.12185,2.32946 0.45536,3.52035 1.10771,3.95538 0.43162,0.28783 0.77923,0.10513 1.16422,-0.61191 z m -72.54336,19.19836 c -0.37246,-0.81355 -1.30388,-2.09549 -2.10356,-2.89516 -1.61843,-1.61843 -5.23634,-4.0683 -7.46069,-5.05201 -2.51583,-1.11263 -7.23148,-2.4222 -12.85628,-3.57029 -5.49987,-1.12259 -7.08325,-1.68533 -9.0091,-3.20188 -1.32831,-1.04601 -2.51071,-2.91122 -3.14281,-4.9577 -0.76545,-2.47825 -1.13567,-8.763889 -0.96013,-16.301468 0.22687,-9.74169 1.27547,-15.80752 3.50171,-20.25628 1.12746,-2.25302 3.51978,-4.87158 4.00625,-4.38511 0.077,0.077 -0.24437,1.06339 -0.71419,2.19195 -2.85387,6.8553 -3.99459,15.82752 -3.19059,25.095281 0.45684,5.266028 0.81584,5.266028 1.2039,0 0.76275,-10.350801 2.50785,-19.984381 4.60425,-25.417201 0.80869,-2.09571 2.61836,-5.2858 2.86093,-5.04323 0.0705,0.0705 -0.17797,1.83319 -0.55206,3.91718 -1.42176,7.92032 -2.34168,16.29641 -2.79889,25.48451 -0.14685,2.951099 -0.15254,5.12427 -0.0138,5.263041 0.28119,0.281189 2.82388,-1.768641 3.01623,-2.431592 0.0718,-0.247388 0.45084,-1.819018 0.84235,-3.492508 0.86699,-3.705861 2.0246,-7.090821 3.03323,-8.869411 0.75356,-1.32881 1.99506,-2.7074 2.2282,-2.47426 0.068,0.068 -0.10882,1.24921 -0.39302,2.62483 -0.57737,2.79473 -1.22908,8.10029 -1.02062,8.308761 0.0744,0.0743 1.63526,-0.624512 3.4687,-1.553012 4.08466,-2.068579 7.61292,-3.001959 7.61292,-2.013959 0,0.12378 -0.8632,0.6996 -1.91823,1.27958 -2.48111,1.363971 -5.81082,3.753601 -8.15612,5.8534 l -1.86058,1.665819 0.0805,5.640309 c 0.0967,6.77285 0.0803,6.73226 3.15072,7.83651 3.53898,1.27278 12.77414,4.15942 12.95315,4.04879 0.0964,-0.0596 0.25652,-1.39144 0.35573,-2.95964 0.40257,-6.36334 1.13427,-10.28487 2.55642,-13.701048 0.86807,-2.085211 2.24432,-4.20401 2.59137,-3.989531 0.1155,0.0714 -0.002,1.296321 -0.26042,2.72206 -0.83771,4.616289 -1.17178,11.160289 -0.82247,16.110719 0.34524,4.89244 0.48962,5.30427 2.51036,7.15976 1.56556,1.43755 2.63844,2.03219 5.15762,2.85857 1.20055,0.39382 2.18281,0.81338 2.18281,0.93234 0,0.11896 -0.88799,0.41385 -1.9733,0.65532 -2.48281,0.55237 -4.76959,1.68639 -6.45338,3.20027 -0.71961,0.64698 -1.37144,1.17633 -1.44852,1.17633 -0.0771,0 -0.44096,-0.65702 -0.80861,-1.46004 z m -25.40529,-18.85079 c 0.65245,-0.43565 0.98586,-1.62625 1.1077,-3.95562 0.14904,-2.84942 -0.0569,-3.05141 -1.54536,-1.51579 -0.86988,0.89743 -0.9118,1.02931 -0.9118,2.86892 0,2.25777 0.47984,3.18315 1.34946,2.60249 z"
       id="path886"
       inkscape:connector-curvature="0" />
  </g>
</svg>
