<?xml version="1.0" encoding="UTF-8" standalone="no"?>
<!-- Created with Inkscape (http://www.inkscape.org/) -->

<svg
   xmlns:dc="http://purl.org/dc/elements/1.1/"
   xmlns:cc="http://creativecommons.org/ns#"
   xmlns:rdf="http://www.w3.org/1999/02/22-rdf-syntax-ns#"
   xmlns:svg="http://www.w3.org/2000/svg"
   xmlns="http://www.w3.org/2000/svg"
   xmlns:sodipodi="http://sodipodi.sourceforge.net/DTD/sodipodi-0.dtd"
   xmlns:inkscape="http://www.inkscape.org/namespaces/inkscape"
   width="151.51468mm"
   height="143.58307mm"
   viewBox="0 0 151.51468 143.58307"
   version="1.1"
   id="svg8"
   inkscape:version="0.92.4 (5da689c313, 2019-01-14)"
   sodipodi:docname="elf-hat.svg"
   inkscape:export-filename="C:\coding\bytecoin\src\assets\elf-hat.png"
   inkscape:export-xdpi="17"
   inkscape:export-ydpi="17">
  <defs
     id="defs2" />
  <sodipodi:namedview
     id="base"
     pagecolor="#ffffff"
     bordercolor="#666666"
     borderopacity="1.0"
     inkscape:pageopacity="0.0"
     inkscape:pageshadow="2"
     inkscape:zoom="0.35"
     inkscape:cx="1127.2579"
     inkscape:cy="-63.219896"
     inkscape:document-units="mm"
     inkscape:current-layer="g837"
     showgrid="false"
     fit-margin-top="0"
     fit-margin-left="0"
     fit-margin-right="0"
     fit-margin-bottom="0"
     inkscape:window-width="1920"
     inkscape:window-height="1001"
     inkscape:window-x="-9"
     inkscape:window-y="-9"
     inkscape:window-maximized="1" />
  <metadata
     id="metadata5">
    <rdf:RDF>
      <cc:Work
         rdf:about="">
        <dc:format>image/svg+xml</dc:format>
        <dc:type
           rdf:resource="http://purl.org/dc/dcmitype/StillImage" />
        <dc:title></dc:title>
      </cc:Work>
    </rdf:RDF>
  </metadata>
  <g
     inkscape:label="Layer 1"
     inkscape:groupmode="layer"
     id="layer1"
     transform="translate(-25.986257,-85.824698)">
    <g
       id="g837"
       transform="translate(-18.520833,-6.4255952)">
      <path
         style="fill:#e0eca1;stroke-width:0.26458332"
         d="m 46.931016,235.48975 c -0.09702,-0.25284 -0.409232,-5.46867 -0.693797,-11.59073 -0.284566,-6.12206 -0.638321,-13.69086 -0.786122,-16.81956 -0.147801,-3.1287 -0.388788,-9.91526 -0.535526,-15.08125 -0.146739,-5.16599 -0.314945,-9.608 -0.373791,-9.87114 -0.278962,-1.24739 1.088404,0.10058 5.417753,5.34088 2.569615,3.1103 4.779436,5.64484 4.910711,5.63232 0.131276,-0.0125 0.274002,-0.29537 0.317169,-0.62856 0.239682,-1.84999 1.468599,-8.89653 1.928312,-11.05684 5.088613,-23.91263 12.89168,-42.13886 24.880077,-58.11433 7.978825,-10.63241 19.917228,-20.10698 31.650618,-25.118613 4.40345,-1.880828 10.16838,-3.717544 14.48751,-4.615743 5.13583,-1.06804 11.14973,-1.423884 20.57938,-1.217688 6.19991,0.135573 7.49996,0.2403 10.40024,0.8378 9.92708,2.045126 18.55767,6.398396 24.80561,12.511934 6.25006,6.11563 10.8231,14.95754 11.79925,22.81371 0.63082,5.07697 0.14471,12.16542 -1.04875,15.29261 -1.01654,2.66362 -2.25523,4.8599 -4.29285,7.61146 l -1.00287,1.35427 0.55946,1.29157 c 0.45939,1.06056 0.53953,1.67015 0.44807,3.40823 -0.1753,3.33132 -1.70125,5.69232 -4.62018,7.14851 -1.31044,0.65375 -1.84617,0.76598 -3.65236,0.76508 -1.78169,-7.9e-4 -2.33496,-0.11415 -3.49596,-0.71568 -1.88506,-0.97667 -3.01508,-2.02431 -3.86209,-3.58056 -2.77318,-5.09525 -0.12419,-10.744 5.79277,-12.3526 0.15774,-0.0429 0.57446,-1.07155 0.92604,-2.28594 0.55368,-1.91244 0.63914,-2.75689 0.63853,-6.30901 -7.9e-4,-4.62137 -0.43957,-6.72422 -2.11098,-10.11693 -2.73594,-5.55359 -8.00152,-8.8418 -13.23415,-8.26436 -1.94727,0.21489 -5.09298,1.23113 -6.42104,2.07436 -3.78176,2.40115 -6.41125,7.79502 -6.41125,13.1514 0,2.17065 0.91669,6.24968 2.19565,9.77011 1.03489,2.8486 4.41021,10.43607 7.55396,16.98073 4.06534,8.46324 8.17266,18.00044 10.67365,24.78417 0.9182,2.49055 1.74652,4.50051 1.84072,4.46658 0.0942,-0.0339 2.21439,-2.53224 4.71152,-5.55179 2.49714,-3.01956 4.71575,-5.49011 4.93026,-5.49011 0.21451,0 0.45082,0.15845 0.52514,0.35212 0.0743,0.19366 -0.22958,8.26015 -0.67532,17.92552 -0.44574,9.66537 -0.92477,20.13325 -1.06452,23.26194 -0.3999,8.95299 -0.58031,11.82782 -0.75922,12.09837 -0.19274,0.29145 -1.57434,0.15039 -11.14642,-1.13803 -24.54089,-3.30325 -38.21804,-4.3461 -56.99035,-4.34535 -18.930142,7.9e-4 -34.978563,1.23187 -58.235692,4.46743 -3.055937,0.42514 -6.483175,0.8493 -7.616082,0.94258 -1.132908,0.0933 -2.218872,0.23062 -2.413254,0.30521 -0.194381,0.0746 -0.432803,-0.0712 -0.529826,-0.32408 z"
         id="path869"
         inkscape:connector-curvature="0" />
      <path
         style="fill:#b6e0c6;stroke-width:0.26458332"
         d="m 47.036606,234.66227 c -0.0014,-0.5457 -0.11924,-3.25438 -0.261887,-6.01927 -0.142646,-2.7649 -0.501428,-10.44443 -0.797292,-17.06563 -0.295864,-6.62119 -0.712813,-15.61041 -0.926553,-19.97604 -0.213741,-4.36562 -0.389602,-8.4022 -0.390803,-8.97017 l -0.0022,-1.03267 0.551945,0.6358 c 0.303569,0.34969 2.595523,3.11306 5.093229,6.14083 4.326041,5.24412 4.550105,5.46985 4.727384,4.7625 0.102355,-0.4084 0.439408,-2.34988 0.749006,-4.31441 0.734756,-4.66234 1.548942,-8.62657 2.907238,-14.15521 5.10652,-20.78493 12.368177,-36.78781 23.309114,-51.36746 7.978825,-10.63241 19.917233,-20.10698 31.650623,-25.118613 4.40345,-1.880828 10.16838,-3.717544 14.4875,-4.615743 5.13583,-1.06804 11.14973,-1.423884 20.57939,-1.217688 6.1999,0.135573 7.49995,0.2403 10.40024,0.8378 9.92707,2.045126 18.55767,6.398396 24.80561,12.511934 6.25005,6.11563 10.8231,14.95754 11.79925,22.81371 0.63082,5.07697 0.14471,12.16542 -1.04876,15.29261 -1.07293,2.8114 -3.33797,6.67657 -4.90073,8.36279 l -0.68504,0.73918 0.54742,1.2725 c 1.15926,2.69479 0.51684,5.97847 -1.63007,8.33182 -3.06149,3.35589 -8.17812,3.55163 -11.40413,0.43629 -1.78199,-1.72086 -2.37761,-3.02559 -2.50706,-5.49181 -0.0998,-1.90177 -0.0313,-2.361 0.5365,-3.59625 0.35801,-0.77884 0.95777,-1.77874 1.33278,-2.222 0.76004,-0.89834 3.03833,-2.22936 4.28112,-2.50111 0.44558,-0.0974 0.77772,-0.32393 0.73808,-0.50333 -0.0396,-0.1794 0.19528,-1.18139 0.52203,-2.22665 0.50997,-1.63139 0.5951,-2.49988 0.60123,-6.13381 0.008,-4.76689 -0.41239,-6.81437 -2.10455,-10.24922 -2.73594,-5.55359 -8.00152,-8.8418 -13.23415,-8.26436 -1.94727,0.21489 -5.09298,1.23113 -6.42104,2.07436 -3.78176,2.40115 -6.41125,7.79502 -6.41125,13.1514 0,2.17065 0.91669,6.24968 2.19565,9.77011 1.03489,2.8486 4.41021,10.43607 7.55396,16.98073 4.00178,8.33092 7.98273,17.55978 10.65074,24.69114 0.97998,2.61938 1.87298,4.7625 1.98445,4.7625 0.16497,0 6.24739,-7.19659 8.71858,-10.31563 0.42575,-0.53737 0.71285,-0.70419 0.89625,-0.52078 0.18342,0.18341 0.10299,3.82678 -0.25108,11.37397 -0.28651,6.10726 -0.70401,15.0927 -0.92776,19.96765 -0.22375,4.87495 -0.52293,11.29884 -0.66485,14.27531 -0.14191,2.97647 -0.25801,5.93985 -0.25801,6.58529 v 1.17352 l -1.25677,-0.15957 c -0.69123,-0.0878 -4.53671,-0.63609 -8.54552,-1.21851 -22.59155,-3.2822 -39.22067,-4.5754 -58.72479,-4.56685 -19.270322,0.008 -35.089556,1.26156 -59.231045,4.692 -4.56431,0.64857 -8.463607,1.17923 -8.665104,1.17923 -0.24651,0 -0.367187,-0.32458 -0.36889,-0.99219 z"
         id="path867"
         inkscape:connector-curvature="0" />
      <path
         style="fill:#98d3af;stroke-width:0.26458332"
         d="m 47.036606,234.66227 c -0.0014,-0.5457 -0.11924,-3.25438 -0.261887,-6.01927 -0.142646,-2.7649 -0.501428,-10.44443 -0.797292,-17.06563 -0.295864,-6.62119 -0.712813,-15.61041 -0.926553,-19.97604 -0.213741,-4.36562 -0.389602,-8.4022 -0.390803,-8.97017 l -0.0022,-1.03267 0.551945,0.6358 c 0.303569,0.34969 2.586405,3.10061 5.072967,6.11315 2.486563,3.01255 4.614826,5.41939 4.729475,5.34854 0.114648,-0.0709 0.269173,-0.51161 0.343389,-0.97945 1.487384,-9.37609 2.551082,-14.4984 4.627053,-22.28186 4.411877,-16.54151 10.795869,-30.75861 19.335588,-43.0602 3.466748,-4.9939 6.131563,-8.19822 10.179002,-12.2398 9.011373,-8.99833 18.7092,-15.13137 30.03767,-18.996254 7.88779,-2.691042 15.61554,-3.877866 25.29542,-3.884855 11.66876,-0.0084 19.39131,1.587412 27.7222,5.728691 9.18276,4.564748 15.37879,10.832918 19.72058,19.950198 2.79509,5.86937 3.58762,9.43211 3.58637,16.12201 -8e-4,4.28122 -0.0773,5.1767 -0.61055,7.14375 -0.96604,3.56376 -3.60833,8.66241 -5.58173,10.77071 -0.67226,0.71821 -0.67312,0.79953 -0.0235,2.23113 0.66383,1.46292 0.69532,3.88498 0.0733,5.63369 -0.63138,1.77488 -2.61413,3.89383 -4.36162,4.66121 -2.90326,1.2749 -6.49207,0.64067 -8.7583,-1.54782 -1.78199,-1.72086 -2.37761,-3.02559 -2.50705,-5.49181 -0.0998,-1.90177 -0.0313,-2.361 0.5365,-3.59625 0.35802,-0.77884 0.95777,-1.77874 1.33279,-2.222 0.76149,-0.90005 3.0547,-2.23883 4.25565,-2.48445 0.72521,-0.14832 0.83406,-0.33048 1.43638,-2.4038 0.87389,-3.00812 0.99013,-9.09518 0.23232,-12.16519 -0.63881,-2.5879 -2.48722,-6.42898 -3.9296,-8.1659 -2.50535,-3.01695 -6.25496,-4.83774 -10.00035,-4.8561 -6.88014,-0.0337 -12.21703,4.37121 -13.76207,11.3589 -0.65648,2.96903 -0.65622,4.93579 0.001,7.89319 1.14766,5.16414 3.61362,11.27725 9.33561,23.14299 1.99696,4.14111 4.62626,10.01993 7.98566,17.85504 1.13215,2.64051 2.43295,6.02152 3.66462,9.525 0.35811,1.01865 0.80605,1.85208 0.99542,1.85208 0.27445,0 5.59622,-6.19595 8.8602,-10.31563 0.42576,-0.53737 0.71285,-0.70419 0.89626,-0.52078 0.18341,0.18341 0.10298,3.82678 -0.25109,11.37397 -0.28652,6.10726 -0.70401,15.0927 -0.92776,19.96765 -0.22375,4.87495 -0.52293,11.29884 -0.66484,14.27531 -0.14196,2.97647 -0.25807,5.93985 -0.25807,6.58529 v 1.17352 l -1.25677,-0.15957 c -0.69123,-0.0878 -4.53671,-0.63609 -8.54552,-1.21851 -22.59154,-3.2822 -39.22066,-4.5754 -58.72479,-4.56685 -19.270322,0.008 -35.089556,1.26156 -59.231045,4.692 -4.56431,0.64857 -8.463607,1.17923 -8.665104,1.17923 -0.24651,0 -0.367187,-0.32458 -0.36889,-0.99219 z"
         id="path865"
         inkscape:connector-curvature="0" />
      <path
         style="fill:#d0e267;stroke-width:0.26458332"
         d="m 47.036606,234.66227 c -0.0014,-0.5457 -0.11924,-3.25438 -0.261887,-6.01927 -0.142646,-2.7649 -0.501428,-10.44443 -0.797292,-17.06563 -0.295864,-6.62119 -0.712813,-15.61041 -0.926553,-19.97604 -0.213741,-4.36562 -0.389602,-8.40317 -0.390803,-8.97231 l -0.0022,-1.03482 0.769167,0.90252 c 0.423041,0.49639 2.687869,3.22425 5.03295,6.0619 2.345082,2.83766 4.403511,5.15938 4.574287,5.15938 0.189345,0 0.443614,-0.92916 0.651641,-2.38125 0.828117,-5.78052 1.860444,-10.75867 3.950434,-19.05 5.847004,-23.19603 16.472783,-43.49313 29.72336,-56.77681 4.744093,-4.75595 8.102978,-7.55691 12.76625,-10.6457 12.8839,-8.533882 26.83891,-12.60622 43.20586,-12.608285 12.69197,-0.0016 23.57276,2.982189 32.54376,8.924325 3.65156,2.41869 8.72512,7.49525 11.03952,11.04605 5.6463,8.66265 7.98706,17.68148 6.80146,26.20565 -0.53647,3.85706 -2.56992,8.59959 -5.29178,12.34182 -0.71742,0.98636 -1.3044,1.90127 -1.3044,2.03313 0,0.13186 0.23551,0.75876 0.52335,1.39312 0.66382,1.46292 0.69532,3.88498 0.0733,5.63369 -0.63137,1.77488 -2.61412,3.89383 -4.36162,4.66121 -2.90325,1.2749 -6.49206,0.64067 -8.75829,-1.54782 -1.78199,-1.72086 -2.37761,-3.02559 -2.50706,-5.49181 -0.0998,-1.90177 -0.0313,-2.361 0.5365,-3.59625 0.35801,-0.77884 0.9615,-1.78317 1.34109,-2.23186 0.76625,-0.90574 3.54125,-2.4915 4.36,-2.4915 0.78227,0 0.99981,-0.4185 1.63254,-3.14066 1.13725,-4.89282 0.70827,-10.66779 -1.11295,-14.98251 -3.71798,-8.80839 -12.27221,-12.01844 -20.33416,-7.63057 -2.88559,1.57053 -5.63722,5.61634 -6.4488,9.48186 -1.3681,6.51623 0.45199,12.59744 9.26513,30.95625 4.02749,8.38973 8.25259,18.17613 10.56619,24.47396 2.12639,5.78821 1.94128,5.40158 2.40278,5.01856 0.21668,-0.17982 2.31472,-2.66248 4.66233,-5.51702 2.3476,-2.85455 4.37001,-5.30319 4.49424,-5.44143 0.69446,-0.77281 0.72399,0.72362 0.22442,11.37224 -0.28652,6.10726 -0.70401,15.0927 -0.92776,19.96765 -0.22375,4.87495 -0.52293,11.29884 -0.66485,14.27531 -0.14191,2.97647 -0.25802,5.93985 -0.25802,6.58529 v 1.17352 l -1.25677,-0.15957 c -0.69123,-0.0878 -4.53671,-0.63609 -8.54552,-1.21851 -22.59154,-3.2822 -39.22066,-4.5754 -58.72479,-4.56685 -19.270322,0.008 -35.089556,1.26156 -59.231045,4.692 -4.56431,0.64857 -8.463607,1.17923 -8.665104,1.17923 -0.24651,0 -0.367187,-0.32458 -0.36889,-0.99219 z"
         id="path863"
         inkscape:connector-curvature="0" />
      <path
         style="fill:#bbdc48;stroke-width:0.26458332"
         d="m 47.11526,235.48076 c 0.125697,-0.20339 -1.959123,-46.73702 -2.339306,-52.2138 -0.06566,-0.94589 -0.02979,-1.5412 0.07971,-1.32292 0.515465,1.02753 9.711441,11.77396 10.075253,11.77396 0.319516,0 0.491649,-0.54289 0.755012,-2.38125 0.828117,-5.78052 1.860444,-10.75867 3.950434,-19.05 5.847004,-23.19603 16.472783,-43.49313 29.72336,-56.77681 4.744093,-4.75595 8.102978,-7.55691 12.766247,-10.6457 12.8839,-8.533882 26.83892,-12.60622 43.20587,-12.608285 12.69197,-0.0016 23.57276,2.982189 32.54375,8.924325 3.65156,2.41869 8.72512,7.49525 11.03952,11.04605 5.6463,8.66265 7.98706,17.68148 6.80146,26.20565 -0.29845,2.1458 -1.44689,5.70861 -2.55473,7.9256 -0.88694,1.77491 -3.49006,5.64981 -3.97949,5.92371 -0.33956,0.19003 -0.31671,0.42191 0.16969,1.72193 1.52837,4.08494 -0.0807,8.27005 -3.93582,10.23659 -1.68287,0.85846 -4.63432,0.87065 -6.48229,0.0268 -4.20588,-1.92061 -5.87638,-6.66168 -3.81942,-10.83996 0.9604,-1.95085 2.28336,-3.05721 4.65647,-3.89407 l 1.50066,-0.5292 0.61801,-2.6458 c 0.85999,-3.68176 0.8964,-8.87302 0.0835,-11.90543 -2.34562,-8.75002 -8.18231,-13.661 -15.4157,-12.97073 -4.99965,0.47711 -8.98782,3.19703 -11.15986,7.61099 -2.39486,4.8668 -2.28858,10.21757 0.34923,17.58153 1.1008,3.0731 4.30484,10.31826 7.58257,17.14617 4.02749,8.38973 8.25259,18.17613 10.56619,24.47396 1.96478,5.3483 1.9407,5.29167 2.25063,5.29167 0.21568,0 6.36611,-7.2245 8.89041,-10.44297 0.33892,-0.43213 0.69344,-0.70847 0.7878,-0.6141 0.0944,0.0944 0.0396,2.8887 -0.1218,6.20963 -1.19074,24.50665 -2.11839,46.47007 -1.97266,46.70586 0.11693,0.1892 -0.12019,0.22641 -0.72355,0.11355 -0.49362,-0.0923 -3.60609,-0.58022 -6.91661,-1.08421 -31.50185,-4.79581 -58.96461,-6.05624 -86.452749,-3.96781 -12.162814,0.92408 -33.314774,3.48267 -41.775604,5.05329 -0.52564,0.0976 -0.834798,0.0652 -0.746189,-0.0782 z"
         id="path861"
         inkscape:connector-curvature="0" />
      <path
         style="fill:#fbd909;stroke-width:0.26458332"
         d="m 47.366589,233.73584 c -0.07386,-2.04033 -0.604943,-13.66096 -1.260573,-27.58242 -0.651958,-13.84349 -0.967215,-22.00992 -0.874152,-22.64406 0.07042,-0.47983 1.011539,0.5222 4.824777,5.137 2.605513,3.1532 4.83254,5.7331 4.948948,5.7331 0.116409,0 0.272485,-0.38696 0.346835,-0.8599 0.07435,-0.47294 0.269722,-1.75286 0.434157,-2.84427 0.877771,-5.826 1.831715,-10.38253 3.849784,-18.38854 5.847004,-23.19603 16.472783,-43.49313 29.72336,-56.77681 4.744093,-4.75595 8.102978,-7.55691 12.766245,-10.6457 12.8839,-8.533882 26.83892,-12.60622 43.20587,-12.608285 12.69197,-0.0016 23.57276,2.982189 32.54375,8.924325 3.65156,2.41869 8.72512,7.49525 11.03952,11.04605 7.85486,12.05106 9.26873,24.67607 3.89056,34.7404 -1.13214,2.1186 -3.34799,5.34398 -3.67135,5.34398 -0.11231,0 -0.60787,-0.41545 -1.10125,-0.92323 -1.3764,-1.41655 -1.49777,-1.10103 -0.15218,0.3956 3.56483,3.96494 2.37292,9.989 -2.46467,12.45673 -1.68287,0.85846 -4.63432,0.87065 -6.48229,0.0268 -2.98676,-1.36389 -4.67139,-3.99697 -4.661,-7.28511 0.012,-3.77933 2.50982,-6.87885 6.14944,-7.6306 1.19134,-0.24608 1.47215,-0.39217 1.25551,-0.65322 -0.19907,-0.23985 -0.11601,-1.03078 0.28974,-2.75902 1.131,-4.81747 0.69507,-10.62499 -1.1204,-14.92609 -3.71798,-8.80839 -12.27221,-12.01844 -20.33416,-7.63057 -2.88559,1.57053 -5.63722,5.61634 -6.4488,9.48186 -1.3681,6.51623 0.45199,12.59744 9.26513,30.95625 4.01385,8.36132 8.24096,18.14933 10.56948,24.47396 0.83043,2.25557 1.63287,4.42846 1.78321,4.82865 0.15034,0.40018 0.37711,0.7276 0.50395,0.7276 0.12683,0 2.28528,-2.47005 4.79655,-5.489 l 4.56593,-5.48901 0.087,1.18953 c 0.0479,0.65424 -0.10161,4.88046 -0.33216,9.39161 -0.23056,4.51114 -0.53666,11.00005 -0.68023,14.41979 -0.14357,3.41974 -0.43882,10.02771 -0.65612,14.68437 -0.60148,12.88972 -0.59967,12.80853 -0.28901,12.93757 0.15564,0.0646 0.008,0.12693 -0.32795,0.13842 -0.33601,0.0115 -0.55051,-0.0769 -0.47668,-0.19633 0.13838,-0.22389 -15.97246,-2.54154 -24.1801,-3.47846 -18.37309,-2.09733 -25.25221,-2.49477 -43.12708,-2.49162 -15.75752,0.003 -22.07913,0.30372 -35.851042,1.70667 -12.333835,1.25644 -31.947457,3.89655 -31.717087,4.2693 0.07184,0.11623 -0.02525,0.21115 -0.215736,0.21094 -0.24712,-2.6e-4 -0.366232,-0.54982 -0.415766,-1.91823 z M 185.98222,149.92066 c -0.34354,-0.2862 -0.81979,-0.51538 -1.05833,-0.50928 -0.24243,0.006 -0.0253,0.23469 0.49233,0.51808 1.18331,0.64783 1.35107,0.64522 0.566,-0.009 z M 44.678774,182.31887 c 0.0127,-0.30823 0.07539,-0.37092 0.159853,-0.15985 0.07643,0.19099 0.06703,0.4192 -0.02089,0.50711 -0.08792,0.0879 -0.150453,-0.0684 -0.138965,-0.34726 z"
         id="path859"
         inkscape:connector-curvature="0" />
      <path
         style="fill:#6bc18d;stroke-width:0.26458332"
         d="m 47.366589,233.73584 c -0.07386,-2.04033 -0.604943,-13.66096 -1.260573,-27.58242 -0.651958,-13.84349 -0.967215,-22.00992 -0.874152,-22.64406 0.07042,-0.47983 1.011539,0.5222 4.824777,5.137 2.605513,3.1532 4.83254,5.7331 4.948948,5.7331 0.116409,0 0.272485,-0.38696 0.346835,-0.8599 0.07435,-0.47294 0.269722,-1.75286 0.434157,-2.84427 0.877771,-5.826 1.831715,-10.38253 3.849784,-18.38854 5.847004,-23.19603 16.472783,-43.49313 29.72336,-56.77681 4.744093,-4.75595 8.102978,-7.55691 12.766245,-10.6457 12.8839,-8.533882 26.83892,-12.60622 43.20587,-12.608285 12.69197,-0.0016 23.57276,2.982189 32.54375,8.924325 3.65156,2.41869 8.72512,7.49525 11.03952,11.04605 7.85486,12.05106 9.26873,24.67607 3.89056,34.7404 -1.13214,2.1186 -3.34799,5.34398 -3.67135,5.34398 -0.11231,0 -0.60787,-0.41545 -1.10125,-0.92323 -0.49338,-0.50777 -1.00675,-0.92449 -1.14081,-0.92604 -0.13406,-0.002 -0.46685,-0.20472 -0.73954,-0.4515 -0.27268,-0.24677 -0.81784,-0.48979 -1.21146,-0.54003 -3.81911,-0.48747 -3.71678,-0.36595 -2.97364,-3.53128 1.131,-4.81747 0.69507,-10.62499 -1.1204,-14.92609 -3.71798,-8.80839 -12.27221,-12.01844 -20.33416,-7.63057 -2.88559,1.57053 -5.63722,5.61634 -6.4488,9.48186 -1.3681,6.51623 0.45199,12.59744 9.26513,30.95625 4.01385,8.36132 8.24096,18.14933 10.56948,24.47396 0.83043,2.25557 1.63287,4.42846 1.78321,4.82865 0.15034,0.40018 0.37711,0.7276 0.50395,0.7276 0.12683,0 2.28528,-2.47005 4.79655,-5.489 l 4.56593,-5.48901 0.087,1.18953 c 0.0479,0.65424 -0.10161,4.88046 -0.33216,9.39161 -0.23056,4.51114 -0.53666,11.00005 -0.68023,14.41979 -0.14357,3.41974 -0.43882,10.02771 -0.65612,14.68437 -0.60148,12.88972 -0.59967,12.80853 -0.28901,12.93757 0.15564,0.0646 0.008,0.12693 -0.32795,0.13842 -0.33601,0.0115 -0.55051,-0.0769 -0.47668,-0.19633 0.13838,-0.22389 -15.97246,-2.54154 -24.1801,-3.47846 -18.37309,-2.09733 -25.25221,-2.49477 -43.12708,-2.49162 -15.75752,0.003 -22.07913,0.30372 -35.851042,1.70667 -12.333835,1.25644 -31.947457,3.89655 -31.717087,4.2693 0.07184,0.11623 -0.02525,0.21115 -0.215736,0.21094 -0.24712,-2.6e-4 -0.366232,-0.54982 -0.415766,-1.91823 z m -2.687815,-51.41697 c 0.0127,-0.30823 0.07539,-0.37092 0.159853,-0.15985 0.07643,0.19099 0.06703,0.4192 -0.02089,0.50711 -0.08792,0.0879 -0.150453,-0.0684 -0.138965,-0.34726 z M 181.73044,164.49291 c -0.44062,-0.27232 -0.0629,-1.50117 0.91665,-2.98226 0.35885,-0.54258 0.65246,-1.22719 0.65246,-1.52135 0,-0.68628 0.90367,-1.59317 1.5875,-1.59317 0.68145,0 1.5875,0.90604 1.5875,1.5875 0,0.5086 -0.8461,1.58127 -1.25677,1.59331 -0.10914,0.003 -0.54762,0.52616 -0.97439,1.16214 -0.88381,1.31705 -1.98084,2.08268 -2.51295,1.75383 z m -4.57374,-1.79731 c -0.28101,-0.32204 -0.44672,-1.2834 -0.54423,-3.15746 -0.12135,-2.33204 -0.0786,-2.75019 0.31771,-3.10886 0.99766,-0.90287 2.40062,-0.2983 2.40062,1.0345 0,0.49561 -0.10222,0.96429 -0.22715,1.0415 -0.12494,0.0772 -0.2909,0.82839 -0.3688,1.66927 -0.13873,1.49733 -0.63347,2.98408 -0.99301,2.98408 -0.0996,0 -0.36292,-0.20836 -0.58514,-0.46303 z"
         id="path857"
         inkscape:connector-curvature="0" />
      <path
         style="fill:#fbbb00;stroke-width:0.26458332"
         d="m 47.366589,233.73584 c -0.07386,-2.04033 -0.604943,-13.66096 -1.260573,-27.58242 -0.651958,-13.84349 -0.967215,-22.00992 -0.874152,-22.64406 0.07041,-0.47981 1.012747,0.52366 4.830222,5.14359 2.608508,3.15682 4.870695,5.69766 5.027083,5.6463 0.156389,-0.0514 0.384007,-0.73893 0.505819,-1.52794 1.548759,-10.03171 4.628342,-23.3392 7.036578,-30.40643 0.272732,-0.80037 0.760769,-2.28865 1.084527,-3.3073 0.574822,-1.80857 2.106953,-5.80819 3.648735,-9.525 2.073119,-4.99771 7.337954,-14.80946 10.394272,-19.37116 4.588595,-6.84871 6.824104,-9.60441 11.994063,-14.78503 6.637983,-6.65166 12.449057,-10.94771 19.931127,-14.73481 11.23691,-5.687635 22.26516,-8.241907 35.51526,-8.225749 2.98318,0.0036 6.61459,0.15345 8.06979,0.332917 17.73365,2.187035 30.71511,10.174502 37.75045,23.227782 1.60824,2.98392 2.66377,5.68468 3.84021,9.82591 0.93197,3.28064 0.95401,3.46587 0.96626,8.11973 l 0.0126,4.7625 -1.11349,3.2912 c -0.61241,1.81016 -1.54131,4.07235 -2.06422,5.02708 -1.32252,2.41466 -3.23217,5.04318 -3.66395,5.04318 -0.19859,0 -0.6982,-0.35719 -1.11025,-0.79375 -0.41204,-0.43657 -0.85924,-0.79375 -0.99378,-0.79375 -0.13453,0 -0.46771,-0.20191 -0.7404,-0.44869 -0.27268,-0.24677 -0.81784,-0.48979 -1.21146,-0.54003 -3.74531,-0.47806 -3.67258,-0.40291 -2.9051,-3.00169 0.48883,-1.65522 0.58064,-2.62596 0.58599,-6.19605 0.007,-4.47388 -0.34225,-6.37891 -1.75566,-9.58464 -2.89308,-6.56172 -8.77191,-10.24265 -14.85619,-9.30195 -6.46251,0.99917 -10.63423,4.9816 -12.08323,11.53495 -0.65474,2.96118 -0.65619,4.92821 -0.006,7.89319 1.06177,4.84047 3.87857,11.8432 9.14773,22.74178 4.06794,8.41399 7.28278,15.86642 10.54924,24.4545 1.18593,3.11799 2.29444,5.71515 2.46336,5.77145 0.16893,0.0563 2.36809,-2.37522 4.88703,-5.40339 l 4.5799,-5.50578 0.087,1.18953 c 0.0479,0.65424 -0.10161,4.88046 -0.33216,9.39161 -0.23056,4.51114 -0.53666,11.00005 -0.68023,14.41979 -0.14357,3.41974 -0.43882,10.02771 -0.65612,14.68437 -0.60148,12.88972 -0.59967,12.80853 -0.28901,12.93757 0.15564,0.0646 0.008,0.12693 -0.32795,0.13842 -0.33601,0.0115 -0.55051,-0.0769 -0.47668,-0.19633 0.13838,-0.22389 -15.97246,-2.54154 -24.1801,-3.47846 -18.37309,-2.09733 -25.25221,-2.49477 -43.12708,-2.49162 -15.75752,0.003 -22.07913,0.30372 -35.851042,1.70667 -12.333835,1.25644 -31.947457,3.89655 -31.717087,4.2693 0.07184,0.11623 -0.02525,0.21115 -0.215736,0.21094 -0.24712,-2.6e-4 -0.366232,-0.54982 -0.415766,-1.91823 z m -2.687815,-51.41697 c 0.0127,-0.30823 0.07539,-0.37092 0.159853,-0.15985 0.07643,0.19099 0.06703,0.4192 -0.02089,0.50711 -0.08792,0.0879 -0.150453,-0.0684 -0.138965,-0.34726 z M 181.73044,164.49291 c -0.44062,-0.27232 -0.0629,-1.50117 0.91665,-2.98226 0.35885,-0.54258 0.65246,-1.22719 0.65246,-1.52135 0,-0.68628 0.90367,-1.59317 1.5875,-1.59317 0.68145,0 1.5875,0.90604 1.5875,1.5875 0,0.5086 -0.8461,1.58127 -1.25677,1.59331 -0.10914,0.003 -0.54762,0.52616 -0.97439,1.16214 -0.88381,1.31705 -1.98084,2.08268 -2.51295,1.75383 z m -4.57374,-1.79731 c -0.28101,-0.32204 -0.44672,-1.2834 -0.54423,-3.15746 -0.12135,-2.33204 -0.0786,-2.75019 0.31771,-3.10886 0.99766,-0.90287 2.40062,-0.2983 2.40062,1.0345 0,0.49561 -0.10222,0.96429 -0.22715,1.0415 -0.12494,0.0772 -0.2909,0.82839 -0.3688,1.66927 -0.13873,1.49733 -0.63347,2.98408 -0.99301,2.98408 -0.0996,0 -0.36292,-0.20836 -0.58514,-0.46303 z"
         id="path855"
         inkscape:connector-curvature="0" />
      <path
         style="fill:#add527;stroke-width:0.26458332"
         d="m 47.366589,233.73584 c -0.07386,-2.04033 -0.604943,-13.66096 -1.260573,-27.58242 -0.651958,-13.84349 -0.967215,-22.00992 -0.874152,-22.64406 0.07041,-0.47981 1.012747,0.52366 4.830222,5.14359 2.608508,3.15682 4.870695,5.69766 5.027083,5.6463 0.156389,-0.0514 0.384007,-0.73893 0.505819,-1.52794 1.548759,-10.03171 4.628342,-23.3392 7.036578,-30.40643 0.272732,-0.80037 0.760769,-2.28865 1.084527,-3.3073 0.574822,-1.80857 2.106953,-5.80819 3.648735,-9.525 2.073119,-4.99771 7.337954,-14.80946 10.394272,-19.37116 4.588595,-6.84871 6.824104,-9.60441 11.994063,-14.78503 6.637983,-6.65166 12.449057,-10.94771 19.931127,-14.73481 11.23691,-5.687635 22.26516,-8.241907 35.51526,-8.225749 2.98318,0.0036 6.61459,0.15345 8.06979,0.332917 17.73365,2.187035 30.71511,10.174502 37.75045,23.227782 1.60824,2.98392 2.66377,5.68468 3.84021,9.82591 0.93197,3.28064 0.95401,3.46587 0.96626,8.11973 l 0.0126,4.7625 -1.11349,3.2912 c -0.61241,1.81016 -1.54131,4.07235 -2.06422,5.02708 -1.32252,2.41466 -3.23217,5.04318 -3.66395,5.04318 -0.19859,0 -0.6982,-0.35719 -1.11025,-0.79375 -0.41204,-0.43657 -0.85924,-0.79375 -0.99378,-0.79375 -0.13453,0 -0.46771,-0.20191 -0.7404,-0.44869 -0.27268,-0.24677 -0.81784,-0.48979 -1.21146,-0.54003 -3.74531,-0.47806 -3.67258,-0.40291 -2.9051,-3.00169 0.48883,-1.65522 0.58064,-2.62596 0.58599,-6.19605 0.007,-4.47388 -0.34225,-6.37891 -1.75566,-9.58464 -2.89308,-6.56172 -8.77191,-10.24265 -14.85619,-9.30195 -6.46251,0.99917 -10.63423,4.9816 -12.08323,11.53495 -0.65474,2.96118 -0.65619,4.92821 -0.006,7.89319 1.06177,4.84047 3.87857,11.8432 9.14773,22.74178 4.06794,8.41399 7.28278,15.86642 10.54924,24.4545 1.18593,3.11799 2.29444,5.71515 2.46336,5.77145 0.16893,0.0563 2.36809,-2.37522 4.88703,-5.40339 l 4.5799,-5.50578 0.087,1.18953 c 0.0479,0.65424 -0.10161,4.88046 -0.33216,9.39161 -0.23056,4.51114 -0.53666,11.00005 -0.68023,14.41979 -0.14357,3.41974 -0.43882,10.02771 -0.65612,14.68437 -0.60148,12.88972 -0.59967,12.80853 -0.28901,12.93757 0.15564,0.0646 0.008,0.12693 -0.32795,0.13842 -0.33601,0.0115 -0.55051,-0.0769 -0.47668,-0.19633 0.13838,-0.22389 -15.97246,-2.54154 -24.1801,-3.47846 -18.37309,-2.09733 -25.25221,-2.49477 -43.12708,-2.49162 -15.75752,0.003 -22.07913,0.30372 -35.851042,1.70667 -12.333835,1.25644 -31.947457,3.89655 -31.717087,4.2693 0.07184,0.11623 -0.02525,0.21115 -0.215736,0.21094 -0.24712,-2.6e-4 -0.366232,-0.54982 -0.415766,-1.91823 z m -2.687815,-51.41697 c 0.0127,-0.30823 0.07539,-0.37092 0.159853,-0.15985 0.07643,0.19099 0.06703,0.4192 -0.02089,0.50711 -0.08792,0.0879 -0.150453,-0.0684 -0.138965,-0.34726 z"
         id="path853"
         inkscape:connector-curvature="0" />
      <path
         style="fill:#add51f;stroke-width:0.26458332"
         d="m 47.343438,228.45481 c -0.177624,-3.68004 -0.437443,-9.25082 -0.577376,-12.37952 -0.139933,-3.1287 -0.440588,-9.55807 -0.668122,-14.2875 -0.61685,-12.82156 -0.79843,-18.26434 -0.606859,-18.19031 0.09445,0.0365 1.880392,2.14995 3.96875,4.69656 2.088358,2.54662 4.56362,5.40412 5.500582,6.35 0.936963,0.94589 1.385877,1.35863 0.997588,0.9172 -0.807378,-0.91786 -0.884178,0.0436 0.728414,-9.11928 1.254739,-7.12954 4.10879,-18.68808 5.945151,-24.07708 0.272732,-0.80037 0.760769,-2.28865 1.084527,-3.3073 0.574822,-1.80857 2.106953,-5.80819 3.648735,-9.525 2.073119,-4.99771 7.337954,-14.80946 10.394272,-19.37116 4.588595,-6.84871 6.824104,-9.60441 11.994063,-14.78503 6.637983,-6.65166 12.449057,-10.94771 19.931127,-14.73481 11.23691,-5.687635 22.26516,-8.241907 35.51526,-8.225749 2.98318,0.0036 6.61459,0.15345 8.06979,0.332917 17.73365,2.187035 30.71511,10.174502 37.75045,23.227782 1.60824,2.98392 2.66377,5.68468 3.84021,9.82591 0.93197,3.28064 0.95401,3.46587 0.96626,8.11973 l 0.0126,4.7625 -1.11349,3.2912 c -0.61241,1.81016 -1.54131,4.07235 -2.06422,5.02708 -1.22563,2.23776 -3.22165,5.04318 -3.58816,5.04318 -0.15691,0 -0.7614,-0.43014 -1.34331,-0.95586 -1.30655,-1.18039 -2.95681,-1.93035 -4.70265,-2.13712 -0.73171,-0.0867 -1.38337,-0.24331 -1.44814,-0.3481 -0.0648,-0.1048 0.14205,-1.07007 0.4596,-2.14505 0.48623,-1.646 0.57837,-2.6227 0.58371,-6.18783 0.005,-3.64237 -0.0778,-4.51868 -0.59617,-6.27735 -2.12363,-7.20439 -6.26526,-11.53021 -11.99733,-12.53089 -4.52615,-0.79016 -9.68404,0.94005 -12.56743,4.21575 -2.34661,2.6659 -4.04013,7.33025 -4.05386,11.16529 -0.0168,4.67776 2.8768,12.66678 9.72221,26.84282 5.54641,11.48599 13.10634,29.9199 12.60387,30.73291 -0.10717,0.17341 0.0573,0.13839 0.3662,-0.078 0.30843,-0.21603 2.47598,-2.70716 4.81679,-5.53584 2.34081,-2.82869 4.3507,-5.17619 4.46643,-5.21667 0.11574,-0.0405 0.17227,0.55482 0.12564,1.32291 -0.15266,2.51469 -0.62456,12.59905 -1.0187,21.76944 -0.21265,4.94771 -0.5008,11.19849 -0.64032,13.89063 -0.13952,2.69213 -0.33578,7.07375 -0.43613,9.73692 l -0.18245,4.84213 -0.69328,-0.14085 c -2.97479,-0.60436 -23.13265,-3.26416 -28.20994,-3.72226 -1.01865,-0.0919 -2.74505,-0.27867 -3.83646,-0.41503 -4.40522,-0.55036 -16.52837,-1.32105 -25.15804,-1.59933 -18.9535,-0.61121 -39.967238,0.64004 -63.080502,3.75607 -6.106645,0.82327 -13.154,1.82546 -13.907727,1.97779 l -0.67856,0.13714 z m 21.501573,-18.63465 c 0.141076,-0.36764 0.103145,-0.38159 -0.247118,-0.0909 -0.350915,0.29124 -0.562852,0.20649 -1.395119,-0.55789 l -0.981346,-0.90129 0.911798,0.99219 c 0.992494,1.08 1.453747,1.23033 1.711785,0.55789 z m 31.865599,-0.69018 c 0.32322,-0.61847 0.43444,-0.90201 0.24716,-0.63009 -0.18728,0.27192 -0.54851,0.74817 -0.80272,1.05833 l -0.462214,0.56395 -0.596122,-0.685 c -0.327866,-0.37674 -0.870032,-1.03159 -1.204812,-1.45521 -0.334782,-0.42361 -0.156189,-0.087 0.396875,0.74801 0.553061,0.83502 1.192004,1.51963 1.419868,1.52135 0.227865,0.002 0.678745,-0.50288 1.001965,-1.12134 z m 31.15262,0.52916 0.50403,-0.59531 -0.62152,0.52775 -0.62153,0.52775 -0.66329,-0.79233 -0.66329,-0.79233 0.48196,0.85989 c 0.5688,1.01481 0.90141,1.07038 1.58364,0.26458 z m 31.6126,-0.13229 0.64143,-0.7276 -0.67851,0.59531 c -0.84345,0.74003 -1.22045,0.75209 -1.44448,0.0462 -0.0959,-0.30201 -0.23259,-0.4908 -0.30385,-0.41954 -0.21942,0.21942 0.44033,1.23323 0.80253,1.23323 0.1878,0 0.63009,-0.32742 0.98288,-0.72761 z m -93.955213,-1.25677 c 0,-0.14552 -0.115416,-0.086 -0.256481,0.13229 -0.141064,0.21829 -0.25648,0.51594 -0.25648,0.66146 0,0.14552 0.115416,0.086 0.25648,-0.13229 0.141065,-0.21828 0.256481,-0.51594 0.256481,-0.66146 z m 63.515993,-0.14702 c 0.40206,-0.75126 0.12781,-0.62867 -0.40178,0.1796 -0.25011,0.38172 -0.32398,0.61321 -0.16414,0.51443 0.15983,-0.0988 0.41449,-0.4111 0.56592,-0.69403 z m 28.33482,-0.16386 c -0.3119,-0.53637 -0.38722,-0.36469 -0.1319,0.30065 0.0907,0.23646 0.22071,0.37419 0.28884,0.30607 0.0681,-0.0681 -0.002,-0.34115 -0.15694,-0.60672 z m 4.20104,-0.87974 c 0.60918,-0.72761 1.04808,-1.32292 0.97532,-1.32292 -0.0728,0 -0.63072,0.59531 -1.2399,1.32292 -0.60919,0.7276 -1.04808,1.32291 -0.97532,1.32291 0.0728,0 0.63072,-0.59531 1.2399,-1.32291 z m -99.21875,0.96705 c 0,-0.0502 -0.267891,-0.3181 -0.595313,-0.59532 l -0.595312,-0.50402 0.504028,0.59531 c 0.473662,0.55944 0.686597,0.71576 0.686597,0.50403 z m 62.70625,-1.23164 c -0.29696,-0.58208 -0.59945,-1.05833 -0.67221,-1.05833 -0.0728,0 0.11067,0.47625 0.40763,1.05833 0.29695,0.58209 0.59945,1.05834 0.67221,1.05834 0.0728,0 -0.11067,-0.47625 -0.40763,-1.05834 z m 5.29167,-0.66145 c 0.45054,-0.65485 0.75964,-1.19063 0.68688,-1.19063 -0.0728,0 -0.50092,0.53578 -0.95147,1.19063 -0.45054,0.65484 -0.75964,1.19062 -0.68688,1.19062 0.0728,0 0.50092,-0.53578 0.95147,-1.19062 z m 26.49063,0.48286 c -0.3119,-0.53637 -0.38722,-0.36469 -0.13191,0.30066 0.0907,0.23645 0.22072,0.37419 0.28884,0.30606 0.0681,-0.0681 -0.002,-0.34114 -0.15693,-0.60672 z m -95.546884,0.0924 c 0,-0.0474 -0.327422,-0.37481 -0.727604,-0.7276 l -0.727604,-0.64143 0.641433,0.7276 c 0.599516,0.68006 0.813775,0.84894 0.813775,0.64143 z m 37.306254,-0.97216 c 0.29695,-0.58208 0.48039,-1.05833 0.40763,-1.05833 -0.0728,0 -0.37526,0.47625 -0.67222,1.05833 -0.29695,0.58208 -0.48039,1.05833 -0.40763,1.05833 0.0728,0 0.37526,-0.47625 0.67222,-1.05833 z m -6.242043,-0.13229 c -0.238371,-0.3638 -0.486267,-0.66146 -0.550881,-0.66146 -0.129664,0 0.119854,0.47931 0.516512,0.99219 0.455572,0.58905 0.480414,0.35002 0.03437,-0.33073 z m -25.516064,-0.52917 c 0,-0.14552 -0.115416,-0.086 -0.25648,0.13229 -0.141064,0.21829 -0.25648,0.51594 -0.25648,0.66146 0,0.14552 0.115416,0.086 0.25648,-0.13229 0.141064,-0.21828 0.25648,-0.51594 0.25648,-0.66146 z m 89.469567,0.21828 c -0.3119,-0.53636 -0.38722,-0.36468 -0.1319,0.30066 0.0907,0.23646 0.22071,0.37419 0.28883,0.30607 0.0681,-0.0681 -0.002,-0.34115 -0.15693,-0.60673 z m -32.70834,-1.14432 c -0.3687,-0.7276 -0.7299,-1.32292 -0.80266,-1.32292 -0.0728,0 0.16937,0.59532 0.53808,1.32292 0.3687,0.7276 0.7299,1.32292 0.80266,1.32292 0.0728,0 -0.16937,-0.59532 -0.53808,-1.32292 z m 39.81979,0.66146 c 0.34178,-0.3638 0.56188,-0.66146 0.48912,-0.66146 -0.0728,0 -0.41192,0.29766 -0.7537,0.66146 -0.34178,0.3638 -0.56188,0.66146 -0.48912,0.66146 0.0728,0 0.41193,-0.29766 0.7537,-0.66146 z m -103.45208,0.3107 c 0,-0.0474 -0.327422,-0.37481 -0.727604,-0.7276 l -0.727605,-0.64143 0.641433,0.7276 c 0.599516,0.68006 0.813776,0.84894 0.813776,0.64143 z m 7.400229,-1.36903 c 0,-0.14553 -0.115414,-0.086 -0.256479,0.13229 -0.141066,0.21828 -0.256479,0.51593 -0.256479,0.66146 0,0.14552 0.115413,0.086 0.256479,-0.1323 0.141065,-0.21828 0.256479,-0.51593 0.256479,-0.66145 z m 23.820604,0.13229 c -0.310859,-0.43657 -0.624732,-0.79375 -0.697492,-0.79375 -0.07276,0 0.12205,0.35718 0.432909,0.79375 0.310859,0.43656 0.624731,0.79375 0.697492,0.79375 0.07276,0 -0.12205,-0.35719 -0.432909,-0.79375 z m 8.731247,-0.52917 c 0.29696,-0.58208 0.48039,-1.05833 0.40763,-1.05833 -0.0728,0 -0.37525,0.47625 -0.67221,1.05833 -0.29696,0.58208 -0.48039,1.05833 -0.40763,1.05833 0.0728,0 0.37526,-0.47625 0.67221,-1.05833 z m 55.5948,0.086 c -0.3119,-0.53637 -0.38722,-0.36469 -0.1319,0.30066 0.0907,0.23646 0.22071,0.37419 0.28883,0.30606 0.0681,-0.0681 -0.002,-0.34114 -0.15693,-0.60672 z m 9.22812,-0.21828 c 0.34178,-0.3638 0.56188,-0.66146 0.48912,-0.66146 -0.0728,0 -0.41193,0.29766 -0.7537,0.66146 -0.34178,0.3638 -0.56188,0.66146 -0.48912,0.66146 0.0728,0 0.41192,-0.29766 0.7537,-0.66146 z M 61.033987,201.64244 c -0.908721,-1.09859 -1.780171,-2.07374 -1.936556,-2.16701 -0.156385,-0.0933 0.302713,0.53768 1.020217,1.40212 1.708356,2.05819 2.336457,2.76232 2.46406,2.76232 0.05747,0 -0.639001,-0.89884 -1.547721,-1.99743 z m 10.867878,0.80681 c 0,-0.14552 -0.115413,-0.086 -0.256479,0.13229 -0.141065,0.21828 -0.256479,0.51594 -0.256479,0.66146 0,0.14552 0.115414,0.086 0.256479,-0.13229 0.141066,-0.21828 0.256479,-0.51594 0.256479,-0.66146 z m 65.360185,-0.52917 c 0.45055,-0.65484 0.75964,-1.19062 0.68688,-1.19062 -0.0728,0 -0.50092,0.53578 -0.95146,1.19062 -0.45054,0.65485 -0.75964,1.19063 -0.68688,1.19063 0.0728,0 0.50092,-0.53578 0.95146,-1.19063 z m 21.72813,0.21828 c -0.3119,-0.53636 -0.38722,-0.36468 -0.1319,0.30066 0.0907,0.23646 0.22071,0.37419 0.28884,0.30607 0.0681,-0.0681 -0.002,-0.34115 -0.15694,-0.60673 z m 10.94791,-0.35057 c 0.26339,-0.29104 0.41936,-0.52917 0.3466,-0.52917 -0.0728,0 -0.34779,0.23813 -0.61118,0.52917 -0.26339,0.29104 -0.41936,0.52917 -0.3466,0.52917 0.0728,0 0.34779,-0.23813 0.61118,-0.52917 z m -97.507058,-0.66146 c 0,-0.14552 -0.115414,-0.086 -0.256479,0.13229 -0.141065,0.21829 -0.256479,0.51594 -0.256479,0.66146 0,0.14552 0.115414,0.086 0.256479,-0.13229 0.141065,-0.21828 0.256479,-0.51594 0.256479,-0.66146 z m 53.453938,-0.13229 c -0.29696,-0.58208 -0.59945,-1.05833 -0.67221,-1.05833 -0.0728,0 0.11067,0.47625 0.40763,1.05833 0.29695,0.58208 0.59945,1.05833 0.67221,1.05833 0.0728,0 -0.11067,-0.47625 -0.40763,-1.05833 z m 32.57605,-0.17859 c -0.3119,-0.53637 -0.38722,-0.36469 -0.13191,0.30065 0.0907,0.23646 0.22072,0.37419 0.28884,0.30607 0.0681,-0.0681 -0.002,-0.34115 -0.15693,-0.60672 z M 92.54747,200.068 c -0.450543,-0.65484 -0.878703,-1.19063 -0.951463,-1.19063 -0.07276,0 0.236336,0.53579 0.686879,1.19063 0.450543,0.65484 0.878703,1.19062 0.951463,1.19062 0.07276,0 -0.236336,-0.53578 -0.686879,-1.19062 z m 13.22917,-0.13229 c 0.29695,-0.58209 0.48039,-1.05834 0.40763,-1.05834 -0.0728,0 -0.37526,0.47625 -0.67222,1.05834 -0.29695,0.58208 -0.48039,1.05833 -0.40763,1.05833 0.0728,0 0.37526,-0.47625 0.67222,-1.05833 z m 65.35208,0.39687 c 0.34178,-0.3638 0.56188,-0.66146 0.48912,-0.66146 -0.0728,0 -0.41193,0.29766 -0.7537,0.66146 -0.34178,0.3638 -0.56188,0.66146 -0.48912,0.66146 0.0728,0 0.41192,-0.29766 0.7537,-0.66146 z m -98.168521,-0.52916 c 0,-0.14552 -0.115414,-0.086 -0.256479,0.13229 -0.141066,0.21828 -0.256479,0.51593 -0.256479,0.66146 0,0.14552 0.115413,0.086 0.256479,-0.1323 0.141065,-0.21828 0.256479,-0.51593 0.256479,-0.66145 z m 84.971651,-0.31089 c -0.3119,-0.53637 -0.38722,-0.36469 -0.1319,0.30066 0.0907,0.23646 0.22071,0.37419 0.28883,0.30606 0.0681,-0.0681 -0.002,-0.34114 -0.15693,-0.60672 z m -33.3698,-0.87974 c -0.29695,-0.58208 -0.59945,-1.05833 -0.67221,-1.05833 -0.0728,0 0.11067,0.47625 0.40763,1.05833 0.29696,0.58208 0.59945,1.05833 0.67221,1.05833 0.0728,0 -0.11067,-0.47625 -0.40763,-1.05833 z m 14.82456,0.24985 c 0.40206,-0.75125 0.12781,-0.62866 -0.40178,0.1796 -0.25011,0.38172 -0.32398,0.61322 -0.16414,0.51443 0.15983,-0.0988 0.41449,-0.41109 0.56592,-0.69403 z M 73.489365,198.4805 c 0,-0.14552 -0.115413,-0.086 -0.256479,0.13229 -0.141065,0.21828 -0.256479,0.51594 -0.256479,0.66146 0,0.14552 0.115414,0.086 0.256479,-0.13229 0.141066,-0.21828 0.256479,-0.51594 0.256479,-0.66146 z m 98.962275,0.26458 c 0.34177,-0.3638 0.56187,-0.66146 0.48911,-0.66146 -0.0728,0 -0.41192,0.29766 -0.7537,0.66146 -0.34177,0.3638 -0.56187,0.66146 -0.48911,0.66146 0.0728,0 0.41192,-0.29766 0.7537,-0.66146 z m -113.506254,0.31071 c 0,-0.0474 -0.327422,-0.37482 -0.727604,-0.72761 l -0.727604,-0.64143 0.641433,0.7276 c 0.599516,0.68006 0.813775,0.84894 0.813775,0.64144 z m 98.457294,-0.88618 c -0.3119,-0.53636 -0.38722,-0.36468 -0.1319,0.30066 0.0907,0.23646 0.22071,0.37419 0.28884,0.30607 0.0681,-0.0681 -0.002,-0.34115 -0.15694,-0.60673 z m -50.30313,-0.61515 c 0.29696,-0.58209 0.48039,-1.05834 0.40763,-1.05834 -0.0728,0 -0.37525,0.47625 -0.67221,1.05834 -0.29696,0.58208 -0.48039,1.05833 -0.40763,1.05833 0.0728,0 0.37526,-0.47625 0.67221,-1.05833 z m 33.3375,-0.26459 c 0.31086,-0.43656 0.50567,-0.79375 0.43291,-0.79375 -0.0728,0 -0.38663,0.35719 -0.69749,0.79375 -0.31086,0.43657 -0.50567,0.79375 -0.43291,0.79375 0.0728,0 0.38663,-0.35718 0.69749,-0.79375 z m 33.3375,-0.13229 c 0.34178,-0.3638 0.56188,-0.66146 0.48912,-0.66146 -0.0728,0 -0.41192,0.29766 -0.7537,0.66146 -0.34178,0.3638 -0.56188,0.66146 -0.48912,0.66146 0.0728,0 0.41193,-0.29766 0.7537,-0.66146 z m -116.15208,0.30559 c 0,-0.0502 -0.267891,-0.31809 -0.595313,-0.59531 l -0.595312,-0.50403 0.504028,0.59532 c 0.473662,0.55944 0.686597,0.71576 0.686597,0.50402 z m 99.11776,-0.87751 c -0.22385,-0.41305 -0.41176,-0.6673 -0.41758,-0.56501 -0.0179,0.31451 0.59763,1.54294 0.71455,1.42602 0.0605,-0.0605 -0.0731,-0.44796 -0.29697,-0.86101 z M 74.812282,195.3055 c 0,-0.14552 -0.115414,-0.086 -0.256479,0.13229 -0.141065,0.21828 -0.256479,0.51594 -0.256479,0.66146 0,0.14552 0.115414,0.086 0.256479,-0.13229 0.141065,-0.21828 0.256479,-0.51594 0.256479,-0.66146 z m 14.295604,-0.26458 c -0.450543,-0.65485 -0.878702,-1.19063 -0.951462,-1.19063 -0.07276,0 0.236336,0.53578 0.686879,1.19063 0.450543,0.65484 0.878702,1.19062 0.951463,1.19062 0.07276,0 -0.236337,-0.53578 -0.68688,-1.19062 z m 33.734374,0.39687 c -0.22575,-0.43656 -0.46999,-0.79375 -0.54275,-0.79375 -0.0728,0 0.0524,0.35719 0.27817,0.79375 0.22575,0.43656 0.46999,0.79375 0.54275,0.79375 0.0728,0 -0.0524,-0.35719 -0.27817,-0.79375 z m 18.9256,-0.0147 c 0.40206,-0.75125 0.12781,-0.62866 -0.40178,0.17961 -0.25011,0.38172 -0.32398,0.61321 -0.16414,0.51443 0.15983,-0.0988 0.41449,-0.4111 0.56592,-0.69404 z m 33.19732,0.27932 c 0.26339,-0.29104 0.41936,-0.52916 0.3466,-0.52916 -0.0728,0 -0.3478,0.23812 -0.61119,0.52916 -0.26339,0.29105 -0.41935,0.52917 -0.34659,0.52917 0.0728,0 0.34779,-0.23812 0.61118,-0.52917 z m -65.34749,-2.77812 c 0.69639,-1.30969 1.14505,-2.26219 0.997,-2.11667 -0.14805,0.14552 -0.83896,1.33615 -1.53536,2.64584 -0.69639,1.30968 -1.14504,2.26218 -0.997,2.11666 0.14805,-0.14552 0.83896,-1.33614 1.53536,-2.64583 z m 33.78579,0.0661 c 1.40633,-2.01303 1.59524,-2.31511 1.44786,-2.31511 -0.0632,0 -0.73217,0.89297 -1.48666,1.98438 -0.75449,1.0914 -1.31435,1.98437 -1.24413,1.98437 0.0702,0 0.64754,-0.74414 1.28293,-1.65364 z m 12.14712,0.6813 c -0.3119,-0.53637 -0.38722,-0.36469 -0.1319,0.30065 0.0907,0.23646 0.22071,0.37419 0.28883,0.30607 0.0681,-0.0681 -0.002,-0.34115 -0.15693,-0.60672 z m -34.29584,-1.14433 c -0.3687,-0.7276 -0.7299,-1.32291 -0.80266,-1.32291 -0.0728,0 0.16937,0.59531 0.53808,1.32291 0.3687,0.72761 0.7299,1.32292 0.80266,1.32292 0.0728,0 -0.16937,-0.59531 -0.53808,-1.32292 z m -45.384145,0.1323 c 0,-0.14552 -0.115413,-0.086 -0.256479,0.13229 -0.141065,0.21828 -0.256479,0.51594 -0.256479,0.66146 0,0.14552 0.115414,0.086 0.256479,-0.1323 0.141066,-0.21828 0.256479,-0.51593 0.256479,-0.66145 z m 10.591438,-1.45521 c -0.592929,-0.87313 -1.137581,-1.5875 -1.210342,-1.5875 -0.07276,0 0.35283,0.71437 0.945759,1.5875 0.592928,0.87312 1.137581,1.5875 1.210341,1.5875 0.07276,0 -0.352829,-0.71438 -0.945758,-1.5875 z m 68.030217,-0.1786 c -0.3119,-0.53636 -0.38722,-0.36468 -0.13191,0.30066 0.0907,0.23646 0.22072,0.37419 0.28884,0.30607 0.0681,-0.0681 -0.002,-0.34115 -0.15693,-0.60673 z m -34.9573,-1.67349 c -0.29696,-0.58208 -0.59945,-1.05833 -0.67221,-1.05833 -0.0728,0 0.11067,0.47625 0.40763,1.05833 0.29695,0.58209 0.59945,1.05834 0.67221,1.05834 0.0728,0 -0.11067,-0.47625 -0.40763,-1.05834 z m 26.72292,-0.52916 c 0.59292,-0.87313 1.01852,-1.5875 0.94575,-1.5875 -0.0728,0 -0.61741,0.71437 -1.21034,1.5875 -0.59293,0.87312 -1.01852,1.5875 -0.94576,1.5875 0.0728,0 0.61742,-0.71438 1.21035,-1.5875 z m 7.70521,0.87974 c -0.3119,-0.53637 -0.38722,-0.36469 -0.1319,0.30065 0.0907,0.23646 0.22071,0.37419 0.28883,0.30607 0.0681,-0.0681 -0.002,-0.34115 -0.15693,-0.60672 z m -41.17041,-2.59953 c 0.69639,-1.30969 1.14505,-2.26219 0.997,-2.11667 -0.14805,0.14552 -0.83896,1.33615 -1.53536,2.64583 -0.69639,1.30969 -1.14504,2.26219 -0.997,2.11667 0.14805,-0.14552 0.83896,-1.33615 1.53536,-2.64583 z m -28.07476,1.5875 c -0.238371,-0.36381 -0.486267,-0.66146 -0.550881,-0.66146 -0.129664,0 0.119854,0.47931 0.516512,0.99219 0.455573,0.58905 0.480414,0.35002 0.03437,-0.33073 z m 68.716,-0.31089 c -0.3119,-0.53637 -0.38722,-0.36469 -0.1319,0.30066 0.0907,0.23646 0.22071,0.37419 0.28884,0.30606 0.0681,-0.0681 -0.002,-0.34114 -0.15694,-0.60672 z m -35.35417,-1.67349 c -0.3687,-0.7276 -0.7299,-1.32292 -0.80266,-1.32292 -0.0728,0 0.16937,0.59532 0.53808,1.32292 0.3687,0.72761 0.7299,1.32292 0.80266,1.32292 0.0728,0 -0.16937,-0.59531 -0.53808,-1.32292 z m -35.05729,-0.52917 c -0.592929,-0.87312 -1.137582,-1.5875 -1.210342,-1.5875 -0.07276,0 0.35283,0.71438 0.945758,1.5875 0.592929,0.87313 1.137582,1.5875 1.210342,1.5875 0.07276,0 -0.35283,-0.71437 -0.945758,-1.5875 z m 69.8823,0.87974 c -0.3119,-0.53636 -0.38722,-0.36468 -0.13191,0.30066 0.0907,0.23646 0.22072,0.37419 0.28884,0.30607 0.0681,-0.0681 -0.002,-0.34115 -0.15693,-0.60673 z m -0.52917,-1.32291 c -0.3119,-0.53637 -0.38722,-0.36469 -0.1319,0.30065 0.0907,0.23646 0.22071,0.37419 0.28883,0.30607 0.0681,-0.0681 -0.002,-0.34115 -0.15693,-0.60672 z m -2.93385,-1.52544 c 1.04908,-1.54784 1.21889,-1.69291 1.51249,-1.29213 0.35811,0.48884 0.42507,0.37488 0.17013,-0.28949 -0.27656,-0.7207 -0.57715,-0.47761 -1.97991,1.60119 -0.74959,1.11084 -1.25524,1.95319 -1.12368,1.87187 0.13157,-0.0813 0.77101,-0.93246 1.42097,-1.89144 z M 79.310199,184.193 c 0,-0.14552 -0.115414,-0.086 -0.256479,0.13229 -0.141066,0.21828 -0.256479,0.51594 -0.256479,0.66146 0,0.14552 0.115413,0.086 0.256479,-0.13229 0.141065,-0.21828 0.256479,-0.51594 0.256479,-0.66146 z m 36.917481,-0.92604 c -0.36871,-0.72761 -0.72548,-1.32292 -0.79283,-1.32292 -0.0673,0 -0.3643,0.50602 -0.65989,1.12448 -0.29558,0.61846 -0.3873,0.90581 -0.20381,0.63854 0.97656,-1.42246 0.89445,-1.41 1.4978,-0.22733 0.3115,0.61058 0.62547,1.11014 0.69773,1.11014 0.0723,0 -0.1703,-0.59531 -0.539,-1.32291 z m -35.220991,0 c -0.385205,-0.58209 -0.833377,-1.05651 -0.995942,-1.05428 -0.201248,0.003 -0.207069,0.0661 -0.01823,0.19843 0.152532,0.10692 0.547592,0.58134 0.877911,1.05429 0.8592,1.23017 0.972497,1.06518 0.136269,-0.19844 z"
         id="path851"
         inkscape:connector-curvature="0" />
      <path
         style="fill:#4bb370;stroke-width:0.26458332"
         d="m 67.243209,209.12998 c -0.440998,-0.47294 -3.316477,-3.91582 -6.389952,-7.65083 l -5.588138,-6.79093 0.256645,-1.54345 c 2.028408,-12.19866 4.659482,-23.58916 7.109802,-30.77989 0.272732,-0.80037 0.760769,-2.28865 1.084527,-3.3073 0.574822,-1.80857 2.106953,-5.80819 3.648735,-9.525 2.073119,-4.99771 7.337954,-14.80946 10.394272,-19.37116 4.588595,-6.84871 6.824104,-9.60441 11.994063,-14.78503 6.637983,-6.65166 12.449057,-10.94771 19.931127,-14.73481 11.23691,-5.687635 22.26516,-8.241907 35.51526,-8.225749 2.98318,0.0036 6.61459,0.15345 8.06979,0.332917 17.73365,2.187035 30.71511,10.174502 37.75045,23.227782 1.60824,2.98392 2.66377,5.68468 3.84021,9.82591 0.93197,3.28064 0.95401,3.46587 0.96626,8.11973 l 0.0126,4.7625 -1.11349,3.2912 c -0.61241,1.81016 -1.54131,4.07235 -2.06422,5.02708 -1.22563,2.23776 -3.22165,5.04318 -3.58816,5.04318 -0.15691,0 -0.7614,-0.43014 -1.34331,-0.95586 -1.30655,-1.18039 -2.95681,-1.93035 -4.70265,-2.13712 -0.73171,-0.0867 -1.38337,-0.24331 -1.44814,-0.3481 -0.0648,-0.1048 0.14205,-1.07007 0.4596,-2.14505 0.48623,-1.646 0.57837,-2.6227 0.58371,-6.18783 0.005,-3.64237 -0.0778,-4.51868 -0.59617,-6.27735 -2.12363,-7.20439 -6.26526,-11.53021 -11.99733,-12.53089 -4.52615,-0.79016 -9.68404,0.94005 -12.56743,4.21575 -2.34661,2.6659 -4.04013,7.33025 -4.05386,11.16529 -0.0168,4.67776 2.8768,12.66678 9.72221,26.84282 5.70158,11.80733 13.10192,29.90682 12.58051,30.76896 -0.56903,0.94088 -12.66534,15.34136 -12.9919,15.46667 -0.20576,0.079 -0.45886,0.006 -0.56243,-0.16113 -0.10357,-0.16758 -2.67341,-6.43571 -5.71075,-13.92918 -3.03735,-7.49347 -5.60833,-13.62449 -5.7133,-13.62449 -0.10497,0 -4.43381,6.18737 -9.61966,13.7497 -5.18585,7.56234 -9.55423,13.8272 -9.7075,13.92193 -0.15328,0.0947 -0.44257,0.008 -0.64288,-0.19196 -0.2003,-0.2003 -3.63684,-6.37588 -7.63674,-13.72349 -3.99989,-7.34762 -7.37283,-13.52705 -7.4954,-13.73208 -0.15559,-0.26025 -2.48153,3.77295 -7.70554,13.36146 -4.11548,7.55383 -7.65193,13.90905 -7.85877,14.12271 -0.329974,0.34084 -0.437972,0.32462 -0.880747,-0.13229 -0.277564,-0.28642 -4.625398,-6.53342 -9.661856,-13.88223 -5.036457,-7.3488 -9.255318,-13.395 -9.375243,-13.43601 -0.119925,-0.041 -2.693014,6.03119 -5.717974,13.49375 -3.02496,7.46257 -5.617798,13.71713 -5.761862,13.89903 -0.381118,0.48122 -0.535753,0.42377 -1.424319,-0.52916 z"
         id="path849"
         inkscape:connector-curvature="0" />
      <path
         style="fill:#71c332;stroke-width:0.26458332"
         d="M 67.243209,209.12998 C 65.57482,207.34074 55.24122,194.64725 55.24122,194.38709 c 0,-0.14972 0.119062,-0.27222 0.264583,-0.27222 0.145521,0 0.264583,-0.34912 0.264583,-0.77582 0,-0.4267 0.36401,-2.89725 0.808911,-5.4901 1.672055,-9.74464 5.038074,-22.48265 8.286221,-31.35752 4.937002,-13.48931 12.228547,-26.42445 20.333996,-36.07234 2.635332,-3.13683 8.164931,-8.50092 11.511958,-11.16738 11.810568,-9.409093 26.010348,-15.16868 40.075378,-16.255019 2.1419,-0.165434 3.83241,-0.401051 3.75667,-0.523594 -0.0757,-0.122542 2.07901,-0.222804 4.78832,-0.222804 2.70932,0 4.86758,0.09457 4.79615,0.210151 -0.0714,0.115582 1.32052,0.359196 3.09323,0.541365 8.09689,0.832054 15.34623,3.124682 22.14083,7.002111 7.72795,4.41005 14.02432,11.77367 17.57741,20.55679 0.8729,2.15779 2.26634,6.94658 2.26634,7.78867 0,0.34865 0.14338,0.68169 0.31861,0.7401 0.46565,0.15522 0.47737,9.24121 0.0121,9.39656 -0.1819,0.0607 -0.33073,0.40518 -0.33073,0.76544 0,0.83903 -1.43643,5.1007 -2.30309,6.83292 -0.95089,1.90057 -3.44458,5.61245 -3.88372,5.78096 -0.39823,0.15282 -1.48716,-0.8354 -1.40394,-1.27409 0.0276,-0.14533 -0.12847,-0.26933 -0.34675,-0.27555 -0.5402,-0.0154 -1.85924,-0.6898 -1.73676,-0.88797 0.0543,-0.0879 -0.15779,-0.17556 -0.47132,-0.19489 -0.31352,-0.0193 -1.18451,-0.12395 -1.93553,-0.2325 -1.29756,-0.18754 -1.3609,-0.23358 -1.27333,-0.9255 0.0507,-0.40047 0.3071,-1.42694 0.56982,-2.28104 0.37209,-1.20967 0.47611,-2.43009 0.47063,-5.52165 -0.006,-3.56043 -0.0833,-4.22736 -0.74818,-6.48229 -1.11925,-3.79591 -2.57394,-6.40839 -4.80356,-8.62672 -3.13042,-3.11456 -6.29763,-4.29517 -10.6475,-3.96896 -6.91762,0.51876 -11.52106,4.81667 -13.06623,12.19901 -0.4903,2.34251 -0.52061,2.91845 -0.26452,5.02687 0.68023,5.60038 3.09966,12.00926 9.63878,25.5323 2.31021,4.77755 6.32855,13.6845 6.6637,14.77059 0.10445,0.33846 0.60809,1.52909 1.1192,2.64583 1.08994,2.38143 4.19541,10.54563 4.44697,11.69095 0.0955,0.4348 0.29597,0.79054 0.44549,0.79054 0.14953,0 0.20863,0.16481 0.13133,0.36625 -0.23236,0.60552 -12.69219,15.55457 -13.09258,15.70821 -0.20386,0.0782 -0.45539,0.005 -0.55896,-0.16246 -0.10357,-0.16758 -2.67341,-6.43571 -5.71076,-13.92918 -3.03734,-7.49347 -5.60832,-13.62449 -5.71329,-13.62449 -0.10497,0 -4.43381,6.18737 -9.61966,13.7497 -5.18585,7.56234 -9.55423,13.8272 -9.7075,13.92193 -0.15328,0.0947 -0.44257,0.008 -0.64288,-0.19196 -0.2003,-0.2003 -3.63684,-6.37588 -7.63674,-13.72349 -3.99989,-7.34762 -7.37283,-13.52705 -7.4954,-13.73208 -0.15559,-0.26025 -2.48153,3.77295 -7.70554,13.36146 -4.11548,7.55383 -7.65193,13.90905 -7.85877,14.12271 -0.329974,0.34084 -0.437972,0.32462 -0.880747,-0.13229 -0.277564,-0.28642 -4.625398,-6.53342 -9.661856,-13.88223 -5.036457,-7.3488 -9.255318,-13.395 -9.375243,-13.43601 -0.119925,-0.041 -2.693014,6.03119 -5.717974,13.49375 -3.02496,7.46257 -5.617798,13.71713 -5.761862,13.89903 -0.381118,0.48122 -0.535753,0.42377 -1.424319,-0.52916 z"
         id="path847"
         inkscape:connector-curvature="0" />
      <path
         style="fill:#58b538;stroke-width:0.26458332"
         d="m 61.841003,202.25081 -6.186381,-7.47448 0.07262,-1.19062 c 0.306634,-5.02715 3.64191,-19.88199 6.663408,-29.67786 4.574389,-14.83044 11.043788,-27.89385 19.440485,-39.25543 3.794829,-5.13479 9.814314,-11.36478 14.880334,-15.40071 11.810571,-9.409093 26.010351,-15.16868 40.075381,-16.255019 2.1419,-0.165434 3.83241,-0.401051 3.75667,-0.523594 -0.0757,-0.122542 2.07901,-0.222804 4.78832,-0.222804 2.70932,0 4.86758,0.09457 4.79615,0.210151 -0.0714,0.115582 1.32052,0.359196 3.09323,0.541365 8.09689,0.832054 15.34623,3.124682 22.14083,7.002111 7.72795,4.41005 14.02432,11.77367 17.57741,20.55679 0.8729,2.15779 2.26634,6.94658 2.26634,7.78867 0,0.34865 0.14338,0.68169 0.31861,0.7401 0.46565,0.15522 0.47737,9.24121 0.0121,9.39656 -0.1819,0.0607 -0.33073,0.40518 -0.33073,0.76544 0,0.83903 -1.43643,5.1007 -2.30309,6.83292 -1.03088,2.06046 -3.46041,5.61853 -3.96997,5.81406 -0.25173,0.0966 -0.38464,0.10259 -0.29537,0.0133 0.14643,-0.14644 -1.05016,-1.54515 -1.36907,-1.60033 -0.45254,-0.0783 -1.5875,-0.77125 -1.5875,-0.96925 0,-0.13075 -0.11906,-0.16414 -0.26458,-0.0742 -0.14552,0.0899 -0.26459,0.0304 -0.26459,-0.13229 0,-0.1627 -0.0932,-0.23818 -0.20721,-0.16774 -0.24848,0.15357 -2.75279,-0.34067 -3.03118,-0.59821 -0.10762,-0.0996 0.0598,-1.00976 0.37209,-2.02265 0.47216,-1.53145 0.57083,-2.53228 0.58589,-5.94265 0.0166,-3.75217 -0.0451,-4.31486 -0.7253,-6.61458 -1.12401,-3.80032 -2.57781,-6.40996 -4.80585,-8.62671 -3.13042,-3.11457 -6.29763,-4.29518 -10.6475,-3.96897 -6.91762,0.51877 -11.52106,4.81668 -13.06623,12.19901 -0.4903,2.34251 -0.52061,2.91845 -0.26452,5.02688 0.68023,5.60038 3.09966,12.00925 9.63878,25.53229 2.31021,4.77756 6.32855,13.6845 6.6637,14.77059 0.10445,0.33847 0.60732,1.52909 1.1175,2.64584 1.00737,2.20507 3.40198,8.42049 4.28684,11.12688 0.52672,1.61101 0.53092,1.71551 0.0919,2.28828 -1.3097,1.70885 -11.83712,14.32723 -12.19033,14.61159 -0.22663,0.18244 -0.49614,0.24197 -0.59892,0.13229 -0.17525,-0.18702 -2.02806,-4.70997 -8.58997,-20.96922 -1.4976,-3.71078 -2.84121,-6.74688 -2.9858,-6.74688 -0.23142,0 -4.20651,5.69081 -16.13003,23.09207 -1.82245,2.65971 -3.42888,4.79738 -3.56984,4.7504 -0.24531,-0.0818 -1.61408,-2.5388 -11.15021,-20.01532 -2.33583,-4.2808 -4.36603,-7.8178 -4.51155,-7.86001 -0.14552,-0.0422 -3.70147,6.23378 -7.9021,13.94663 -4.20063,7.71285 -7.754185,13.98447 -7.896779,13.93694 -0.142597,-0.0475 -4.511559,-6.27386 -9.708803,-13.83628 -5.197248,-7.56242 -9.620885,-13.74986 -9.830306,-13.74986 -0.24253,0 -0.967668,1.44086 -1.997347,3.96875 -0.889117,2.18282 -3.192468,7.83828 -5.118558,12.56771 -4.378652,10.7516 -4.533366,11.1125 -4.763737,11.1125 -0.103906,0 -2.972791,-3.36351 -6.3753,-7.47448 z"
         id="path845"
         inkscape:connector-curvature="0" />
      <path
         style="fill:#0da644;stroke-width:0.26458332"
         d="m 64.971048,205.58186 c -1.640624,-1.98784 -4.377452,-5.29183 -6.08184,-7.34219 -2.700045,-3.24812 -3.100169,-3.85331 -3.108854,-4.70218 -0.02519,-2.46216 2.445359,-14.6391 4.654961,-22.94355 1.034509,-3.88804 3.111014,-10.49811 4.430203,-14.10251 4.937002,-13.48931 12.228547,-26.42445 20.333996,-36.07234 2.635332,-3.13683 8.164931,-8.50092 11.511958,-11.16738 11.810568,-9.409093 26.010348,-15.16868 40.075378,-16.255019 2.1419,-0.165434 3.83241,-0.401051 3.75667,-0.523594 -0.0757,-0.122542 2.07901,-0.222804 4.78832,-0.222804 2.70932,0 4.86758,0.09457 4.79615,0.210151 -0.0714,0.115582 1.32052,0.359196 3.09323,0.541365 8.09689,0.832054 15.34623,3.124682 22.14083,7.002111 7.72795,4.41005 14.02432,11.77367 17.57741,20.55679 0.8729,2.15779 2.26634,6.94658 2.26634,7.78867 0,0.34865 0.14338,0.68169 0.31861,0.7401 0.46565,0.15522 0.47737,9.24121 0.0121,9.39656 -0.1819,0.0607 -0.33073,0.40518 -0.33073,0.76544 0,0.83903 -1.43643,5.1007 -2.30309,6.83292 -0.75818,1.51539 -3.47468,5.69714 -3.70091,5.69714 -0.0823,0 -0.60512,-0.41156 -1.16191,-0.91458 -1.36179,-1.23029 -2.70493,-1.88108 -4.6872,-2.27107 -1.3135,-0.25842 -1.62817,-0.41323 -1.52982,-0.75266 0.0681,-0.23502 0.33804,-1.14169 0.59989,-2.01481 0.36856,-1.22897 0.47449,-2.48384 0.46905,-5.55625 -0.006,-3.56043 -0.0833,-4.22736 -0.74818,-6.48229 -1.11925,-3.79591 -2.57394,-6.40839 -4.80356,-8.62672 -3.13042,-3.11456 -6.29763,-4.29517 -10.6475,-3.96896 -6.91762,0.51876 -11.52106,4.81667 -13.06623,12.19901 -0.4903,2.34251 -0.52061,2.91845 -0.26452,5.02687 0.68023,5.60038 3.09966,12.00926 9.63878,25.5323 2.31021,4.77755 6.32855,13.6845 6.6637,14.77059 0.10445,0.33846 0.60809,1.52909 1.1192,2.64583 1.19023,2.60055 4.26034,10.73595 4.46679,11.83639 0.14791,0.78847 -0.23556,1.31649 -6.11217,8.41609 -3.44849,4.16617 -6.35769,7.57484 -6.46489,7.57484 -0.17104,0 -5.61647,-13.12319 -9.96327,-24.01093 -1.07227,-2.6858 -1.62689,-3.76642 -1.92814,-3.75678 -0.25036,0.008 -2.49311,3.05741 -5.49724,7.47447 -9.32233,13.70686 -13.90088,20.29324 -14.10692,20.29324 -0.17555,0 -6.3916,-11.17353 -13.36475,-24.02352 -2.25772,-4.1605 -2.53275,-4.36544 -3.44503,-2.5671 -0.49879,0.98326 -2.52631,4.71132 -11.07988,20.37292 -1.82795,3.34697 -3.460755,6.08541 -3.628456,6.08541 -0.167701,0 -2.471071,-3.15515 -5.1186,-7.01146 -12.460449,-18.14948 -14.121977,-20.51029 -14.486094,-20.58282 -0.281546,-0.0561 -1.052639,1.55876 -2.779461,5.82083 -6.957888,17.17317 -8.927055,21.90574 -9.114714,21.90574 -0.11367,0 -1.549002,-1.62641 -3.189627,-3.61426 z"
         id="path843"
         inkscape:connector-curvature="0" />
      <path
         style="fill:#0a9742;stroke-width:0.26458332"
         d="m 124.6361,197.07665 c -0.44055,-0.27991 -7.48238,-13.20754 -7.48238,-13.7364 0,-0.38039 0.65412,-0.40522 6.54844,-0.24852 3.60164,0.0957 10.69974,0.17434 15.77356,0.17465 8.8273,5.3e-4 9.21964,0.0216 9.09783,0.48741 -0.1208,0.46194 -8.01484,12.09468 -8.87145,13.07306 -0.36756,0.41981 -1.07454,0.46265 -7.57428,0.45897 -3.94289,-0.002 -7.31417,-0.0964 -7.49172,-0.20917 z m 32.50813,-1.17584 c -2.78009,-6.62413 -4.85614,-12.10834 -4.71895,-12.46584 0.14447,-0.37649 0.77619,-0.43615 4.87066,-0.45997 2.58756,-0.0151 6.66919,-0.10827 9.07028,-0.20716 2.40109,-0.0989 4.51041,-0.13491 4.68736,-0.0801 0.31561,0.0978 2.22057,4.75512 3.63613,8.88968 0.81027,2.36667 0.75732,2.63211 -0.83249,4.17301 l -0.9053,0.87746 -4.15275,0.17528 c -2.28401,0.0964 -5.73455,0.18582 -7.66787,0.19869 l -3.51513,0.0234 z m -53.74884,0.68467 c -0.80037,-0.0425 -3.949331,-0.20638 -6.997698,-0.3641 -3.048365,-0.15771 -5.695527,-0.3724 -5.88258,-0.47708 -0.312356,-0.17481 -9.002731,-12.66686 -9.638831,-13.85542 -0.152863,-0.28563 -0.233572,-0.56369 -0.179348,-0.61791 0.05422,-0.0542 1.581915,0.0128 3.394874,0.14898 4.424437,0.3323 11.933068,0.71402 21.618683,1.09904 7.01046,0.27867 8.00365,0.37042 8.00365,0.73939 0,0.49919 -6.35622,12.24913 -7.02756,12.99095 -0.26502,0.29285 -0.7562,0.49046 -1.14939,0.46243 -0.37763,-0.0269 -1.34144,-0.0837 -2.1418,-0.12628 z m -38.761462,-2.35112 c -4.074583,-0.33867 -7.676224,-0.62316 -8.003646,-0.63221 -0.521282,-0.0144 -0.595401,-0.15628 -0.596025,-1.14092 -7.67e-4,-1.21009 1.761318,-11.29955 2.153818,-12.33248 0.21222,-0.55849 0.355997,-0.60869 1.357234,-0.47394 0.615928,0.0829 4.691744,0.3981 9.057369,0.70045 10.740067,0.74383 10.71567,0.74093 10.715405,1.27709 -1.93e-4,0.38924 -4.727956,12.314 -5.157877,13.00962 -0.213625,0.34565 -0.72884,0.32361 -9.526278,-0.40761 z m 97.102082,-17.32554 c -25.23152,-2.02393 -51.00166,-5.92021 -77.12604,-11.66097 -8.479251,-1.86329 -20.463868,-4.75917 -20.736397,-5.0106 -0.348673,-0.32168 3.589307,-10.85433 4.681441,-12.52114 l 0.41423,-0.63219 4.70982,1.16359 c 27.056496,6.68449 57.870476,11.89987 82.632986,13.98594 2.83766,0.23905 5.40841,0.53387 5.71279,0.65515 0.30438,0.12127 0.74125,0.6186 0.97082,1.10516 3.81333,8.08224 5.75181,12.45658 5.75181,12.97945 0,0.32447 -0.18687,0.46187 -0.59531,0.43772 -0.32742,-0.0194 -3.21469,-0.24531 -6.41615,-0.50211 z m -4.36562,-21.22251 c -7.50548,-2.22519 -24.59073,-8.30131 -34.8408,-12.39062 -14.64661,-5.84333 -40.30087,-17.77659 -40.30087,-18.74623 0,-0.59632 3.328106,-4.66004 6.503458,-7.94091 l 2.688238,-2.77757 6.847382,3.27553 c 16.904652,8.08654 31.797412,14.27493 47.725502,19.83139 2.98318,1.04067 5.83778,2.04186 6.34356,2.22487 0.79481,0.28758 0.96622,0.51111 1.26308,1.64711 1.34983,5.16531 2.31826,7.90338 4.3344,12.2547 1.42073,3.06631 1.39165,3.20151 -0.56395,2.62173 z m 25.82117,-14.79138 c -0.0619,-0.197 -0.17557,-1.39229 -0.25273,-2.65621 -0.17294,-2.83312 -0.9931,-5.90437 -2.29928,-8.61013 -1.18416,-2.45298 -1.3719,-2.27488 3.04607,-2.88978 3.38145,-0.47064 10.50905,-0.41707 11.00814,0.0828 0.169,0.16924 0.36856,0.85147 0.44347,1.51607 0.0749,0.66459 0.22892,1.15104 0.34225,1.081 0.32993,-0.20391 0.59732,4.64997 0.38703,7.02561 -0.10581,1.19527 -0.28115,2.02959 -0.38965,1.85403 -0.11174,-0.18081 -0.25765,0.21653 -0.33654,0.91651 -0.0766,0.67963 -0.24204,1.32898 -0.36763,1.44298 -0.12559,0.11401 -1.23154,0.09 -2.45766,-0.0533 -2.15111,-0.25143 -7.42562,0.0403 -8.5534,0.47304 -0.27936,0.1072 -0.50142,0.0361 -0.57007,-0.18258 z m -32.85015,-8.47926 c -3.5313,-2.92431 -11.8402,-11.27095 -14.96201,-15.02996 -3.23718,-3.89792 -6.09152,-7.74401 -8.83614,-11.90625 -2.78273,-4.22004 -5.49079,-8.933104 -5.30529,-9.23325 0.33632,-0.544175 9.35587,-2.589236 12.45221,-2.823371 l 1.85208,-0.140048 1.57168,2.592605 c 5.26447,8.684164 13.70851,18.434294 22.20583,25.640554 1.19098,1.01002 1.2486,1.11374 0.8085,1.45521 -0.26064,0.20222 -1.32505,1.20188 -2.36537,2.22147 -2.11665,2.07448 -3.23403,4.0786 -3.98196,7.14204 -0.24871,1.01864 -0.53297,1.94331 -0.63171,2.05481 -0.0987,0.1115 -1.36225,-0.77671 -2.80782,-1.97381 z m 25.14928,-8.95047 c -0.38955,-0.6303 -3.55081,-1.9322 -5.53129,-2.27795 -1.83608,-0.32053 -2.40617,-0.31825 -4.24607,0.017 -1.16888,0.21298 -2.41067,0.47144 -2.75953,0.57436 -0.59178,0.17458 -0.62158,0.13559 -0.44459,-0.58153 0.36948,-1.49703 2.54886,-6.36185 4.05248,-9.04595 2.00056,-3.57118 4.33474,-6.80966 6.90642,-9.58208 l 2.08612,-2.24896 0.90561,0.43174 c 2.30445,1.0986 9.75748,7.74607 9.7447,8.69143 -0.003,0.22101 -0.90845,1.2948 -2.01212,2.38621 -2.33956,2.31355 -5.13911,6.40375 -6.59379,9.63366 -0.71431,1.58602 -1.16208,2.27259 -1.48214,2.27259 -0.25224,0 -0.53385,-0.12173 -0.6258,-0.27051 z"
         id="path841"
         inkscape:connector-curvature="0" />
      <path
         style="fill:#098c40;stroke-width:0.26458332"
         d="m 127.96149,196.82778 c -2.22783,-0.0549 -3.43429,-0.19053 -3.60709,-0.40551 -0.55241,-0.68725 -6.99136,-12.65907 -6.8725,-12.77793 0.0692,-0.0692 7.05198,-0.0335 15.51737,0.0792 l 15.39161,0.20492 -4.24875,6.2177 c -2.33682,3.41974 -4.44684,6.36654 -4.68895,6.54844 -0.4375,0.32871 -2.56101,0.35333 -11.49169,0.13322 z m 29.67348,-0.1095 c 0,-0.0631 -1.13109,-2.89523 -2.51354,-6.29371 -1.38245,-3.39848 -2.51354,-6.3397 -2.51354,-6.53604 0,-0.27908 0.67843,-0.35797 3.10885,-0.3615 1.70987,-0.002 5.84052,-0.12236 9.17922,-0.26641 4.04024,-0.1743 6.15877,-0.17348 6.33472,0.002 0.30568,0.30568 0.75652,1.42231 2.56096,6.34295 0.71821,1.95852 1.30583,3.76921 1.30583,4.02375 0,0.25455 -0.44648,0.92798 -0.99219,1.49652 l -0.99219,1.03372 -5.02708,0.17272 c -2.76489,0.095 -6.24747,0.2464 -7.73906,0.33645 -1.49159,0.0901 -2.71198,0.11214 -2.71198,0.0491 z m -58.7375,-0.77784 c -2.401094,-0.11693 -5.318125,-0.28652 -6.482292,-0.37687 l -2.116667,-0.16428 -4.44609,-6.47872 c -2.44535,-3.5633 -4.517205,-6.66404 -4.604123,-6.89054 -0.136083,-0.35463 0.05885,-0.38928 1.403382,-0.24947 2.727854,0.28364 26.91637,1.47804 30.07027,1.48483 0.40018,8e-4 0.7276,0.11593 0.7276,0.25571 0,0.26875 -6.23053,11.81436 -6.68064,12.37971 -0.291,0.3655 -1.0966,0.36956 -7.87144,0.0396 z m -35.26346,-2.21399 c -4.042455,-0.32845 -7.421435,-0.66869 -7.508844,-0.7561 -0.165588,-0.16559 0.559373,-4.78539 1.553843,-9.90183 0.440165,-2.2646 0.676629,-2.97628 0.988608,-2.97536 0.225533,5.3e-4 3.327092,0.23217 6.892353,0.51448 3.56526,0.2823 8.010977,0.59741 9.879372,0.70023 2.297642,0.12645 3.437541,0.29239 3.522091,0.51272 0.06875,0.17918 -0.984202,3.04845 -2.339904,6.37617 l -2.464911,6.05041 -1.586346,0.0382 c -0.87249,0.021 -4.893807,-0.2305 -8.936262,-0.55895 z m 98.63117,-17.2311 c -29.61456,-2.34013 -59.81517,-7.26902 -91.611981,-14.95153 -3.674401,-0.88778 -6.680729,-1.71117 -6.680729,-1.82976 0,-0.7261 4.259194,-11.49515 4.738198,-11.98018 0.114719,-0.11616 2.340006,0.32144 4.945086,0.97244 26.211853,6.55028 57.834086,11.88874 83.409836,14.08124 l 5.38374,0.46153 1.38947,2.93468 c 0.7642,1.61408 2.01655,4.36193 2.78299,6.10633 0.76643,1.74441 1.49872,3.28476 1.62731,3.423 0.12858,0.13825 0.23379,0.46567 0.23379,0.72761 0,0.55918 0.15049,0.55785 -6.21771,0.0546 z m -7.01146,-21.92533 c -3.82863,-1.12089 -18.32332,-6.22645 -26.32934,-9.27417 -9.57507,-3.64502 -20.27092,-8.18887 -30.744691,-13.06104 -6.32343,-2.94153 -15.686386,-7.68356 -15.686386,-7.94464 0,-0.42383 3.502176,-4.58867 6.221685,-7.39891 l 2.654829,-2.74341 4.226846,2.11632 c 15.511887,7.76659 35.836087,16.23842 52.248727,21.77908 2.69213,0.90882 5.03707,1.7615 5.21098,1.89485 0.17391,0.13334 0.4552,0.91203 0.62509,1.73042 0.48128,2.3183 1.98823,6.66101 3.5696,10.28682 0.79324,1.81875 1.44224,3.35711 1.44224,3.41859 0,0.18642 -0.28196,0.12052 -3.43958,-0.80391 z m 27.93108,-16.07053 c -0.2427,-2.8749 -1.03605,-5.95928 -2.15669,-8.38476 -0.49696,-1.0756 -0.90356,-2.0457 -0.90356,-2.15579 0,-0.28154 3.04577,-0.77914 6.48477,-1.05944 2.57177,-0.20961 7.87405,-0.006 8.19492,0.3152 0.0644,0.0644 0.22508,1.06416 0.35703,2.22167 0.17644,1.54783 0.25826,1.82458 0.30928,1.04621 0.0568,-0.86664 0.11177,-0.72287 0.30341,0.79375 0.25323,2.0041 -0.0153,7.73083 -0.29781,6.35 -0.13182,-0.6444 -0.19754,-0.47419 -0.34927,0.90461 -0.10279,0.9341 -0.22146,1.73293 -0.2637,1.77517 -0.0422,0.0423 -1.33623,-0.024 -2.87552,-0.14719 -2.54272,-0.20352 -5.99701,-0.0389 -7.88501,0.37578 l -0.73245,0.16087 z m -32.429,-6.32328 c -7.91308,-6.58972 -15.92006,-15.40687 -22.06569,-24.29838 -2.87202,-4.15525 -7.08449,-11.123873 -6.95646,-11.507968 0.0482,-0.144474 0.79355,-0.475655 1.65642,-0.735958 1.84163,-0.555567 8.39548,-1.930915 10.30011,-2.161515 l 1.32291,-0.16017 0.63547,1.122683 c 1.05927,1.871434 4.21303,6.521148 6.32469,9.324768 4.11291,5.46062 9.6411,11.46394 14.83546,16.1105 l 3.16562,2.83178 -2.05948,2.03823 c -2.32285,2.29888 -3.79091,4.92807 -4.30987,7.71863 -0.16321,0.87761 -0.36503,1.59443 -0.44848,1.59294 -0.0835,-0.002 -1.16377,-0.84548 -2.4007,-1.87554 z m 24.76131,-8.93283 c -0.29052,-0.47007 -3.59916,-1.86294 -5.07203,-2.13521 -2.02529,-0.3744 -3.57988,-0.34931 -5.66636,0.0914 -0.94589,0.19982 -1.77194,0.31386 -1.83568,0.25343 -0.17759,-0.16836 1.4868,-4.13833 3.04586,-7.26512 1.99085,-3.99275 4.81952,-8.08881 7.58022,-10.97655 1.31157,-1.37193 2.46857,-2.49441 2.57111,-2.49441 0.80545,0 9.80516,7.77524 9.80516,8.47111 0,0.0935 -0.94031,1.13589 -2.08957,2.31646 -2.4588,2.52577 -4.87743,6.03873 -6.53416,9.4906 -1.12331,2.34046 -1.476,2.77986 -1.80455,2.24825 z"
         id="path839"
         inkscape:connector-curvature="0" />
    </g>
  </g>
</svg>
