<?xml version="1.0" encoding="UTF-8" standalone="no"?>
<!-- Created with Inkscape (http://www.inkscape.org/) -->

<svg
   xmlns:dc="http://purl.org/dc/elements/1.1/"
   xmlns:cc="http://creativecommons.org/ns#"
   xmlns:rdf="http://www.w3.org/1999/02/22-rdf-syntax-ns#"
   xmlns:svg="http://www.w3.org/2000/svg"
   xmlns="http://www.w3.org/2000/svg"
   xmlns:sodipodi="http://sodipodi.sourceforge.net/DTD/sodipodi-0.dtd"
   xmlns:inkscape="http://www.inkscape.org/namespaces/inkscape"
   width="90.233253mm"
   height="53.586639mm"
   viewBox="0 0 90.233253 53.586639"
   version="1.1"
   id="svg8"
   inkscape:export-filename="C:\coding\bytecoin\src\assets\graduate-hat.png"
   inkscape:export-xdpi="29"
   inkscape:export-ydpi="29"
   inkscape:version="0.92.4 (5da689c313, 2019-01-14)"
   sodipodi:docname="graduate-hat.svg">
  <defs
     id="defs2" />
  <sodipodi:namedview
     id="base"
     pagecolor="#ffffff"
     bordercolor="#666666"
     borderopacity="1.0"
     inkscape:pageopacity="0.0"
     inkscape:pageshadow="2"
     inkscape:zoom="1.979899"
     inkscape:cx="179.64072"
     inkscape:cy="59.323961"
     inkscape:document-units="mm"
     inkscape:current-layer="g87"
     showgrid="false"
     fit-margin-top="0"
     fit-margin-left="0"
     fit-margin-right="0"
     fit-margin-bottom="0"
     inkscape:window-width="1920"
     inkscape:window-height="1001"
     inkscape:window-x="-9"
     inkscape:window-y="-9"
     inkscape:window-maximized="1" />
  <metadata
     id="metadata5">
    <rdf:RDF>
      <cc:Work
         rdf:about="">
        <dc:format>image/svg+xml</dc:format>
        <dc:type
           rdf:resource="http://purl.org/dc/dcmitype/StillImage" />
        <dc:title />
      </cc:Work>
    </rdf:RDF>
  </metadata>
  <g
     inkscape:label="Layer 1"
     inkscape:groupmode="layer"
     id="layer1"
     transform="translate(-84.094043,-208.93693)">
    <g
       id="g21"
       transform="translate(-22.183329,26.427388)">
      <g
         id="g87"
         transform="translate(-44.233107,-20.980658)">
        <path
           style="fill:#f4dea0;stroke-width:0.26458332"
           d="m 150.65547,256.56068 c -0.0901,-0.28389 -0.0246,-1.02803 0.14548,-1.65364 0.17011,-0.62563 0.41194,-1.85187 0.5374,-2.72499 0.12546,-0.87313 0.35273,-2.12328 0.50505,-2.77813 0.15231,-0.65484 0.375,-1.84547 0.49485,-2.64583 0.11985,-0.80037 0.41267,-1.99099 0.65071,-2.64584 0.53571,-1.4737 0.56142,-3.35017 0.0623,-4.5448 -0.3381,-0.80918 -0.3286,-1.01621 0.0895,-1.95054 0.37554,-0.83922 0.49816,-2.08847 0.622,-6.33695 0.14562,-4.99552 0.12512,-5.32747 -0.36634,-5.93142 -0.42614,-0.52368 -0.45836,-0.7016 -0.17761,-0.98061 0.29846,-0.2966 5.75754,-2.943 35.13569,-17.0327 4.35665,-2.08944 5.94364,-2.7289 6.77808,-2.73115 0.86154,-0.002 5.42934,1.92257 21.82813,9.1985 11.40622,5.0608 20.9015,9.35546 21.10061,9.54371 0.19912,0.18825 0.27854,0.47738 0.17648,0.64251 -0.10206,0.16513 -4.43746,2.42683 -9.63422,5.02599 -5.19677,2.59917 -9.57607,4.8865 -9.73177,5.08296 -0.15571,0.19647 -0.36266,1.72608 -0.45991,3.39914 -0.11443,1.96859 -0.301,3.16611 -0.52876,3.39386 -0.29286,0.29286 -0.85767,0.19563 -3.36477,-0.57925 -2.44333,-0.75516 -3.86306,-1.00665 -7.51075,-1.33045 -6.8228,-0.60563 -13.98589,-0.76935 -19.71145,-0.45052 -6.6629,0.37102 -9.04228,0.79816 -12.09231,2.17076 -1.33927,0.60271 -2.61919,1.02516 -2.84428,0.93878 -0.42981,-0.16493 -0.60664,-2.2982 -0.45836,-5.5296 0.0383,-0.83571 -0.0501,-1.74342 -0.1966,-2.01712 -0.3008,-0.56205 -15.24701,-7.28079 -15.75926,-7.08422 -0.21789,0.0836 -0.36893,1.63483 -0.49265,5.05975 -0.16963,4.69568 -0.15215,4.97257 0.35439,5.61654 0.64935,0.82552 0.6697,1.38294 0.0875,2.39732 -0.4246,0.73983 -0.41112,0.95897 0.29026,4.71779 0.40456,2.16807 0.90259,4.63616 1.10675,5.48466 0.20416,0.8485 0.37119,1.9309 0.37119,2.40534 0,0.47444 0.17731,1.44709 0.39401,2.16145 0.21671,0.71435 0.3953,1.32008 0.39688,1.34606 0.002,0.026 -0.18424,0.23435 -0.41291,0.46302 -0.33487,0.33488 -1.0779,0.41578 -3.81863,0.41578 -3.14189,0 -3.41542,-0.0396 -3.56668,-0.51616 z"
           id="path101"
           inkscape:connector-curvature="0" />
        <path
           style="fill:#f5cd5e;stroke-width:0.26458332"
           d="m 151.10511,256.48393 c -0.2265,-0.27292 -0.20284,-0.6852 0.0959,-1.67065 0.21812,-0.71957 0.50585,-1.96316 0.63941,-2.76353 0.54285,-3.25311 1.26759,-6.78573 1.51988,-7.40833 0.5817,-1.43554 0.66214,-3.39342 0.19981,-4.86328 -0.40703,-1.29406 -0.41041,-1.48212 -0.0368,-2.05225 0.32207,-0.49154 0.45022,-1.8322 0.591,-6.18262 0.17635,-5.44986 0.16907,-5.56451 -0.3848,-6.059 -0.31051,-0.27722 -0.56455,-0.64045 -0.56455,-0.80718 0,-0.36144 -1.65865,0.46342 20.37291,-10.13171 20.64465,-9.92816 21.25659,-10.20524 22.04226,-9.98059 0.31879,0.0911 10.01532,4.34324 21.54785,9.44908 15.14952,6.70722 20.96822,9.40058 20.96822,9.70579 0,0.29107 -2.96753,1.90244 -9.54331,5.18199 -5.24882,2.61776 -9.65674,4.89398 -9.79539,5.05826 -0.13865,0.16428 -0.31456,1.29537 -0.39093,2.51354 -0.25524,4.07177 -0.34242,4.46436 -0.99022,4.45913 -0.31851,-0.003 -1.7102,-0.36528 -3.09265,-0.80603 -1.97713,-0.63035 -3.67106,-0.91628 -7.9375,-1.33985 -4.6852,-0.46514 -6.6492,-0.52028 -14.41979,-0.40482 -10.52065,0.15632 -12.95894,0.48179 -16.92272,2.25889 -1.74935,0.7843 -2.4601,0.9886 -2.71198,0.77956 -0.2466,-0.20466 -0.34246,-1.24731 -0.34539,-3.75662 -0.002,-1.91033 -0.0997,-3.62409 -0.2167,-3.80835 -0.20676,-0.32574 -14.60694,-6.8009 -15.77855,-7.09495 -0.57568,-0.14449 -0.58897,-0.0876 -0.75891,3.24458 -0.28231,5.53558 -0.22951,7.38275 0.22175,7.75726 0.5124,0.42525 0.50233,1.08384 -0.0338,2.20803 -0.40564,0.85063 -0.39626,1.06235 0.16154,3.647 0.3257,1.50916 0.69226,3.45831 0.81459,4.33143 0.12232,0.87313 0.40553,2.18282 0.62934,2.91042 0.22382,0.7276 0.40823,1.81117 0.40981,2.40791 0.002,0.59675 0.13671,1.46898 0.30031,1.93828 0.21137,0.60633 0.21548,0.93525 0.0142,1.13652 -0.29273,0.29274 -2.03541,0.38959 -3.88354,0.21583 -0.58208,-0.0547 -1.36482,-0.0122 -1.73942,0.0946 -0.45532,0.12973 -0.78077,0.0739 -0.98181,-0.16829 z"
           id="path99"
           inkscape:connector-curvature="0" />
        <path
           style="fill:#a0a0a0;stroke-width:0.26458332"
           d="m 151.3128,256.16371 c 0,-0.0657 0.1786,-0.80505 0.39688,-1.64309 0.21828,-0.83804 0.39687,-1.91541 0.39687,-2.39416 0,-0.47875 0.11907,-0.87046 0.26459,-0.87046 0.34589,0 0.33561,1.26858 -0.0272,3.35177 -0.19485,1.11889 -0.41454,1.67532 -0.66146,1.67532 -0.20335,0 -0.36972,-0.0537 -0.36972,-0.11938 z m 3.89745,-0.0401 c -0.0877,-0.0877 -0.048,-0.45266 0.0882,-0.81097 0.31207,-0.82083 0.30198,-4.33694 -0.017,-5.9087 -0.13289,-0.65484 -0.16986,-1.7715 -0.0822,-2.48146 0.15285,-1.23747 0.17387,-1.26482 0.50834,-0.66146 0.19189,0.34616 0.35311,1.05085 0.35827,1.56598 0.005,0.51513 0.17808,1.58669 0.38428,2.38125 0.49078,1.89115 0.98999,5.52829 0.8008,5.83442 -0.16513,0.26718 -1.79006,0.33163 -2.04076,0.0809 z m -0.72245,-13.34987 c 0,-0.29963 0.11387,-0.47441 0.25303,-0.3884 0.13917,0.086 0.18596,0.33116 0.10399,0.54478 -0.20988,0.54693 -0.35702,0.48248 -0.35702,-0.15638 z m 17.76068,-1.37954 c -0.19027,-0.19027 -0.29964,-1.54776 -0.30223,-3.75099 -0.002,-1.89905 -0.0997,-3.60357 -0.2167,-3.78783 -0.23658,-0.37271 -14.85713,-6.89812 -15.94791,-7.11783 l -0.69054,-0.1391 -0.17028,3.53139 c -0.31067,6.44286 -0.28952,7.32467 0.18831,7.85267 0.54067,0.59744 0.54626,0.91769 0.0333,1.90957 -0.53375,1.03216 -0.75853,0.98543 -1.2475,-0.25937 -0.35146,-0.89474 -0.35759,-1.13813 -0.0439,-1.74277 0.25606,-0.49356 0.41517,-2.33037 0.53445,-6.16991 l 0.16983,-5.46713 -0.69523,-0.64143 c -0.38238,-0.35279 -0.69523,-0.77555 -0.69523,-0.93947 0,-0.35567 -1.64339,0.4612 20.37291,-10.1266 20.64465,-9.92816 21.25659,-10.20524 22.04226,-9.98059 0.31879,0.0911 10.01532,4.34324 21.54785,9.44908 15.14952,6.70722 20.96822,9.40058 20.96822,9.70579 0,0.29107 -2.96753,1.90244 -9.54331,5.18199 -5.24882,2.61776 -9.65674,4.89398 -9.79539,5.05826 -0.13865,0.16428 -0.31456,1.29537 -0.39093,2.51354 -0.25524,4.07177 -0.34242,4.46436 -0.99022,4.45913 -0.31851,-0.003 -1.7102,-0.36528 -3.09265,-0.80603 -1.97713,-0.63035 -3.67106,-0.91628 -7.9375,-1.33985 -4.6852,-0.46514 -6.6492,-0.52028 -14.41979,-0.40482 -10.17189,0.15114 -13.0706,0.51036 -16.39148,2.03128 -2.72276,1.247 -2.95198,1.31542 -3.28638,0.98102 z"
           id="path97"
           inkscape:connector-curvature="0" />
        <path
           style="fill:#f0bb2f;stroke-width:0.26458332"
           d="m 151.3128,256.16371 c 0,-0.0657 0.1786,-0.80505 0.39688,-1.64309 0.21828,-0.83804 0.39687,-1.91541 0.39687,-2.39416 0,-0.47875 0.11907,-0.87046 0.26459,-0.87046 0.34589,0 0.33561,1.26858 -0.0272,3.35177 -0.19485,1.11889 -0.41454,1.67532 -0.66146,1.67532 -0.20335,0 -0.36972,-0.0537 -0.36972,-0.11938 z m 3.89745,-0.0401 c -0.0877,-0.0877 -0.048,-0.45266 0.0882,-0.81097 0.31207,-0.82083 0.30198,-4.33694 -0.017,-5.9087 -0.13289,-0.65484 -0.16986,-1.7715 -0.0822,-2.48146 0.15285,-1.23747 0.17387,-1.26482 0.50834,-0.66146 0.19189,0.34616 0.35311,1.05085 0.35827,1.56598 0.005,0.51513 0.17808,1.58669 0.38428,2.38125 0.49078,1.89115 0.98999,5.52829 0.8008,5.83442 -0.16513,0.26718 -1.79006,0.33163 -2.04076,0.0809 z m -0.72245,-13.34987 c 0,-0.29963 0.11387,-0.47441 0.25303,-0.3884 0.13917,0.086 0.18596,0.33116 0.10399,0.54478 -0.20988,0.54693 -0.35702,0.48248 -0.35702,-0.15638 z m 17.89385,-2.16719 c -0.0877,-0.32743 -0.16116,-1.97585 -0.16315,-3.66316 -0.003,-2.59206 -0.0754,-3.1291 -0.46663,-3.46275 -0.71759,-0.612 -15.69868,-7.12989 -16.17782,-7.03854 -0.47282,0.0901 -0.72273,2.53797 -0.82605,8.09119 -0.0453,2.43357 0.0237,3.07635 0.37126,3.46042 0.53029,0.58596 0.53425,0.91012 0.0232,1.89837 -0.53375,1.03216 -0.75853,0.98543 -1.2475,-0.25937 -0.35146,-0.89474 -0.35759,-1.13813 -0.0439,-1.74277 0.25583,-0.49311 0.4177,-2.35503 0.54256,-6.24056 l 0.17796,-5.53778 -0.62047,-0.66046 c -0.38226,-0.40689 -0.52532,-0.75308 -0.37263,-0.9017 0.13632,-0.13269 7.80832,-3.86568 17.0489,-8.29554 24.11497,-11.56053 24.12347,-11.56454 24.50081,-11.56454 0.56595,0 42.5514,18.72642 42.65023,19.02293 0.0502,0.15046 -4.26009,2.44824 -9.57833,5.10617 -7.85734,3.92691 -9.71689,4.95751 -9.92229,5.49914 -0.13903,0.3666 -0.30266,1.88875 -0.36362,3.38256 -0.061,1.49381 -0.18676,2.79193 -0.27955,2.88472 -0.0928,0.0928 -1.62887,-0.2572 -3.41351,-0.77776 -2.60275,-0.7592 -4.18713,-1.03136 -8.00729,-1.37547 -4.83174,-0.43523 -18.19444,-0.60539 -21.59372,-0.27497 -4.24566,0.41268 -7.02198,1.0156 -9.30825,2.02144 -1.27983,0.56305 -2.42681,1.02374 -2.54883,1.02374 -0.12202,0 -0.29365,-0.26789 -0.38139,-0.59531 z"
           id="path95"
           inkscape:connector-curvature="0" />
        <path
           style="fill:#5d5d5d;stroke-width:0.26458332"
           d="m 172.38165,240.60653 c -0.0877,-0.32743 -0.16116,-1.97585 -0.16315,-3.66316 -0.003,-2.59206 -0.0754,-3.1291 -0.46663,-3.46275 -0.65561,-0.55914 -15.59056,-7.09545 -16.21255,-7.09545 -0.71325,0 -2.3203,-1.47459 -1.97756,-1.81456 0.14552,-0.14434 7.82505,-3.88687 17.06563,-8.31673 24.11497,-11.56053 24.12347,-11.56454 24.50081,-11.56454 0.56595,0 42.5514,18.72642 42.65023,19.02293 0.0502,0.15046 -4.26009,2.44824 -9.57833,5.10617 -7.85734,3.92691 -9.71689,4.95751 -9.92229,5.49914 -0.13903,0.3666 -0.30266,1.88875 -0.36362,3.38256 -0.061,1.49381 -0.18676,2.79193 -0.27955,2.88472 -0.0928,0.0928 -1.62887,-0.2572 -3.41351,-0.77776 -2.60275,-0.7592 -4.18713,-1.03136 -8.00729,-1.37547 -4.83174,-0.43523 -18.19444,-0.60539 -21.59372,-0.27497 -4.24566,0.41268 -7.02198,1.0156 -9.30825,2.02144 -1.27983,0.56305 -2.42681,1.02374 -2.54883,1.02374 -0.12202,0 -0.29365,-0.26789 -0.38139,-0.59531 z"
           id="path93"
           inkscape:connector-curvature="0" />
        <path
           style="fill:#4d4d4d;stroke-width:0.28618291"
           d="m 170.84082,241.77101 c -0.0213,-0.35626 -0.11793,-2.19057 -0.21464,-4.07624 l -0.17583,-3.42849 -1.57401,-0.75204 c -1.87256,-0.89469 -15.75997,-6.92405 -17.11037,-7.42865 -0.51756,-0.19338 -1.06029,-0.57447 -1.20606,-0.84685 -0.22815,-0.42631 0.24141,-0.73588 3.37359,-2.22418 2.00124,-0.95092 11.98872,-5.73291 22.19439,-10.62665 10.20568,-4.89374 18.73446,-8.89771 18.95282,-8.89771 0.62401,0 45.46417,19.97194 45.57296,20.29833 0.0534,0.16042 -4.45195,2.55524 -10.01205,5.32183 -5.56009,2.76657 -10.31479,5.27103 -10.56601,5.56543 -0.33186,0.38892 -0.50291,1.41022 -0.62557,3.73536 -0.0928,1.76005 -0.21278,3.24405 -0.26651,3.29778 -0.0538,0.0538 -1.51079,-0.32859 -3.2379,-0.84961 -2.53866,-0.76584 -4.15443,-1.03509 -8.43459,-1.4055 -10.74113,-0.92956 -22.45946,-0.83005 -28.64543,0.24324 -2.39133,0.41489 -3.50387,0.77803 -6.9128,2.25631 -1.05933,0.45938 -1.07369,0.45702 -1.11199,-0.18236 z"
           id="path91"
           inkscape:connector-curvature="0" />
        <path
           style="fill:#0e0e0e;stroke-width:0.2874963"
           d="m 161.00619,230.17311 c -4.65139,-2.05371 -8.75368,-3.80846 -9.11621,-3.89945 -0.66721,-0.16746 -1.44517,-0.87989 -1.21365,-1.11141 0.0693,-0.0693 1.86662,-0.95509 3.99404,-1.96842 2.12742,-1.01333 11.99847,-5.74031 21.93566,-10.50441 9.93719,-4.76409 18.2475,-8.662 18.46735,-8.662 0.21984,0 4.44457,1.79712 9.38827,3.99359 4.94371,2.19647 14.74567,6.54547 21.78213,9.66443 7.03648,3.11897 13.17752,5.8678 13.64677,6.10852 l 0.85318,0.43767 -9.62182,4.83213 c -5.29199,2.65766 -10.84843,5.58664 -11.04608,5.59522 0.11584,-0.9059 0.30314,-3.22724 0.35262,-4.64707 0.0296,-0.84953 0.25252,-1.01232 -0.29396,-1.36889 -1.58107,-1.00173 -8.34044,-3.02495 -12.72171,-3.80788 -4.02035,-0.71841 -5.2701,-0.81923 -9.91863,-0.80012 -10.63759,0.0438 -18.52171,1.55419 -25.01218,4.79182 l -1.77555,1.21901 c -0.25607,4.22043 0,0 -0.25607,4.22043 -0.11138,-0.005 -4.79277,-2.03946 -9.44415,-4.09317 z"
           id="path89"
           inkscape:connector-curvature="0"
           sodipodi:nodetypes="csssssssccscscccccccc" />
      </g>
    </g>
  </g>
</svg>
