<?xml version="1.0" encoding="UTF-8" standalone="no"?>
<!-- Created with Inkscape (http://www.inkscape.org/) -->

<svg
   xmlns:dc="http://purl.org/dc/elements/1.1/"
   xmlns:cc="http://creativecommons.org/ns#"
   xmlns:rdf="http://www.w3.org/1999/02/22-rdf-syntax-ns#"
   xmlns:svg="http://www.w3.org/2000/svg"
   xmlns="http://www.w3.org/2000/svg"
   xmlns:sodipodi="http://sodipodi.sourceforge.net/DTD/sodipodi-0.dtd"
   xmlns:inkscape="http://www.inkscape.org/namespaces/inkscape"
   width="122.22451mm"
   height="96.1745mm"
   viewBox="0 0 122.22451 96.1745"
   version="1.1"
   id="svg8"
   inkscape:version="0.92.4 (5da689c313, 2019-01-14)"
   sodipodi:docname="police-hat.svg"
   inkscape:export-filename="C:\coding\bytecoin\src\assets\police-hat.png"
   inkscape:export-xdpi="29"
   inkscape:export-ydpi="29">
  <defs
     id="defs2" />
  <sodipodi:namedview
     id="base"
     pagecolor="#ffffff"
     bordercolor="#666666"
     borderopacity="1.0"
     inkscape:pageopacity="0.0"
     inkscape:pageshadow="2"
     inkscape:zoom="0.7"
     inkscape:cx="183.90421"
     inkscape:cy="135.07692"
     inkscape:document-units="mm"
     inkscape:current-layer="g871"
     showgrid="false"
     fit-margin-top="0"
     fit-margin-left="0"
     fit-margin-right="0"
     fit-margin-bottom="0"
     inkscape:window-width="1920"
     inkscape:window-height="1001"
     inkscape:window-x="-9"
     inkscape:window-y="-9"
     inkscape:window-maximized="1" />
  <metadata
     id="metadata5">
    <rdf:RDF>
      <cc:Work
         rdf:about="">
        <dc:format>image/svg+xml</dc:format>
        <dc:type
           rdf:resource="http://purl.org/dc/dcmitype/StillImage" />
        <dc:title></dc:title>
      </cc:Work>
    </rdf:RDF>
  </metadata>
  <g
     inkscape:label="Layer 1"
     inkscape:groupmode="layer"
     id="layer1"
     transform="translate(-70.276936,-153.42462)">
    <g
       id="g826"
       transform="translate(90.069831,-0.53453906)">
      <g
         id="g871"
         transform="translate(75.102737,-33.408691)">
        <path
           style="fill:#eeaf04;stroke-width:0.26458335"
           d="m -42.80408,283.25401 c -18.800568,-1.50397 -31.168546,-8.09528 -35.585104,-18.9645 -0.817571,-2.01205 -1.456565,-4.93103 -1.456565,-6.6537 0,-0.86506 -0.14101,-1.38962 -0.439874,-1.63635 -0.241931,-0.19971 -0.66361,-0.86776 -0.937066,-1.48453 -0.57168,-1.28942 -0.359711,-2.64687 0.604778,-3.87302 0.694228,-0.88257 1.211944,-0.21235 -6.768463,-8.76232 -3.4925,-3.74176 -6.588126,-7.11577 -6.879167,-7.4978 -0.336813,-0.44211 -0.523002,-1.08135 -0.512208,-1.75857 0.01703,-1.06842 0.522061,-2.07131 9.262826,-18.39417 1.207841,-2.25558 2.603041,-4.49459 3.100443,-4.97559 0.667422,-0.64542 5.021714,-2.74255 16.619364,-8.00429 8.643247,-3.92136 16.727025,-7.59701 17.963952,-8.16813 11.627565,-5.36869 13.013069,-5.91498 14.365706,-5.66434 0.715045,0.13251 7.441462,3.03136 33.65617134,14.50463 12.00282866,5.25323 13.27032366,5.85121 14.21887866,6.70817 0.553405,0.49997 1.560346,1.93463 2.237639,3.18815 0.677297,1.2535 3.289692,6.0509 5.805324,10.66088 2.515632,4.60997 4.650896,8.68865 4.745032,9.06371 0.44558,1.77534 0.14309,2.19757 -7.242252,10.10922 -9.084636,9.73203 -8.338833,8.76893 -7.817707,10.09558 0.55268,1.40699 0.301731,2.70555 -0.755568,3.90975 -0.752235,0.85675 -0.839669,1.15484 -1.042588,3.55464 -0.5203908,6.1543 -3.2849481,11.41936 -7.9822365,15.20205 -7.544266,6.07534 -20.4858925,9.21576 -37.4883985,9.09697 -2.692136,-0.0188 -6.144949,-0.13421 -7.672917,-0.25644 z"
           id="path885"
           inkscape:connector-curvature="0" />
        <path
           style="fill:#957213;stroke-width:0.26458335"
           d="m -42.80408,283.25401 c -18.800568,-1.50397 -31.168546,-8.09528 -35.585104,-18.9645 -0.84396,-2.077 -1.456565,-4.94469 -1.456565,-6.81839 0,-1.27677 0.06125,-1.43791 0.546561,-1.43791 1.490172,0 2.501385,-1.50707 2.287061,-3.40855 -0.150362,-1.334 -1.091056,-2.40702 -2.120772,-2.41908 -0.404444,-0.005 -1.664099,-1.18274 -4.152433,-3.88328 -1.964532,-2.13206 -5.317588,-5.75586 -7.451237,-8.05288 -3.906032,-4.20511 -4.454042,-5.06591 -4.0452,-6.35406 0.171629,-0.54075 4.081863,-8.00366 9.266846,-17.68631 1.207841,-2.25558 2.603041,-4.49459 3.100443,-4.97559 0.667422,-0.64542 5.021714,-2.74255 16.619364,-8.00429 8.643247,-3.92136 16.727025,-7.59701 17.963952,-8.16813 11.627565,-5.36869 13.013069,-5.91498 14.365706,-5.66434 0.715045,0.13251 7.441462,3.03136 33.65617134,14.50463 12.00282866,5.25323 13.27032366,5.85121 14.21887866,6.70817 0.553405,0.49997 1.560346,1.93463 2.237639,3.18815 0.677297,1.2535 3.289692,6.0509 5.805324,10.66088 2.515632,4.60997 4.650896,8.68865 4.745032,9.06371 0.434663,1.73184 0.05897,2.28896 -5.770128,8.5565 -10.875802,11.69385 -9.852285,10.6951 -10.607623,10.35095 -0.9619272,-0.43829 -1.9677381,-0.0878 -2.5665484,0.89427 -1.001485,1.64252 -0.3414369,4.0514 1.2511591,4.56618 0.4658889,0.15059 0.8990093,0.32919 0.9624903,0.39688 0.06348,0.0677 0.01093,1.33825 -0.116771,2.82348 -0.5375062,6.25125 -3.2733351,11.48232 -7.9929305,15.28298 -7.544266,6.07534 -20.4858925,9.21576 -37.4883985,9.09697 -2.692136,-0.0188 -6.144949,-0.13421 -7.672917,-0.25644 z m 9.260417,-30.66038 c 0.391083,-0.39108 0.529166,-0.88194 0.529166,-1.88108 0,-1.30202 0.06104,-1.41419 1.653646,-3.03892 l 1.653646,-1.68701 2.669122,-0.56019 2.669125,-0.5602 1.09065,0.55641 c 0.599855,0.30602 1.279398,0.55641 1.510091,0.55641 0.633822,0 1.718304,-1.21571 1.718304,-1.92623 0,-0.73353 -0.90515,-1.64134 -1.860626,-1.86609 -0.568508,-0.13373 -0.778931,-0.49208 -1.389063,-2.36559 -0.859631,-2.63962 -0.876491,-3.09125 -0.189894,-5.08689 0.291042,-0.84592 0.529167,-1.82361 0.529167,-2.17264 0,-0.51446 0.274235,-0.75588 1.448596,-1.27524 1.103921,-0.4882 1.491327,-0.81089 1.628182,-1.35617 0.23127,-0.92145 -0.359547,-1.99074 -1.278522,-2.31392 -0.684654,-0.24078 -0.917308,-0.1458 -2.443747,0.99772 -0.18201,0.13635 -1.355244,-0.0125 -2.886075,-0.36629 l -2.579394,-0.59605 -1.713958,-1.96521 -1.713955,-1.96522 0.174199,-1.31318 c 0.214056,-1.61363 -0.302895,-2.35817 -1.63734,-2.35817 -1.191839,0 -2.035852,1.0601 -1.808572,2.27161 0.150944,0.8046 0.01431,1.01989 -1.913954,3.01591 l -2.076503,2.14945 -2.445716,0.43026 -2.445716,0.43025 -0.660984,-0.62096 c -1.270649,-1.19371 -3.311126,-0.51015 -3.311126,1.10923 0,0.53023 0.278111,1.02692 0.902965,1.61263 0.706313,0.66208 1.083236,1.41634 1.730705,3.46334 l 0.827742,2.61692 -0.524018,1.61641 c -0.945306,2.91593 -1.255009,3.45753 -2.247853,3.93098 -1.12654,0.53721 -1.488501,1.54477 -0.920348,2.56189 0.475123,0.85058 1.991855,1.05729 2.984672,0.40677 0.615178,-0.40308 0.808845,-0.40366 2.593499,-0.008 2.900154,0.64333 3.223618,0.83456 4.957633,2.93088 1.381192,1.66977 1.601254,2.08431 1.601254,3.0163 0,1.31596 0.712549,2.13882 1.852083,2.13882 0.440973,0 1.028935,-0.23518 1.322917,-0.52916 z"
           id="path883"
           inkscape:connector-curvature="0" />
        <path
           style="fill:#525358;stroke-width:0.26458335"
           d="m -42.80408,283.25401 c -18.800568,-1.50397 -31.168546,-8.09528 -35.585104,-18.9645 -0.795039,-1.9566 -1.456565,-4.91976 -1.456565,-6.52436 0,-1.08738 0.04365,-1.15207 0.883727,-1.30967 1.063084,-0.19943 1.851766,-1.00538 2.273519,-2.32327 0.640322,-2.00089 -0.635197,-4.17137 -2.465323,-4.1951 -0.714833,-0.009 -1.263126,-0.48799 -4.131506,-3.60724 -1.819011,-1.9781 -5.112865,-5.54211 -7.319676,-7.92002 -4.038123,-4.35122 -4.586419,-5.20377 -4.176761,-6.49449 0.171629,-0.54075 4.081863,-8.00366 9.266846,-17.68631 1.207841,-2.25558 2.603041,-4.49459 3.100443,-4.97559 0.667422,-0.64542 5.021714,-2.74255 16.619364,-8.00429 8.643247,-3.92136 16.727025,-7.59701 17.963952,-8.16813 11.627565,-5.36869 13.013069,-5.91498 14.365706,-5.66434 0.715045,0.13251 7.441462,3.03136 33.65617134,14.50463 12.00282866,5.25323 13.27032366,5.85121 14.21887866,6.70817 0.553405,0.49997 1.560346,1.93463 2.237639,3.18815 0.677297,1.2535 3.311414,6.0891 5.853595,10.74577 4.947224,9.06213 5.254508,9.86619 4.362722,11.41582 -0.65832,1.14395 -14.935444,16.37949 -15.281752,16.30761 -0.15322,-0.0318 -0.603805,-0.13456 -1.001297,-0.22835 -1.1279398,-0.26613 -1.9630363,0.0742 -2.5627224,1.04456 -0.655664,1.06089 -0.7217463,2.7742 -0.1496668,3.88048 0.401791,0.77698 1.5988718,1.57884 2.3570172,1.57884 0.291086,0 0.371927,0.20258 0.290361,0.72761 -0.06217,0.40018 -0.179242,1.59245 -0.260156,2.6495 -0.2879253,3.76133 -2.0501907,7.99313 -4.7729517,11.46146 -3.2475437,4.13682 -10.1995981,7.91495 -18.1636363,9.87112 -7.851048,1.92842 -20.438746,2.75663 -30.122824,1.98194 z m 8.699807,-29.89532 c 0.938252,-0.32707 1.733307,-1.57541 1.490533,-2.34033 -0.107987,-0.34024 0.24099,-0.96432 1.139214,-2.0373 2.005901,-2.39615 2.175068,-2.4982 5.001501,-3.0174 2.260034,-0.41516 2.66065,-0.42748 3.172658,-0.0976 0.869085,0.55995 2.192089,0.46983 2.902673,-0.19773 1.216088,-1.14245 0.586044,-3.24553 -1.127353,-3.76309 -0.421547,-0.12733 -0.7136,-0.71541 -1.257295,-2.53169 l -0.708199,-2.36584 0.926372,-2.59188 c 0.509506,-1.42553 1.049922,-2.63306 1.200923,-2.68339 0.151003,-0.0503 0.62734,-0.38837 1.058526,-0.75119 1.068957,-0.89947 1.110105,-2.43436 0.08683,-3.23926 -0.915527,-0.72015 -1.913451,-0.69373 -2.959992,0.0784 l -0.849521,0.62675 -2.144523,-0.49935 c -1.179486,-0.27464 -2.324737,-0.6002 -2.545003,-0.72347 -0.220266,-0.12327 -1.045387,-0.98427 -1.833605,-1.91334 -1.400585,-1.65087 -1.429255,-1.71767 -1.262801,-2.94206 0.156232,-1.14917 0.104318,-1.31884 -0.627358,-2.05052 -1.028573,-1.02857 -1.963495,-1.03621 -2.97541,-0.0243 -0.608316,0.60831 -0.773398,1.00966 -0.773398,1.88028 0,1.01293 -0.158411,1.27026 -1.866215,3.03152 l -1.866214,1.92464 -2.275391,0.4178 -2.27539,0.4178 -0.773486,-0.65084 c -1.556297,-1.30954 -3.643304,-0.39325 -3.643304,1.59957 0,0.74239 0.199202,1.13762 0.906192,1.79797 0.69886,0.65275 1.062077,1.36409 1.5875,3.10902 0.374719,1.24443 0.681308,2.46801 0.681308,2.71905 0,0.25104 -0.324017,1.41633 -0.720035,2.58953 -0.593878,1.75936 -0.860433,2.20563 -1.521354,2.54713 -1.061625,0.54853 -1.444181,1.09034 -1.454364,2.05978 -0.01868,1.77772 1.809692,2.76055 3.39421,1.82456 0.824497,-0.48705 1.425657,-0.43192 4.854498,0.44517 1.345459,0.34416 4.314585,3.89084 4.070705,4.86253 -0.29563,1.17788 0.417859,2.11141 2.11863,2.77199 0.01466,0.006 0.405236,-0.12162 0.867934,-0.28292 z"
           id="path881"
           inkscape:connector-curvature="0" />
        <path
           style="fill:#2a3248;stroke-width:0.26458335"
           d="m -42.274914,282.85045 c -8.573598,-0.79231 -14.59134,-2.07567 -19.818205,-4.22646 -7.133789,-2.93547 -12.339757,-7.3047 -15.001615,-12.59044 -1.026494,-2.03835 -2.070345,-5.46685 -2.339669,-7.68457 -0.181657,-1.49585 -0.172474,-1.52503 0.561886,-1.78578 1.189572,-0.42239 1.501855,-0.65582 2.15801,-1.61314 0.520358,-0.7592 0.592206,-1.10969 0.45593,-2.22414 -0.128884,-1.05398 -0.347794,-1.49772 -1.076836,-2.18281 -0.51746,-0.48626 -1.196207,-0.8599 -1.562097,-0.8599 -0.63244,0 -2.246129,-1.53494 -6.536705,-6.2177 -0.799998,-0.87313 -3.144085,-3.40411 -5.20908,-5.6244 -3.44224,-3.70112 -3.754515,-4.11926 -3.754259,-5.02709 2.2e-4,-0.78111 1.201383,-3.2492 5.688776,-11.689 3.128674,-5.88436 5.956283,-10.98607 6.283576,-11.33713 0.800858,-0.85904 0.935261,-0.92392 17.263829,-8.33407 7.858125,-3.56614 17.740313,-8.05968 21.960418,-9.98564 6.367065,-2.90578 7.898064,-3.50714 8.995833,-3.53346 1.192948,-0.0286 3.580744,0.95604 24.3047932,10.02245 17.6794883,7.73447 23.2191548,10.26782 24.0103088,10.98021 0.775004,0.69784 2.462991,3.56547 6.849899,11.63692 5.258033,9.67423 5.821461,10.83213 5.821461,11.96376 v 1.25288 l -7.445103,8.01228 c -4.094808,4.40676 -7.59881,8.10283 -7.786672,8.2135 -0.187865,0.11066 -0.642202,0.0642 -1.009642,-0.10319 -0.509384,-0.23209 -0.8532419,-0.22769 -1.4476099,0.0185 -1.215099,0.50331 -1.8067471,1.3396 -1.9922676,2.81604 -0.1427745,1.13626 -0.07465,1.48539 0.4388406,2.24896 0.3343169,0.49714 1.0501683,1.11318 1.5907782,1.36899 1.1419207,0.54034 1.1445217,0.55883 0.5929842,4.21776 -1.9571521,12.98387 -13.5214128,20.31955 -34.9319365,22.15873 -2.860638,0.24574 -14.760128,0.32099 -17.065626,0.10794 z m -7.805208,-29.4434 c 6.693958,-0.1748 12.361667,-0.41939 12.594908,-0.54354 0.281498,-0.14983 0.681797,-0.0558 1.190625,0.27962 0.987994,0.65133 1.978308,0.6442 2.823123,-0.0203 0.697042,-0.5483 1.250719,-0.68741 1.250719,-0.31426 0,0.11821 5.685235,0.37431 12.633855,0.56912 17.4794529,0.49006 25.9449849,0.59087 25.4661473,0.30329 -0.3504989,-0.21051 -1.6219462,-0.44187 -7.4083337,-1.34811 -1.7921818,-0.28069 -10.6571046,-1.01438 -16.0072926,-1.32482 -4.312576,-0.25023 -2.142895,-0.2277 16.1395843,0.16761 4.2201043,0.0913 7.6035247,0.0905 7.5187099,-0.002 -0.2446311,-0.26584 -9.1551712,-1.16392 -14.6624603,-1.47781 -7.1785429,-0.40915 -21.3349929,-0.81693 -22.0320799,-0.63463 -0.866077,0.22648 -0.727655,-0.27101 0.402391,-1.44618 0.923904,-0.9608 1.172639,-1.06393 3.614159,-1.49842 2.426009,-0.43174 2.676242,-0.43455 3.348114,-0.0377 0.895678,0.52908 1.385141,0.5384 2.340163,0.0445 1.762924,-0.91164 1.620195,-3.16428 -0.261313,-4.12416 -0.923274,-0.47102 -1.057746,-0.68996 -1.683245,-2.74065 l -0.679805,-2.22873 0.950722,-2.64694 c 0.819307,-2.28105 1.058612,-2.69162 1.731233,-2.97023 2.184641,-0.90498 1.530813,-4.21954 -0.832329,-4.21954 -0.635185,0 -1.136891,0.18308 -1.450094,0.52917 -0.522775,0.57766 -1.346282,0.66067 -2.778125,0.28004 -0.509323,-0.13539 -1.419548,-0.37407 -2.022721,-0.5304 -0.886789,-0.22984 -1.384017,-0.63545 -2.598037,-2.11934 -1.459415,-1.78384 -1.496348,-1.86854 -1.32194,-3.03157 0.16406,-1.09404 0.110749,-1.26514 -0.622755,-1.99864 -0.889678,-0.88968 -1.557859,-0.99332 -2.676041,-0.41509 -0.87094,0.45038 -1.077257,0.87645 -1.077257,2.22466 0,0.83811 -0.251505,1.25653 -1.727054,2.87325 -1.889178,2.06992 -1.799781,2.02013 -4.559917,2.53961 -1.877923,0.35344 -1.940378,0.34757 -2.763383,-0.25962 -1.0728,-0.79149 -2.101638,-0.78947 -3.026352,0.006 -1.115023,0.95911 -1.026419,2.36555 0.217075,3.44571 0.7786,0.67632 1.076577,1.25548 1.682211,3.2696 0.668718,2.22391 0.705302,2.55047 0.400158,3.57188 -0.712047,2.38343 -1.387885,3.90231 -1.736371,3.90231 -0.632663,0 -1.710094,1.15929 -1.874451,2.01687 -0.230563,1.20302 1.032561,2.58688 2.361192,2.58688 0.524727,0 1.171054,-0.20331 1.450602,-0.45629 0.477991,-0.43258 0.626518,-0.42782 2.857432,0.0916 1.977305,0.46042 2.515081,0.7045 3.366365,1.52786 0.557223,0.53895 1.13638,1.20587 1.287018,1.48205 0.248309,0.45525 0.198369,0.48704 -0.5348,0.3404 -0.926126,-0.18522 -14.345394,0.19454 -22.005976,0.62277 -5.574226,0.3116 -14.544495,1.20902 -14.794753,1.48013 -0.08481,0.0919 3.239075,0.0932 7.386419,0.003 12.393817,-0.26993 20.325282,-0.38772 18.91771,-0.28095 -0.727605,0.0552 -3.406511,0.22479 -5.953126,0.3769 -6.793503,0.40576 -13.139836,1.01734 -14.948959,1.44058 -0.873125,0.20427 -2.30963,0.44875 -3.192235,0.54329 -0.882602,0.0945 -1.775572,0.28386 -1.984374,0.4207 -0.437091,0.28646 7.039451,0.2067 25.284944,-0.26974 z m 17.594792,-2.75387 c 0,-0.63422 0.533797,-0.81415 1.008129,-0.33981 0.243181,0.24318 0.29872,0.42818 0.12854,0.42818 -0.164801,0 -0.487971,0.0723 -0.718154,0.1606 -0.270555,0.10382 -0.418515,0.0158 -0.418515,-0.24897 z m -5.552284,-0.44821 c 0.306337,-0.5724 0.789784,-0.47732 0.789784,0.15532 0,0.20969 -0.242314,0.38126 -0.538475,0.38126 -0.458967,0 -0.496075,-0.0792 -0.251309,-0.53658 z"
           id="path879"
           inkscape:connector-curvature="0" />
        <path
           style="fill:#252427;stroke-width:0.26458335"
           d="m -39.232205,282.86185 c -11.087344,-0.6548 -18.326567,-2.22423 -24.870835,-5.39191 -6.97924,-3.37821 -11.287992,-7.5162 -13.582394,-13.04413 -0.837725,-2.01833 -1.631148,-5.37456 -1.631148,-6.89984 0,-0.87079 0.05521,-0.92314 1.256771,-1.19151 3.123263,-0.69758 21.14114,-1.84548 32.447276,-2.06719 8.243605,-0.16165 8.707819,-0.197 8.832168,-0.67251 0.09234,-0.35311 0.258196,-0.44255 0.559496,-0.3017 0.552042,0.25806 2.156539,0.25806 2.708582,0 0.30135,-0.14087 0.467167,-0.0514 0.559586,0.30204 0.124351,0.47553 0.579998,0.5111 8.567584,0.66883 11.77211,0.23247 32.1446067,1.54484 33.7701036,2.17544 0.9666974,0.37502 0.3532082,5.23715 -1.1549857,9.1537 -3.6449504,9.46537 -15.0038601,15.36063 -32.5132449,16.87434 -3.429736,0.2965 -12.537917,0.53683 -14.948959,0.39444 z m 8.439375,-6.85259 c -0.02764,-5.89526 -0.336161,-10.79369 -1.058188,-16.80105 -0.47262,-3.93228 -0.595884,-4.49237 -0.993725,-4.51539 -0.953034,-0.0551 -5.071451,0.0685 -5.157793,0.15482 -0.28544,0.28544 -0.913169,5.44692 -1.479579,12.16578 -0.409601,4.85877 -0.643165,14.27301 -0.362498,14.61119 0.224449,0.27045 1.291657,0.33374 4.684869,0.27785 l 4.394206,-0.0724 z m -46.238182,-25.92917 c -0.09184,-0.23933 -0.0013,-0.39688 0.227972,-0.39688 0.229313,0 0.31981,0.15755 0.227971,0.39688 -0.08376,0.21828 -0.186349,0.39687 -0.227971,0.39687 -0.04162,0 -0.14421,-0.17859 -0.227972,-0.39687 z m 84.233184,0 c 0.1811576,-0.21828 0.5079709,-0.39688 0.7262522,-0.39688 0.3227785,0 0.3353806,0.0741 0.067498,0.39688 -0.1811576,0.21828 -0.507971,0.39687 -0.7262522,0.39687 -0.3227785,0 -0.3353806,-0.0741 -0.067498,-0.39687 z m -81.227087,-0.26458 c 0.181157,-0.21829 0.507971,-0.39688 0.726252,-0.39688 0.322778,0 0.33538,0.0741 0.0675,0.39688 -0.181158,0.21828 -0.507971,0.39687 -0.726252,0.39687 -0.322779,0 -0.335381,-0.0741 -0.0675,-0.39687 z m 79.2427119,0.13229 c 0.089937,-0.14552 0.3421142,-0.26459 0.5603955,-0.26459 0.2182812,0 0.3232917,0.11907 0.2333546,0.26459 -0.089937,0.14552 -0.3421142,0.26458 -0.5603955,0.26458 -0.2182813,0 -0.3232918,-0.11906 -0.2333546,-0.26458 z m 5.3105661,-0.15119 c -0.304006,-0.30401 -0.415774,-0.94882 -0.415774,-2.39865 0,-2.65046 -0.2626124,-3.11667 -1.6322175,-2.89766 -0.7723479,0.1235 -1.0013712,0.0855 -0.8602769,-0.14281 0.1416685,-0.22922 -0.096967,-0.26486 -0.906571,-0.1354 -0.7543932,0.12063 -1.0988517,0.0802 -1.0988517,-0.12902 0,-0.21128 -0.4474765,-0.25854 -1.4592671,-0.15411 -0.8709819,0.0899 -1.3980055,0.0515 -1.307301,-0.0953 0.083579,-0.13523 -0.1456928,-0.24588 -0.5094949,-0.24588 -0.3638021,0 -0.7386162,0.12484 -0.832919,0.27743 -0.1053994,0.17054 -0.289814,0.18468 -0.4786365,0.0367 -0.46029569,-0.36071 -2.2595339,-0.58 -2.434606,-0.29672 -0.084016,0.13594 -0.3313483,0.24716 -0.5496296,0.24716 -0.2321798,0 -0.3186827,-0.12652 -0.208452,-0.30488 0.1367896,-0.22133 -0.1127099,-0.25672 -0.910426,-0.12916 -0.7543933,0.12063 -1.0988517,0.0802 -1.0988517,-0.12902 0,-0.21118 -0.4467225,-0.25862 -1.4552084,-0.15453 -0.8261218,0.0853 -1.4552084,0.0441 -1.4552084,-0.0953 0,-0.33007 -0.9845861,-0.31426 -1.190625,0.0191 -0.089937,0.14552 -0.3421143,0.26458 -0.5603955,0.26458 -0.2322804,0 -0.3186959,-0.1265 -0.2083673,-0.30501 0.1380648,-0.2234 -0.2471764,-0.26551 -1.4397095,-0.15737 -0.944438,0.0856 -1.566053,0.0471 -1.480195,-0.0919 0.08141,-0.13172 -0.149635,-0.2395 -0.513438,-0.2395 -0.363802,0 -0.735041,0.11906 -0.824978,0.26458 -0.08994,0.14552 -0.342115,0.26459 -0.560396,0.26459 -0.218281,0 -0.323292,-0.11907 -0.233354,-0.26459 0.09976,-0.16141 -0.300728,-0.26458 -1.027105,-0.26458 -0.654844,0 -1.264208,0.11906 -1.354145,0.26458 -0.264682,0.42827 -0.927783,0.31241 -0.75714,-0.13229 0.246044,-0.64118 -0.872969,-0.48208 -1.344525,0.19117 -0.226531,0.32341 -0.411877,0.96852 -0.411877,1.43356 0,1.21226 -0.227658,1.64988 -1.090396,2.09602 -0.93545,0.48374 -0.961226,0.29694 -0.100229,-0.72629 1.097854,-1.30473 0.699717,-2.82652 -0.961163,-3.67383 -0.906275,-0.46235 -1.046147,-0.69142 -1.668981,-2.73338 l -0.679805,-2.22873 0.950722,-2.64694 c 0.819307,-2.28105 1.058612,-2.69162 1.731233,-2.97023 2.207953,-0.91455 1.52699,-4.21946 -0.869405,-4.21946 -0.598109,0 -1.106393,0.19035 -1.413018,0.52917 -0.522775,0.57766 -1.346282,0.66067 -2.778125,0.28004 -0.509323,-0.13539 -1.419548,-0.37407 -2.022721,-0.5304 -0.886789,-0.22984 -1.384017,-0.63545 -2.598037,-2.11934 -1.459415,-1.78384 -1.496348,-1.86854 -1.32194,-3.03157 0.16406,-1.09404 0.110749,-1.26514 -0.622755,-1.99864 -0.889678,-0.88968 -1.557859,-0.99332 -2.676041,-0.41509 -0.87094,0.45038 -1.077257,0.87645 -1.077257,2.22466 0,0.83811 -0.251505,1.25653 -1.727054,2.87325 -1.889178,2.06992 -1.799781,2.02013 -4.559917,2.53961 -1.877923,0.35344 -1.940378,0.34757 -2.763383,-0.25962 -1.0728,-0.79149 -2.101638,-0.78947 -3.026352,0.006 -1.115023,0.95911 -1.026419,2.36555 0.217075,3.44571 0.7786,0.67632 1.076577,1.25548 1.682211,3.2696 0.668718,2.22391 0.705302,2.55047 0.400158,3.57188 -0.744098,2.49073 -1.384898,3.90232 -1.771475,3.90232 -0.641271,0 -1.945013,1.48023 -1.945013,2.20831 0,0.36383 0.297656,1.01525 0.661458,1.44761 0.750543,0.89197 0.810802,1.10658 0.310703,1.10658 -0.565788,0 -1.501328,-1.16927 -1.501328,-1.87641 0,-1.18934 -0.69291,-1.82776 -1.983764,-1.82776 -0.638003,0 -1.233591,0.11907 -1.323528,0.26459 -0.08994,0.14552 -0.342114,0.26458 -0.560395,0.26458 -0.218282,0 -0.323292,-0.11906 -0.233355,-0.26458 0.09236,-0.14944 -0.124338,-0.26459 -0.497938,-0.26459 -0.363802,0 -0.735042,0.11907 -0.824979,0.26459 -0.08994,0.14552 -0.342114,0.26458 -0.560395,0.26458 -0.218281,0 -0.332481,-0.10419 -0.253775,-0.23154 0.182464,-0.29524 -2.275999,-0.047 -2.612184,0.26378 -0.346348,0.32015 -1.008422,0.2937 -0.806979,-0.0322 0.09236,-0.14944 -0.124339,-0.26458 -0.497938,-0.26458 -0.363802,0 -0.728062,0.10776 -0.809467,0.23948 -0.0814,0.13172 -0.846007,0.17619 -1.699114,0.0988 -1.00743,-0.0914 -1.615668,-0.0362 -1.735304,0.15739 -0.101309,0.16392 -0.362792,0.29804 -0.581073,0.29804 -0.218281,0 -0.323292,-0.11907 -0.233355,-0.26459 0.251582,-0.40706 -0.760343,-0.31341 -1.338492,0.12388 -0.600221,0.45398 -1.285841,0.53403 -1.030119,0.12026 0.201547,-0.32611 -2.091205,-0.0687 -2.839516,0.31885 -0.588018,0.3045 -0.814086,0.29202 -0.612706,-0.0338 0.09236,-0.14944 -0.124338,-0.26458 -0.497938,-0.26458 -0.363802,0 -0.7352,0.11932 -0.825333,0.26515 -0.09019,0.14594 -0.602801,0.19846 -1.140095,0.1168 -0.54672,-0.0831 -1.528938,0.0216 -2.232511,0.23798 -0.690962,0.21248 -1.189951,0.27898 -1.108865,0.14778 0.283428,-0.4586 -0.999425,-0.23378 -1.761186,0.30864 -0.721679,0.51388 -0.768448,0.6588 -0.768448,2.38125 0,1.29252 -0.09765,1.83315 -0.330729,1.83096 -0.181901,-0.002 -1.451292,-1.2221 -2.820869,-2.71198 -1.369577,-1.48988 -4.405671,-4.77572 -6.746875,-7.30185 -4.39928,-4.74679 -4.892959,-5.37381 -4.908818,-6.23468 -0.0078,-0.42496 7.230701,-14.16112 10.896488,-20.67768 1.279072,-2.27376 1.686492,-2.50298 11.980595,-6.74028 4.872181,-2.0055 9.379462,-3.95246 12.964584,-5.60015 1.60073,-0.73568 4.041511,-1.78925 5.423959,-2.34125 1.382448,-0.55201 4.001823,-1.71091 5.820834,-2.57534 1.81901,-0.86443 3.604948,-1.65921 3.96875,-1.76617 0.363802,-0.10697 2.417641,-1.02278 4.564089,-2.03513 3.593452,-1.69482 3.996955,-1.82649 5.093229,-1.6621 0.992926,0.1489 1.190599,0.10766 1.190599,-0.24837 0,-0.56805 0.02278,-0.56349 2.34795,0.46926 1.10972,0.49289 2.970175,1.31343 4.134342,1.82341 1.164167,0.50998 4.557448,1.99908 7.540625,3.30911 2.983178,1.31003 8.221928,3.60109 11.6416677,5.09125 13.1645878,5.73649 15.0275694,6.55183 17.5508293,7.68118 1.431028,0.6405 2.995711,1.54704 3.477072,2.01453 0.481362,0.46749 1.535158,2.07717 2.341767,3.57706 0.806608,1.49989 3.438879,6.29696 5.849488,10.66016 4.465291,8.08216 4.761233,8.82166 4.042823,10.10224 -0.408022,0.72731 -15.032171,16.4928 -15.298805,16.4928 -0.109061,0 -0.385392,-0.1871 -0.614066,-0.41577 z m -82.172028,-0.24569 c 0.181157,-0.21828 0.507971,-0.39687 0.726252,-0.39687 0.322778,0 0.335381,0.0741 0.0675,0.39687 -0.181158,0.21828 -0.507971,0.39688 -0.726252,0.39688 -0.322779,0 -0.335381,-0.0741 -0.0675,-0.39688 z m 72.10574825,0.14327 c -0.0949405,-0.15361 0.0186531,-0.3527 0.25243897,-0.44241 0.58205428,-0.22335 0.76312188,0.0221 0.29988938,0.40658 -0.26076544,0.21642 -0.43378443,0.22764 -0.55232835,0.0358 z m 1.97517025,-0.14035 c 0.1798294,-0.21668 0.4344749,-0.32752 0.5658803,-0.24631 0.3377327,0.20873 0.014764,0.64027 -0.4791816,0.64027 -0.3363357,0 -0.3525415,-0.0736 -0.086699,-0.39396 z m -70.6413355,-0.2675 c 0.181158,-0.21828 0.507971,-0.39688 0.726252,-0.39688 0.322779,0 0.335381,0.0741 0.0675,0.39688 -0.181157,0.21828 -0.507971,0.39687 -0.726252,0.39687 -0.322778,0 -0.33538,-0.0741 -0.0675,-0.39687 z m 65.6166702,0 c 0.1811576,-0.21828 0.5079709,-0.39688 0.7262522,-0.39688 0.3227784,0 0.3353805,0.0741 0.067498,0.39688 -0.1811575,0.21828 -0.5079709,0.39687 -0.7262521,0.39687 -0.3227785,0 -0.3353806,-0.0741 -0.067498,-0.39687 z m -63.2354202,-0.26458 c 0.181158,-0.21829 0.507971,-0.39688 0.726253,-0.39688 0.322778,0 0.33538,0.0741 0.0675,0.39688 -0.181157,0.21828 -0.50797,0.39687 -0.726252,0.39687 -0.322778,0 -0.33538,-0.0741 -0.0675,-0.39687 z m 3.22416,0.1171 c 0.06071,-0.18213 0.378177,-0.43021 0.705483,-0.55129 0.723624,-0.26769 0.525449,0.1646 -0.270825,0.59075 -0.419354,0.22443 -0.519589,0.21533 -0.434658,-0.0395 z m 58.0268851,0.0152 c 0.089937,-0.14552 0.3421142,-0.26459 0.5603955,-0.26459 0.2182812,0 0.3232917,0.11907 0.2333545,0.26459 -0.089937,0.14552 -0.3421142,0.26458 -0.5603954,0.26458 -0.2182813,0 -0.3232918,-0.11906 -0.2333546,-0.26458 z m -55.6947941,-0.39688 c 0.181157,-0.21828 0.507971,-0.39687 0.726252,-0.39687 0.322778,0 0.33538,0.0741 0.0675,0.39687 -0.181158,0.21828 -0.507971,0.39688 -0.726252,0.39688 -0.322779,0 -0.335381,-0.0741 -0.0675,-0.39688 z m 50.8000022,0 c 0.1811576,-0.21828 0.5079709,-0.39687 0.7262522,-0.39687 0.3227784,0 0.3353805,0.0741 0.067498,0.39687 -0.1811575,0.21828 -0.5079709,0.39688 -0.7262521,0.39688 -0.3227785,0 -0.3353806,-0.0741 -0.067498,-0.39688 z m 1.9843751,0.13229 c 0.089937,-0.14552 0.3421142,-0.26458 0.5603955,-0.26458 0.2182812,0 0.3232917,0.11906 0.2333545,0.26458 -0.089937,0.14552 -0.3421142,0.26459 -0.5603954,0.26459 -0.2182813,0 -0.3232918,-0.11907 -0.2333546,-0.26459 z m -49.2280783,-0.40528 c 0.66848,-0.50562 1.099195,-0.50027 0.677034,0.008 -0.181157,0.21828 -0.523158,0.39309 -0.76,0.38846 -0.36177,-0.007 -0.348506,-0.0705 0.08297,-0.39687 z m 1.999951,0.008 c 0.181158,-0.21828 0.507971,-0.39688 0.726252,-0.39688 0.322779,0 0.335381,0.0741 0.0675,0.39688 -0.181158,0.21828 -0.507971,0.39687 -0.726252,0.39687 -0.322779,0 -0.335381,-0.0741 -0.0675,-0.39687 z m 3.232724,0.0914 c 0.056,-0.168 0.386099,-0.41062 0.733552,-0.53915 0.621358,-0.22986 0.623719,-0.22484 0.143804,0.30546 -0.531056,0.58681 -1.040276,0.72245 -0.877356,0.23369 z m 20.861164,-0.51188 c 0.297895,-0.41836 0.780868,-0.92822 1.073277,-1.13303 0.626618,-0.4389 1.670169,-0.28128 1.267362,0.19143 -0.142353,0.16705 -0.406778,0.51864 -0.587613,0.7813 -0.180835,0.26266 -0.771109,0.57732 -1.311719,0.69925 l -0.98293,0.22169 z m 12.94778,0.42047 c 0.181158,-0.21828 0.507971,-0.39688 0.726253,-0.39688 0.322778,0 0.33538,0.0741 0.0675,0.39688 -0.181157,0.21828 -0.50797,0.39687 -0.726252,0.39687 -0.322778,0 -0.33538,-0.0741 -0.0675,-0.39687 z m 3.175001,0 c 0.181157,-0.21828 0.507971,-0.39688 0.726252,-0.39688 0.322778,0 0.33538,0.0741 0.0675,0.39688 -0.181158,0.21828 -0.507971,0.39687 -0.726253,0.39687 -0.322778,0 -0.33538,-0.0741 -0.0675,-0.39687 z m 1.984375,0.13229 c 0.08994,-0.14552 0.342114,-0.26458 0.560395,-0.26458 0.218281,0 0.323292,0.11906 0.233355,0.26458 -0.08994,0.14552 -0.342114,0.26458 -0.560396,0.26458 -0.218281,0 -0.323291,-0.11906 -0.233354,-0.26458 z m -36.644794,-0.39687 c 0.181158,-0.21829 0.507971,-0.39688 0.726252,-0.39688 0.322779,0 0.335381,0.0741 0.0675,0.39688 -0.181157,0.21828 -0.507971,0.39687 -0.726252,0.39687 -0.322778,0 -0.33538,-0.0741 -0.0675,-0.39687 z m 3.175,0 c 0.181158,-0.21829 0.507971,-0.39688 0.726253,-0.39688 0.322778,0 0.33538,0.0741 0.0675,0.39688 -0.181157,0.21828 -0.50797,0.39687 -0.726252,0.39687 -0.322778,0 -0.33538,-0.0741 -0.0675,-0.39687 z m 2.116667,0 c 0.181158,-0.21829 0.507971,-0.39688 0.726252,-0.39688 0.322779,0 0.335381,0.0741 0.0675,0.39688 -0.181157,0.21828 -0.507971,0.39687 -0.726252,0.39687 -0.322778,0 -0.335381,-0.0741 -0.0675,-0.39687 z m 3.245813,-0.58598 c 0.07831,-1.1059 0.400733,-1.09456 1.513182,0.0532 l 0.894048,0.92242 -1.234355,-0.0537 c -1.221513,-0.0532 -1.233713,-0.0627 -1.172875,-0.92189 z m 12.629188,0.58598 c 0.181158,-0.21829 0.507971,-0.39688 0.726252,-0.39688 0.322779,0 0.335381,0.0741 0.0675,0.39688 -0.181158,0.21828 -0.507971,0.39687 -0.726252,0.39687 -0.322779,0 -0.335381,-0.0741 -0.0675,-0.39687 z m 3.175,0 c 0.181158,-0.21829 0.507971,-0.39688 0.726252,-0.39688 0.322779,0 0.335381,0.0741 0.0675,0.39688 -0.181157,0.21828 -0.507971,0.39687 -0.726252,0.39687 -0.322778,0 -0.335381,-0.0741 -0.0675,-0.39687 z m 2.116667,0 c 0.181157,-0.21829 0.507971,-0.39688 0.726252,-0.39688 0.322779,0 0.335381,0.0741 0.0675,0.39688 -0.181158,0.21828 -0.507971,0.39687 -0.726252,0.39687 -0.322779,0 -0.335381,-0.0741 -0.0675,-0.39687 z m 3.02297,0.16423 c 0.07908,-0.12796 0.390568,-0.29719 0.692195,-0.37607 0.450282,-0.11775 0.492565,-0.0761 0.23631,0.23265 -0.334544,0.4031 -1.168619,0.53193 -0.928505,0.14342 z m -24.503831,-2.85852 c 0.190995,-0.0764 0.419198,-0.067 0.507119,0.0209 0.08792,0.0879 -0.06835,0.15045 -0.347265,0.13896 -0.308227,-0.0127 -0.37092,-0.0754 -0.159854,-0.15985 z"
           id="path877"
           inkscape:connector-curvature="0" />
        <path
           style="fill:#192035;stroke-width:0.26458335"
           d="m -48.904282,254.46546 c 0.210148,-0.13571 2.936631,-0.25919 6.058852,-0.27439 3.122219,-0.0152 5.804229,-0.10641 5.960021,-0.2027 0.396018,-0.24475 3.892513,-0.25092 4.043183,-0.007 0.06795,0.10994 1.515501,0.21833 3.216783,0.24086 l 3.093238,0.041 -2.248958,0.18622 c -3.503859,0.29013 -20.568567,0.30385 -20.123119,0.0162 z m -28.12673,-4.38537 c -0.09184,-0.23933 -0.0013,-0.39688 0.227972,-0.39688 0.229313,0 0.31981,0.15755 0.227971,0.39688 -0.08376,0.21828 -0.186349,0.39687 -0.227971,0.39687 -0.04162,0 -0.14421,-0.17859 -0.227972,-0.39687 z m 84.233184,0 c 0.1811576,-0.21828 0.5079709,-0.39688 0.7262522,-0.39688 0.3227785,0 0.3353806,0.0741 0.067498,0.39688 -0.1811576,0.21828 -0.507971,0.39687 -0.7262522,0.39687 -0.3227785,0 -0.3353806,-0.0741 -0.067498,-0.39687 z m -81.227087,-0.26458 c 0.181157,-0.21829 0.507971,-0.39688 0.726252,-0.39688 0.322778,0 0.33538,0.0741 0.0675,0.39688 -0.181158,0.21828 -0.507971,0.39687 -0.726252,0.39687 -0.322779,0 -0.335381,-0.0741 -0.0675,-0.39687 z m 79.2427119,0.13229 c 0.089937,-0.14552 0.3421142,-0.26459 0.5603955,-0.26459 0.2182812,0 0.3232917,0.11907 0.2333546,0.26459 -0.089937,0.14552 -0.3421142,0.26458 -0.5603955,0.26458 -0.2182813,0 -0.3232918,-0.11906 -0.2333546,-0.26458 z m -76.8614619,-0.39688 c 0.181157,-0.21828 0.507971,-0.39687 0.726252,-0.39687 0.322778,0 0.335381,0.0741 0.0675,0.39687 -0.181158,0.21828 -0.507971,0.39688 -0.726252,0.39688 -0.322779,0 -0.335381,-0.0741 -0.0675,-0.39688 z m 72.10574825,0.14327 c -0.0949405,-0.15361 0.0186531,-0.3527 0.25243897,-0.44241 0.58205428,-0.22335 0.76312188,0.0221 0.29988938,0.40658 -0.26076544,0.21642 -0.43378443,0.22764 -0.55232835,0.0358 z m 1.97517025,-0.14035 c 0.1798294,-0.21668 0.4344749,-0.32752 0.5658803,-0.24631 0.3377327,0.20873 0.014764,0.64027 -0.4791816,0.64027 -0.3363357,0 -0.3525415,-0.0736 -0.086699,-0.39396 z m 8.2706475,0.12113 c -0.544131,-0.21872 -0.595312,-0.41212 -0.595312,-2.24958 0,-2.67851 -0.2600327,-3.14451 -1.6322175,-2.92509 -0.7723479,0.1235 -1.0013712,0.0855 -0.8602769,-0.14281 0.1416685,-0.22922 -0.096967,-0.26486 -0.906571,-0.1354 -0.7543932,0.12063 -1.0988517,0.0802 -1.0988517,-0.12902 0,-0.21128 -0.4474765,-0.25854 -1.4592671,-0.15411 -0.8709819,0.0899 -1.3980055,0.0515 -1.307301,-0.0953 0.083579,-0.13523 -0.1456928,-0.24588 -0.5094949,-0.24588 -0.3638021,0 -0.7386162,0.12484 -0.832919,0.27743 -0.1053994,0.17054 -0.289814,0.18468 -0.4786365,0.0367 -0.46029569,-0.36071 -2.2595339,-0.58 -2.434606,-0.29672 -0.084016,0.13594 -0.3313483,0.24716 -0.5496296,0.24716 -0.2321798,0 -0.3186827,-0.12652 -0.208452,-0.30488 0.1367896,-0.22133 -0.1127099,-0.25672 -0.910426,-0.12916 -0.7543933,0.12063 -1.0988517,0.0802 -1.0988517,-0.12902 0,-0.21118 -0.4467225,-0.25862 -1.4552084,-0.15453 -0.8261218,0.0853 -1.4552084,0.0441 -1.4552084,-0.0953 0,-0.33007 -0.9845861,-0.31426 -1.190625,0.0191 -0.089937,0.14552 -0.3421143,0.26458 -0.5603955,0.26458 -0.2322804,0 -0.3186959,-0.1265 -0.2083673,-0.30501 0.1380648,-0.2234 -0.2471764,-0.26551 -1.4397095,-0.15737 -0.944438,0.0856 -1.566053,0.0471 -1.480195,-0.0919 0.08141,-0.13172 -0.149635,-0.2395 -0.513438,-0.2395 -0.363802,0 -0.735041,0.11906 -0.824978,0.26458 -0.08994,0.14552 -0.342115,0.26459 -0.560396,0.26459 -0.218281,0 -0.323292,-0.11907 -0.233354,-0.26459 0.09976,-0.16141 -0.300728,-0.26458 -1.027105,-0.26458 -0.654844,0 -1.264208,0.11906 -1.354145,0.26458 -0.264682,0.42827 -0.927783,0.31241 -0.75714,-0.13229 0.246044,-0.64118 -0.872969,-0.48208 -1.344525,0.19117 -0.226531,0.32341 -0.411877,0.96852 -0.411877,1.43356 0,1.2313 -0.229246,1.65177 -1.156542,2.1213 l -0.827833,0.41917 0.787736,-0.83692 c 1.372711,-1.45843 0.972939,-3.42166 -0.881653,-4.32968 -0.481251,-0.23562 -0.821484,-0.81239 -1.273572,-2.15899 -0.339288,-1.0106 -0.616886,-2.07987 -0.616886,-2.37614 0,-0.29627 0.363312,-1.55434 0.80736,-2.79571 0.630306,-1.76206 0.973468,-2.35236 1.564801,-2.69174 1.917714,-1.10062 2.054911,-3.20009 0.286782,-4.38846 -1.050192,-0.70584 -2.153536,-0.6155 -3.100996,0.2539 -0.5212,0.47826 -0.70481,0.49921 -1.984375,0.22649 -3.156067,-0.67268 -3.273637,-0.73638 -4.797126,-2.59929 -1.403189,-1.71581 -1.453008,-1.83027 -1.317731,-3.02737 0.127127,-1.125 0.06338,-1.32135 -0.665795,-2.05052 -1.080246,-1.08024 -2.360478,-1.10154 -3.527632,-0.0587 -0.699889,0.62535 -0.843798,0.95465 -0.87952,2.01253 -0.04043,1.19739 -0.14066,1.35986 -1.879343,3.04629 -1.806716,1.75243 -1.869509,1.78668 -3.854768,2.10252 -1.985767,0.31592 -2.034432,0.31 -3.034371,-0.36857 -1.080509,-0.73326 -1.792105,-0.72559 -2.96295,0.0319 -1.41074,0.91272 -1.38983,3.09998 0.04006,4.19061 0.712753,0.54365 0.993592,1.08661 1.586502,3.0673 l 0.72044,2.40672 -0.737648,2.26522 c -0.643155,1.97504 -0.846662,2.3172 -1.588635,2.67104 -1.009534,0.48143 -1.781977,1.92114 -1.542558,2.87507 0.09136,0.364 0.453509,0.94922 0.804778,1.30049 0.362788,0.36279 0.492355,0.63867 0.299944,0.63867 -0.555709,0 -1.489302,-1.17626 -1.489302,-1.87641 0,-1.18934 -0.69291,-1.82776 -1.983764,-1.82776 -0.638003,0 -1.233591,0.11907 -1.323528,0.26459 -0.08994,0.14552 -0.342114,0.26458 -0.560395,0.26458 -0.218282,0 -0.323292,-0.11906 -0.233355,-0.26458 0.09236,-0.14944 -0.124338,-0.26459 -0.497938,-0.26459 -0.363802,0 -0.735042,0.11907 -0.824979,0.26459 -0.08994,0.14552 -0.342114,0.26458 -0.560395,0.26458 -0.218281,0 -0.332481,-0.10419 -0.253775,-0.23154 0.182464,-0.29524 -2.275999,-0.047 -2.612184,0.26378 -0.346348,0.32015 -1.008422,0.2937 -0.806979,-0.0322 0.09236,-0.14944 -0.124339,-0.26458 -0.497938,-0.26458 -0.363802,0 -0.728062,0.10776 -0.809467,0.23948 -0.0814,0.13172 -0.846007,0.17619 -1.699114,0.0988 -1.00743,-0.0914 -1.615668,-0.0362 -1.735304,0.15739 -0.101309,0.16392 -0.362792,0.29804 -0.581073,0.29804 -0.218281,0 -0.323292,-0.11907 -0.233355,-0.26459 0.251582,-0.40706 -0.760343,-0.31341 -1.338492,0.12388 -0.600221,0.45398 -1.285841,0.53403 -1.030119,0.12026 0.201547,-0.32611 -2.091205,-0.0687 -2.839516,0.31885 -0.588018,0.3045 -0.814086,0.29202 -0.612706,-0.0338 0.09236,-0.14944 -0.124338,-0.26458 -0.497938,-0.26458 -0.363802,0 -0.7352,0.11932 -0.825333,0.26515 -0.09019,0.14594 -0.602801,0.19846 -1.140095,0.1168 -0.54672,-0.0831 -1.528938,0.0216 -2.232511,0.23798 -0.690962,0.21248 -1.189951,0.27898 -1.108865,0.14778 0.283428,-0.4586 -0.999425,-0.23378 -1.761186,0.30864 -0.721679,0.51388 -0.768448,0.6588 -0.768448,2.38125 0,1.29252 -0.09765,1.83315 -0.330729,1.83096 -0.181901,-0.002 -1.451292,-1.2221 -2.820869,-2.71198 -1.369577,-1.48988 -4.405671,-4.77572 -6.746875,-7.30185 -4.39928,-4.74679 -4.892959,-5.37381 -4.908818,-6.23468 -0.0078,-0.42496 7.230701,-14.16112 10.896488,-20.67768 1.279072,-2.27376 1.686492,-2.50298 11.980595,-6.74028 4.872181,-2.0055 9.379462,-3.95246 12.964584,-5.60015 1.60073,-0.73568 4.041511,-1.78925 5.423959,-2.34125 1.382448,-0.55201 4.001823,-1.71091 5.820834,-2.57534 1.81901,-0.86443 3.604948,-1.65921 3.96875,-1.76617 0.363802,-0.10697 2.417641,-1.02278 4.564089,-2.03513 3.593452,-1.69482 3.996955,-1.82649 5.093229,-1.6621 0.992926,0.1489 1.190599,0.10766 1.190599,-0.24837 0,-0.57071 0.0132,-0.56789 2.480241,0.52899 1.182482,0.52575 3.042936,1.34628 4.134343,1.82341 1.091406,0.47713 4.425156,1.93935 7.408333,3.24938 2.983178,1.31003 8.221928,3.60109 11.6416677,5.09125 13.1645878,5.73649 15.0275694,6.55183 17.5508293,7.68118 1.431028,0.6405 2.995711,1.54704 3.477072,2.01453 0.481362,0.46749 1.535158,2.07717 2.341767,3.57706 0.806608,1.49989 3.438879,6.29696 5.849488,10.66016 4.465188,8.08197 4.76132,8.82193 4.042823,10.10189 -0.369274,0.65784 -14.779801,16.23719 -14.995529,16.2118 -0.07837,-0.009 -0.410382,-0.12445 -0.737804,-0.25606 z m -78.911983,-0.38863 c 0.181158,-0.21828 0.507971,-0.39688 0.726252,-0.39688 0.322779,0 0.335381,0.0741 0.0675,0.39688 -0.181157,0.21828 -0.507971,0.39687 -0.726252,0.39687 -0.322778,0 -0.33538,-0.0741 -0.0675,-0.39687 z m 65.6166702,0 c 0.1811576,-0.21828 0.5079709,-0.39688 0.7262522,-0.39688 0.3227784,0 0.3353805,0.0741 0.067498,0.39688 -0.1811575,0.21828 -0.5079709,0.39687 -0.7262521,0.39687 -0.3227785,0 -0.3353806,-0.0741 -0.067498,-0.39687 z m -63.2354202,-0.26458 c 0.181158,-0.21829 0.507971,-0.39688 0.726253,-0.39688 0.322778,0 0.33538,0.0741 0.0675,0.39688 -0.181157,0.21828 -0.50797,0.39687 -0.726252,0.39687 -0.322778,0 -0.33538,-0.0741 -0.0675,-0.39687 z m 3.22416,0.1171 c 0.06071,-0.18213 0.378177,-0.43021 0.705483,-0.55129 0.723624,-0.26769 0.525449,0.1646 -0.270825,0.59075 -0.419354,0.22443 -0.519589,0.21533 -0.434658,-0.0395 z m 58.0268851,0.0152 c 0.089937,-0.14552 0.3421142,-0.26459 0.5603955,-0.26459 0.2182812,0 0.3232917,0.11907 0.2333545,0.26459 -0.089937,0.14552 -0.3421142,0.26458 -0.5603954,0.26458 -0.2182813,0 -0.3232918,-0.11906 -0.2333546,-0.26458 z m -55.6947941,-0.39688 c 0.181157,-0.21828 0.507971,-0.39687 0.726252,-0.39687 0.322778,0 0.33538,0.0741 0.0675,0.39687 -0.181158,0.21828 -0.507971,0.39688 -0.726252,0.39688 -0.322779,0 -0.335381,-0.0741 -0.0675,-0.39688 z m 50.8000022,0 c 0.1811576,-0.21828 0.5079709,-0.39687 0.7262522,-0.39687 0.3227784,0 0.3353805,0.0741 0.067498,0.39687 -0.1811575,0.21828 -0.5079709,0.39688 -0.7262521,0.39688 -0.3227785,0 -0.3353806,-0.0741 -0.067498,-0.39688 z m 1.9843751,0.13229 c 0.089937,-0.14552 0.3421142,-0.26458 0.5603955,-0.26458 0.2182812,0 0.3232917,0.11906 0.2333545,0.26458 -0.089937,0.14552 -0.3421142,0.26459 -0.5603954,0.26459 -0.2182813,0 -0.3232918,-0.11907 -0.2333546,-0.26459 z m -49.2280783,-0.40528 c 0.66848,-0.50562 1.099195,-0.50027 0.677034,0.008 -0.181157,0.21828 -0.523158,0.39309 -0.76,0.38846 -0.36177,-0.007 -0.348506,-0.0705 0.08297,-0.39687 z m 1.999951,0.008 c 0.181158,-0.21828 0.507971,-0.39688 0.726252,-0.39688 0.322779,0 0.335381,0.0741 0.0675,0.39688 -0.181158,0.21828 -0.507971,0.39687 -0.726252,0.39687 -0.322779,0 -0.335381,-0.0741 -0.0675,-0.39687 z m 3.232724,0.0914 c 0.056,-0.168 0.386099,-0.41062 0.733552,-0.53915 0.621358,-0.22986 0.623719,-0.22484 0.143804,0.30546 -0.531056,0.58681 -1.040276,0.72245 -0.877356,0.23369 z m 33.808944,-0.0914 c 0.181158,-0.21828 0.507971,-0.39688 0.726253,-0.39688 0.322778,0 0.33538,0.0741 0.0675,0.39688 -0.181157,0.21828 -0.50797,0.39687 -0.726252,0.39687 -0.322778,0 -0.33538,-0.0741 -0.0675,-0.39687 z m 3.175001,0 c 0.181157,-0.21828 0.507971,-0.39688 0.726252,-0.39688 0.322778,0 0.33538,0.0741 0.0675,0.39688 -0.181158,0.21828 -0.507971,0.39687 -0.726253,0.39687 -0.322778,0 -0.33538,-0.0741 -0.0675,-0.39687 z m 1.984375,0.13229 c 0.08994,-0.14552 0.342114,-0.26458 0.560395,-0.26458 0.218281,0 0.323292,0.11906 0.233355,0.26458 -0.08994,0.14552 -0.342114,0.26458 -0.560396,0.26458 -0.218281,0 -0.323291,-0.11906 -0.233354,-0.26458 z m -36.644794,-0.39687 c 0.181158,-0.21829 0.507971,-0.39688 0.726252,-0.39688 0.322779,0 0.335381,0.0741 0.0675,0.39688 -0.181157,0.21828 -0.507971,0.39687 -0.726252,0.39687 -0.322778,0 -0.33538,-0.0741 -0.0675,-0.39687 z m 3.175,0 c 0.181158,-0.21829 0.507971,-0.39688 0.726253,-0.39688 0.322778,0 0.33538,0.0741 0.0675,0.39688 -0.181157,0.21828 -0.50797,0.39687 -0.726252,0.39687 -0.322778,0 -0.33538,-0.0741 -0.0675,-0.39687 z m 2.116667,0 c 0.181158,-0.21829 0.507971,-0.39688 0.726252,-0.39688 0.322779,0 0.335381,0.0741 0.0675,0.39688 -0.181157,0.21828 -0.507971,0.39687 -0.726252,0.39687 -0.322778,0 -0.335381,-0.0741 -0.0675,-0.39687 z m 3.245419,-0.58096 c 0.07319,-1.03287 0.190945,-1.06927 0.902433,-0.27894 0.949693,1.05493 0.944155,1.20624 -0.04312,1.17825 -0.873715,-0.0248 -0.917998,-0.0711 -0.859313,-0.89931 z m 10.777499,0.0518 c 0.493654,-0.50932 1.117017,-0.92604 1.385249,-0.92604 0.411716,0 0.434547,0.0648 0.146537,0.41584 -0.937344,1.14252 -1.315326,1.43624 -1.848273,1.43624 -0.538086,0 -0.514676,-0.0685 0.316487,-0.92604 z m 1.852083,0.52917 c 0.181158,-0.21829 0.507971,-0.39688 0.726252,-0.39688 0.322779,0 0.335381,0.0741 0.0675,0.39688 -0.181158,0.21828 -0.507971,0.39687 -0.726252,0.39687 -0.322779,0 -0.335381,-0.0741 -0.0675,-0.39687 z m 3.175,0 c 0.181158,-0.21829 0.507971,-0.39688 0.726252,-0.39688 0.322779,0 0.335381,0.0741 0.0675,0.39688 -0.181157,0.21828 -0.507971,0.39687 -0.726252,0.39687 -0.322778,0 -0.335381,-0.0741 -0.0675,-0.39687 z m 2.116667,0 c 0.181157,-0.21829 0.507971,-0.39688 0.726252,-0.39688 0.322779,0 0.335381,0.0741 0.0675,0.39688 -0.181158,0.21828 -0.507971,0.39687 -0.726252,0.39687 -0.322779,0 -0.335381,-0.0741 -0.0675,-0.39687 z m 3.02297,0.16423 c 0.07908,-0.12796 0.390568,-0.29719 0.692195,-0.37607 0.450282,-0.11775 0.492565,-0.0761 0.23631,0.23265 -0.334544,0.4031 -1.168619,0.53193 -0.928505,0.14342 z"
           id="path875"
           inkscape:connector-curvature="0" />
        <path
           style="fill:#0e152d;stroke-width:0.26458335"
           d="m -35.709939,254.00039 c 0.190994,-0.0764 0.419197,-0.067 0.507118,0.0209 0.08792,0.0879 -0.06835,0.15045 -0.347265,0.13896 -0.308227,-0.0127 -0.37092,-0.0754 -0.159853,-0.15985 z m 46.550132,-4.33837 c -0.391268,-0.22789 -0.463021,-0.67263 -0.463021,-2.86997 0,-1.76118 -0.106727,-2.68662 -0.330729,-2.86779 -0.5625836,-0.45503 -16.3355848,-1.69962 -26.33157,-2.07773 -2.826224,-0.1069 -4.983337,-0.30319 -5.19329,-0.47256 -0.403712,-0.32569 -1.481912,-3.40958 -1.481912,-4.2386 0,-0.29636 0.363312,-1.5545 0.80736,-2.79587 0.630306,-1.76206 0.973468,-2.35236 1.564801,-2.69174 1.924661,-1.10461 2.05499,-3.19914 0.273672,-4.39825 -1.073957,-0.72294 -2.139217,-0.64008 -3.075165,0.2392 -0.538758,0.50613 -0.703088,0.52678 -1.997096,0.25098 -3.156067,-0.67268 -3.273637,-0.73638 -4.797126,-2.59929 -1.403189,-1.71581 -1.453008,-1.83027 -1.317731,-3.02737 0.127127,-1.125 0.06338,-1.32135 -0.665795,-2.05052 -0.966436,-0.96644 -2.143342,-1.06264 -3.426775,-0.28011 -1.031534,0.62893 -1.123823,0.34274 -0.176162,-0.5463 0.563168,-0.52832 0.936408,-0.63536 2.116666,-0.60704 l 1.432933,0.0344 0.02186,-1.88647 c 0.04464,-3.85185 0.01095,-7.94586 -0.14042,-17.0656 l -0.155329,-9.35829 0.599964,0.13589 c 0.329981,0.0747 1.611995,0.57479 2.848923,1.11123 2.809518,1.21844 5.5186,2.38089 7.408333,3.17887 0.800365,0.33797 2.46724,1.05433 3.704167,1.59191 1.236927,0.53759 3.022865,1.2824 3.96875,1.65513 0.945886,0.37274 1.954644,0.83714 2.241685,1.03199 0.287039,0.19485 0.686737,0.35428 0.888215,0.35428 0.201477,0 1.0977189,0.33936 1.9916481,0.75412 0.8939293,0.41477 2.8754839,1.26128 4.4034527,1.88113 1.5279689,0.61985 3.2776083,1.35205 3.88808935,1.62712 0.61047845,0.27507 1.18339929,0.50013 1.2731539,0.50013 0.0897573,0 0.78089655,0.27745 1.53587195,0.61656 0.7549727,0.33912 2.2656457,0.97781 3.357052,1.41933 1.0914063,0.44151 3.0195548,1.23562 4.2847712,1.76468 1.2652188,0.52906 2.4054538,0.96193 2.5338568,0.96193 0.542276,0 2.740004,2.37345 3.613666,3.9026 0.519634,0.90951 1.342467,2.33826 1.828514,3.175 4.636794,7.98237 7.763675,13.56765 8.395878,14.99685 0.334663,0.75657 0.452641,1.42945 0.344993,1.96768 -0.119139,0.5957 -2.208234,3.01198 -7.688893,8.89311 -4.138919,4.44135 -7.547568,8.07156 -7.574775,8.06713 -0.02721,-0.004 -0.257828,-0.1294 -0.51249,-0.27773 z m -93.626209,-3.73976 c -1.36603,-1.49502 -4.477989,-4.88745 -6.915463,-7.53872 -3.816701,-4.15148 -4.431771,-4.93871 -4.431771,-5.6723 0,-0.59964 1.04804,-2.73689 3.540263,-7.2196 4.120165,-7.41086 8.020747,-14.0061 8.351424,-14.12088 0.284152,-0.0986 0.470551,0.7437 0.808151,3.65204 0.678297,5.84333 2.148792,11.21165 4.239783,15.47812 1.59789,3.26035 4.22973,6.44536 5.347573,6.47154 0.252487,0.006 1.681237,-0.39241 3.175001,-0.88517 1.49376,-0.49275 3.370776,-1.03794 4.17114,-1.21153 0.800365,-0.17358 2.41368,-0.54607 3.585144,-0.82774 1.171464,-0.28168 2.89787,-0.61868 3.836459,-0.7489 0.938588,-0.13021 2.480429,-0.36428 3.426314,-0.52015 0.945886,-0.15587 2.524554,-0.35484 3.508148,-0.44215 0.987944,-0.0877 1.95548,-0.32587 2.161754,-0.53214 0.40049,-0.40049 0.576109,-0.0453 1.608254,3.25293 0.425919,1.36101 0.421286,1.41577 -0.309671,3.66028 -0.671121,2.06078 -0.827764,2.31441 -1.638625,2.65321 -0.55576,0.23221 -1.864887,0.37801 -3.443941,0.38354 -3.196379,0.0112 -13.553515,0.63049 -19.480711,1.16482 -7.753278,0.69895 -8.054518,0.738 -8.339184,1.08101 -0.152986,0.18433 -0.328388,1.25539 -0.389782,2.38011 -0.06139,1.12473 -0.159988,2.09332 -0.219097,2.15243 -0.05911,0.0591 -1.225133,-1.11573 -2.591163,-2.61075 z M -49.808824,229.207 c -0.395272,-1.40584 0.550037,-2.75605 2.242243,-3.20267 0.606343,-0.16003 0.595321,-0.13236 -0.132291,0.33219 -1.156722,0.73851 -1.537375,1.29713 -1.72647,2.53365 -0.166084,1.08606 -0.17149,1.09081 -0.383482,0.33683 z m 5.845323,-2.00869 c 0.308206,-0.1245 1.141643,-0.29227 1.852084,-0.37283 1.252577,-0.14204 1.243616,-0.13503 -0.295788,0.23158 -1.781403,0.42424 -2.394641,0.4799 -1.556296,0.14125 z m 3.712536,-0.70022 c 0.167286,-0.0685 0.983567,-1.01163 1.81396,-2.09578 1.364863,-1.78195 1.982925,-2.3335 1.982925,-1.76956 0,0.32827 -3.547983,4.04061 -3.836459,4.01418 -0.145521,-0.0133 -0.127711,-0.0803 0.03957,-0.14884 z"
           id="path873"
           inkscape:connector-curvature="0" />
      </g>
    </g>
  </g>
</svg>
