<?xml version="1.0" encoding="UTF-8" standalone="no"?>
<!-- Created with Inkscape (http://www.inkscape.org/) -->

<svg
   xmlns:dc="http://purl.org/dc/elements/1.1/"
   xmlns:cc="http://creativecommons.org/ns#"
   xmlns:rdf="http://www.w3.org/1999/02/22-rdf-syntax-ns#"
   xmlns:svg="http://www.w3.org/2000/svg"
   xmlns="http://www.w3.org/2000/svg"
   xmlns:sodipodi="http://sodipodi.sourceforge.net/DTD/sodipodi-0.dtd"
   xmlns:inkscape="http://www.inkscape.org/namespaces/inkscape"
   width="60.155956mm"
   height="59.5648mm"
   viewBox="0 0 60.155956 59.5648"
   version="1.1"
   id="svg8"
   inkscape:version="0.92.4 (5da689c313, 2019-01-14)"
   sodipodi:docname="winter-hat.svg"
   inkscape:export-filename="C:\coding\bytecoin\src\assets\winter-hat.png"
   inkscape:export-xdpi="17"
   inkscape:export-ydpi="17">
  <defs
     id="defs2" />
  <sodipodi:namedview
     id="base"
     pagecolor="#ffffff"
     bordercolor="#666666"
     borderopacity="1.0"
     inkscape:pageopacity="0.0"
     inkscape:pageshadow="2"
     inkscape:zoom="1.4"
     inkscape:cx="119.49542"
     inkscape:cy="126.301"
     inkscape:document-units="mm"
     inkscape:current-layer="g826"
     showgrid="false"
     fit-margin-top="0"
     fit-margin-left="0"
     fit-margin-right="0"
     fit-margin-bottom="0"
     inkscape:window-width="1920"
     inkscape:window-height="1001"
     inkscape:window-x="-9"
     inkscape:window-y="-9"
     inkscape:window-maximized="1" />
  <metadata
     id="metadata5">
    <rdf:RDF>
      <cc:Work
         rdf:about="">
        <dc:format>image/svg+xml</dc:format>
        <dc:type
           rdf:resource="http://purl.org/dc/dcmitype/StillImage" />
        <dc:title></dc:title>
      </cc:Work>
    </rdf:RDF>
  </metadata>
  <g
     inkscape:label="Layer 1"
     inkscape:groupmode="layer"
     id="layer1"
     transform="translate(-82.105642,-121.93786)">
    <g
       id="g826"
       transform="translate(15.402531,3.5907738)">
      <path
         style="fill:#f7ae5f;stroke-width:0.26458332"
         d="m 70.038985,177.52504 c -4.394114,-1.52888 -4.468133,-13.3221 -0.09773,-15.57054 0.960606,-0.4942 0.960606,-0.4942 1.088759,-5.59816 0.300527,-11.96909 6.326836,-20.97211 16.612868,-24.81883 1.776753,-0.66446 1.861179,-0.88198 0.892693,-2.29995 -0.807162,-1.18177 -0.808993,-3.39052 -0.0035,-4.28052 0.252187,-0.27867 0.623091,-1.13051 0.824229,-1.89299 0.444943,-1.6867 1.466722,-2.81516 2.896739,-3.19919 0.588126,-0.15794 1.666342,-0.572 2.396034,-0.92013 1.686806,-0.80478 2.649251,-0.79826 4.204131,0.0285 0.684215,0.3638 1.481762,0.66146 1.772332,0.66146 1.47955,0 3.035,1.50728 3.5431,3.43337 0.20056,0.76028 0.57099,1.61033 0.82318,1.889 0.80544,0.89 0.80361,3.09875 -0.004,4.28052 -0.9417,1.37875 -0.87509,1.63183 0.57107,2.16988 10.59968,3.94357 16.63015,12.82803 16.93449,24.9489 0.12815,5.10396 0.12815,5.10396 1.08876,5.59816 2.46806,1.26974 2.94498,2.52665 2.94498,7.76135 0,5.44182 -0.62015,6.98359 -3.14833,7.82708 -1.2117,0.40427 -52.17603,0.38718 -53.340205,-0.0179 z"
         id="path840"
         inkscape:connector-curvature="0" />
      <path
         style="fill:#60b1ae;stroke-width:0.26458332"
         d="m 70.038985,177.34293 c -2.509089,-1.15802 -3.044511,-2.50277 -3.036897,-7.62737 0.0076,-5.12064 0.480455,-6.21237 3.371848,-7.785 0.798514,-0.43431 0.798514,-0.43431 0.921161,-5.55625 0.294571,-12.30176 6.401379,-21.11447 17.330868,-25.0101 1.032811,-0.36813 1.074309,-0.80675 0.198437,-2.09742 -0.89351,-1.31666 -0.907158,-3.11087 -0.03268,-4.29616 0.345828,-0.46875 0.705059,-1.32929 0.79829,-1.91233 0.237523,-1.48538 1.560756,-2.86634 2.938556,-3.06675 0.582083,-0.0847 1.524632,-0.46749 2.094552,-0.85072 1.37205,-0.92261 3.286475,-0.94563 4.238792,-0.051 0.357465,0.33582 1.215118,0.71052 1.918988,0.83837 1.60991,0.29244 2.90468,1.57784 3.15289,3.13008 0.0932,0.58304 0.45246,1.44358 0.79829,1.91233 0.87448,1.18529 0.86083,2.9795 -0.0327,4.29616 -0.8479,1.24945 -0.83381,1.68644 0.0662,2.05124 11.77213,4.77184 17.18406,12.49469 17.46576,24.92371 0.11908,5.25396 0.11908,5.25396 0.91808,5.68855 4.76998,2.59448 5.00207,13.25884 0.33543,15.41264 -1.64373,0.75863 -51.802105,0.75863 -53.445836,0 z m 5.263359,-3.62261 c 0.77434,-2.0179 0.08014,-8.31274 -0.916732,-8.31274 -1.116547,0 -1.303918,0.62734 -1.303918,4.36563 0,3.8925 1.332644,6.26121 2.22065,3.94711 z m 6.378308,-3.94711 c 0,-4.23334 0,-4.23334 -0.926042,-4.23334 -0.871377,0 -1.608342,6.51945 -0.935246,8.27351 0.850932,2.21749 1.861288,0.0244 1.861288,-4.04017 z m 6.35,0 c 0,-4.23334 0,-4.23334 -0.926042,-4.23334 -0.871377,0 -1.608342,6.51945 -0.935246,8.27351 0.850932,2.21749 1.861288,0.0244 1.861288,-4.04017 z m 6.429375,4.04812 c 0.442434,-0.44243 0.442434,-7.65381 0,-8.09625 -1.463369,-1.46336 -2.06375,-0.2857 -2.06375,4.04813 0,4.33382 0.600381,5.51149 2.06375,4.04812 z m 6.506903,-0.10101 c 0.20916,-0.54506 0.20916,-7.34916 0,-7.89422 -0.18974,-0.49445 -1.443185,-0.56098 -1.903153,-0.10102 -0.442434,0.44244 -0.442434,7.65382 0,8.09625 0.459968,0.45997 1.713413,0.39344 1.903153,-0.10101 z m 6.37831,-3.94711 c 0,-4.23334 0,-4.23334 -0.92605,-4.23334 -0.87137,0 -1.60834,6.51945 -0.93524,8.27351 0.85093,2.21749 1.86129,0.0244 1.86129,-4.04017 z m 6.35,0 c 0,-4.23334 0,-4.23334 -0.92605,-4.23334 -0.87137,0 -1.60834,6.51945 -0.93524,8.27351 0.85093,2.21749 1.86129,0.0244 1.86129,-4.04017 z m 6.47298,3.85385 c 0.98684,-1.84393 0.18788,-8.21948 -1.03003,-8.21948 -0.99687,0 -1.69107,6.29484 -0.91673,8.31274 0.23287,0.60686 1.6073,0.54102 1.94676,-0.0933 z"
         id="path838"
         inkscape:connector-curvature="0" />
      <path
         style="fill:#f0942d;stroke-width:0.26458332"
         d="m 70.038985,177.34293 c -2.509089,-1.15802 -3.044511,-2.50277 -3.036897,-7.62737 0.0076,-5.12064 0.480455,-6.21237 3.371848,-7.785 0.798514,-0.43431 0.798514,-0.43431 0.921161,-5.55625 0.294571,-12.30176 6.401379,-21.11447 17.330868,-25.0101 1.032811,-0.36813 1.074309,-0.80675 0.198437,-2.09742 -0.89351,-1.31666 -0.907158,-3.11087 -0.03268,-4.29616 0.345828,-0.46875 0.705059,-1.32929 0.79829,-1.91233 0.237523,-1.48538 1.560756,-2.86634 2.938556,-3.06675 0.582083,-0.0847 1.524632,-0.46749 2.094552,-0.85072 1.37205,-0.92261 3.286475,-0.94563 4.238792,-0.051 0.357465,0.33582 1.215118,0.71052 1.918988,0.83837 1.60991,0.29244 2.90468,1.57784 3.15289,3.13008 0.0932,0.58304 0.45246,1.44358 0.79829,1.91233 0.87448,1.18529 0.86083,2.9795 -0.0327,4.29616 -0.8479,1.24945 -0.83381,1.68644 0.0662,2.05124 11.77213,4.77184 17.18406,12.49469 17.46576,24.92371 0.11908,5.25396 0.11908,5.25396 0.91808,5.68855 4.76998,2.59448 5.00207,13.25884 0.33543,15.41264 -1.64373,0.75863 -51.802105,0.75863 -53.445836,0 z m 5.263359,-3.62261 c 0.77434,-2.0179 0.08014,-8.31274 -0.916732,-8.31274 -1.116547,0 -1.303918,0.62734 -1.303918,4.36563 0,3.8925 1.332644,6.26121 2.22065,3.94711 z m 6.378308,-3.94711 c 0,-4.23334 0,-4.23334 -0.926042,-4.23334 -0.871377,0 -1.608342,6.51945 -0.935246,8.27351 0.850932,2.21749 1.861288,0.0244 1.861288,-4.04017 z m 6.35,0 c 0,-4.23334 0,-4.23334 -0.926042,-4.23334 -0.871377,0 -1.608342,6.51945 -0.935246,8.27351 0.850932,2.21749 1.861288,0.0244 1.861288,-4.04017 z m 6.429375,4.04812 c 0.442434,-0.44243 0.442434,-7.65381 0,-8.09625 -1.463369,-1.46336 -2.06375,-0.2857 -2.06375,4.04813 0,4.33382 0.600381,5.51149 2.06375,4.04812 z m 6.506903,-0.10101 c 0.20916,-0.54506 0.20916,-7.34916 0,-7.89422 -0.18974,-0.49445 -1.443185,-0.56098 -1.903153,-0.10102 -0.442434,0.44244 -0.442434,7.65382 0,8.09625 0.459968,0.45997 1.713413,0.39344 1.903153,-0.10101 z m 6.37831,-3.94711 c 0,-4.23334 0,-4.23334 -0.92605,-4.23334 -0.87137,0 -1.60834,6.51945 -0.93524,8.27351 0.85093,2.21749 1.86129,0.0244 1.86129,-4.04017 z m 6.35,0 c 0,-4.23334 0,-4.23334 -0.92605,-4.23334 -0.87137,0 -1.60834,6.51945 -0.93524,8.27351 0.85093,2.21749 1.86129,0.0244 1.86129,-4.04017 z m 6.47298,3.85385 c 0.98684,-1.84393 0.18788,-8.21948 -1.03003,-8.21948 -0.99687,0 -1.69107,6.29484 -0.91673,8.31274 0.23287,0.60686 1.6073,0.54102 1.94676,-0.0933 z M 106.2869,159.05758 c 0,-1.22035 -18.964567,-1.52903 -19.137067,-0.31148 -0.202447,1.42891 -0.549144,1.38206 9.671195,1.30702 9.465872,-0.0695 9.465872,-0.0695 9.465872,-0.99554 z m -30.240754,-0.0661 c 0.323633,-0.25499 0.455796,-1.05781 0.577131,-3.50573 0.08656,-1.74625 0.231286,-3.55988 0.321624,-4.03029 0.192972,-1.00485 -0.96735,-1.76186 -1.645919,-1.07382 -0.836072,0.84775 -1.202778,8.20547 -0.431351,8.65479 0.602182,0.35074 0.680078,0.34777 1.178515,-0.045 z M 78.743211,146.604 c 1.961877,-3.86177 5.330669,-7.21551 9.013373,-8.9731 2.011683,-0.96009 2.659992,-2.65036 1.016553,-2.65036 -3.808614,0 -14.366248,11.2553 -12.223012,13.03073 0.903967,0.74883 1.191448,0.56436 2.193086,-1.40727 z"
         id="path836"
         inkscape:connector-curvature="0" />
      <path
         style="fill:#239088;stroke-width:0.26458332"
         d="m 70.038985,177.34293 c -2.509089,-1.15802 -3.044511,-2.50277 -3.036897,-7.62737 0.0076,-5.12064 0.480455,-6.21237 3.371848,-7.785 0.798514,-0.43431 0.798514,-0.43431 0.921161,-5.55625 0.294571,-12.30176 6.401379,-21.11447 17.330868,-25.0101 1.032811,-0.36813 1.074309,-0.80675 0.198437,-2.09742 -0.89351,-1.31666 -0.907158,-3.11087 -0.03268,-4.29616 0.345828,-0.46875 0.705059,-1.32929 0.79829,-1.91233 0.237523,-1.48538 1.560756,-2.86634 2.938556,-3.06675 0.582083,-0.0847 1.524632,-0.46749 2.094552,-0.85072 1.37205,-0.92261 3.286475,-0.94563 4.238792,-0.051 0.357465,0.33582 1.215118,0.71052 1.918988,0.83837 1.60991,0.29244 2.90468,1.57784 3.15289,3.13008 0.0932,0.58304 0.45246,1.44358 0.79829,1.91233 0.87448,1.18529 0.86083,2.9795 -0.0327,4.29616 -0.8479,1.24945 -0.83381,1.68644 0.0662,2.05124 11.77213,4.77184 17.18406,12.49469 17.46576,24.92371 0.11908,5.25396 0.11908,5.25396 0.91808,5.68855 4.76998,2.59448 5.00207,13.25884 0.33543,15.41264 -1.64373,0.75863 -51.802105,0.75863 -53.445836,0 z m 52.784375,-1.81544 c 1.52517,-0.76191 1.85126,-1.77551 1.85126,-5.75428 0,-5.98939 -0.30108,-6.2167 -8.23501,-6.2173 -4.52816,-3.4e-4 -5.51381,-0.068 -5.78708,-0.39729 -0.18116,-0.21828 -0.65741,-0.39687 -1.05834,-0.39687 -0.40092,0 -0.87717,0.17859 -1.05833,0.39687 -0.28696,0.34577 -2.68472,0.39693 -18.619376,0.39729 -22.762898,5.3e-4 -21.067301,-0.49989 -21.067301,6.2173 0,3.97877 0.326094,4.99237 1.851261,5.75428 1.429262,0.71399 50.693656,0.71399 52.122916,0 z M 106.2869,159.05758 c 0,-1.22035 -18.964567,-1.52903 -19.137067,-0.31148 -0.202447,1.42891 -0.549144,1.38206 9.671195,1.30702 9.465872,-0.0695 9.465872,-0.0695 9.465872,-0.99554 z m -30.240754,-0.0661 c 0.323633,-0.25499 0.455796,-1.05781 0.577131,-3.50573 0.08656,-1.74625 0.231286,-3.55988 0.321624,-4.03029 0.192972,-1.00485 -0.96735,-1.76186 -1.645919,-1.07382 -0.836072,0.84775 -1.202778,8.20547 -0.431351,8.65479 0.602182,0.35074 0.680078,0.34777 1.178515,-0.045 z M 78.743211,146.604 c 1.961877,-3.86177 5.330669,-7.21551 9.013373,-8.9731 2.011683,-0.96009 2.659992,-2.65036 1.016553,-2.65036 -3.808614,0 -14.366248,11.2553 -12.223012,13.03073 0.903967,0.74883 1.191448,0.56436 2.193086,-1.40727 z m 19.176243,-13.17789 c 0.272852,-0.27285 0.548537,-0.65342 0.612635,-0.84571 0.07768,-0.23305 0.508876,-0.32932 1.293193,-0.28872 1.736338,0.0899 2.241608,-0.38749 2.172498,-2.05252 -0.0307,-0.73922 0.0586,-1.34404 0.19844,-1.34404 1.34291,0 1.70212,-2.34225 0.49585,-3.23322 -0.73226,-0.54086 -0.8002,-0.70662 -0.6571,-1.6031 0.22587,-1.41502 -0.76808,-2.4421 -2.118224,-2.18881 -0.812387,0.1524 -1.017783,0.065 -1.802511,-0.76706 -1.111356,-1.17837 -1.59331,-1.17837 -2.704666,0 -0.784728,0.83206 -0.990124,0.91946 -1.802511,0.76706 -1.35014,-0.25329 -2.344091,0.77379 -2.118223,2.18881 0.143098,0.89648 0.07516,1.06224 -0.657104,1.6031 -1.211861,0.8951 -0.845775,3.23322 0.506235,3.23322 0.149513,0 0.239063,0.58706 0.205881,1.34969 -0.07259,1.66833 0.420392,2.13664 2.154675,2.04687 0.784317,-0.0406 1.215511,0.0557 1.293193,0.28872 0.222441,0.66732 1.112264,1.34181 1.770187,1.34181 0.363802,0 0.884701,-0.22325 1.157552,-0.4961 z"
         id="path834"
         inkscape:connector-curvature="0" />
      <path
         style="fill:#2c827d;stroke-width:0.26458332"
         d="m 70.038985,177.34293 c -2.509089,-1.15802 -3.044511,-2.50277 -3.036897,-7.62737 0.0076,-5.12064 0.480455,-6.21237 3.371848,-7.785 0.798514,-0.43431 0.798514,-0.43431 0.921161,-5.55625 0.294571,-12.30176 6.401379,-21.11447 17.330868,-25.0101 1.032811,-0.36813 1.074309,-0.80675 0.198437,-2.09742 -0.89351,-1.31666 -0.907158,-3.11087 -0.03268,-4.29616 0.345828,-0.46875 0.705059,-1.32929 0.79829,-1.91233 0.237523,-1.48538 1.560756,-2.86634 2.938556,-3.06675 0.582083,-0.0847 1.524632,-0.46749 2.094552,-0.85072 1.37205,-0.92261 3.286475,-0.94563 4.238792,-0.051 0.357465,0.33582 1.215118,0.71052 1.918988,0.83837 1.60991,0.29244 2.90468,1.57784 3.15289,3.13008 0.0932,0.58304 0.45246,1.44358 0.79829,1.91233 0.87448,1.18529 0.86083,2.9795 -0.0327,4.29616 -0.8479,1.24945 -0.83381,1.68644 0.0662,2.05124 11.77213,4.77184 17.18406,12.49469 17.46576,24.92371 0.11908,5.25396 0.11908,5.25396 0.91808,5.68855 4.76998,2.59448 5.00207,13.25884 0.33543,15.41264 -1.64373,0.75863 -51.802105,0.75863 -53.445836,0 z m 52.784375,-1.81544 c 1.52517,-0.76191 1.85126,-1.77551 1.85126,-5.75428 0,-5.98939 -0.30108,-6.2167 -8.23501,-6.2173 -4.52816,-3.4e-4 -5.51381,-0.068 -5.78708,-0.39729 -0.18116,-0.21828 -0.65741,-0.39687 -1.05834,-0.39687 -0.40092,0 -0.87717,0.17859 -1.05833,0.39687 -0.28696,0.34577 -2.68472,0.39693 -18.619376,0.39729 -22.762898,5.3e-4 -21.067301,-0.49989 -21.067301,6.2173 0,3.97877 0.326094,4.99237 1.851261,5.75428 1.429262,0.71399 50.693656,0.71399 52.122916,0 z m -12.26533,-13.95637 c 0.32263,-0.32263 1.26567,-0.39687 5.04101,-0.39687 4.84952,0 6.00851,-3.44716 3.82704,-11.38268 -2.33857,-8.50703 -12.68572,-18.39608 -16.52334,-15.7918 -0.52997,0.35964 -1.41007,0.73766 -1.95578,0.84004 -0.5457,0.10237 -1.3534,0.4438 -1.794876,0.75872 -1.130159,0.8062 -3.650205,0.8062 -4.780364,0 -0.441476,-0.31492 -1.249173,-0.65635 -1.794879,-0.75872 -0.545708,-0.10238 -1.425805,-0.4804 -1.955773,-0.84004 -3.883812,-2.63563 -14.112638,7.21516 -16.541023,15.92969 -2.941623,10.55634 -1.920072,11.24479 16.685479,11.24479 15.007976,0 17.533216,0.0548 17.826046,0.38681 0.44613,0.50582 1.46549,0.51104 1.96646,0.0101 z M 97.919454,133.42607 c 0.272852,-0.27285 0.548537,-0.65342 0.612635,-0.84571 0.07768,-0.23305 0.508876,-0.32932 1.293193,-0.28872 1.736338,0.0899 2.241608,-0.38749 2.172498,-2.05252 -0.0307,-0.73922 0.0586,-1.34404 0.19844,-1.34404 1.34291,0 1.70212,-2.34225 0.49585,-3.23322 -0.73226,-0.54086 -0.8002,-0.70662 -0.6571,-1.6031 0.22587,-1.41502 -0.76808,-2.4421 -2.118224,-2.18881 -0.812387,0.1524 -1.017783,0.065 -1.802511,-0.76706 -1.111356,-1.17837 -1.59331,-1.17837 -2.704666,0 -0.784728,0.83206 -0.990124,0.91946 -1.802511,0.76706 -1.35014,-0.25329 -2.344091,0.77379 -2.118223,2.18881 0.143098,0.89648 0.07516,1.06224 -0.657104,1.6031 -1.211861,0.8951 -0.845775,3.23322 0.506235,3.23322 0.149513,0 0.239063,0.58706 0.205881,1.34969 -0.07259,1.66833 0.420392,2.13664 2.154675,2.04687 0.784317,-0.0406 1.215511,0.0557 1.293193,0.28872 0.222441,0.66732 1.112264,1.34181 1.770187,1.34181 0.363802,0 0.884701,-0.22325 1.157552,-0.4961 z"
         id="path832"
         inkscape:connector-curvature="0" />
      <path
         style="fill:#a54c37;stroke-width:0.26458332"
         d="m 70.038985,177.34293 c -2.509089,-1.15802 -3.044511,-2.50277 -3.036897,-7.62737 0.0076,-5.12064 0.480455,-6.21237 3.371848,-7.785 0.798514,-0.43431 0.798514,-0.43431 0.921161,-5.55625 0.294571,-12.30176 6.401379,-21.11447 17.330868,-25.0101 1.032811,-0.36813 1.074309,-0.80675 0.198437,-2.09742 -0.89351,-1.31666 -0.907158,-3.11087 -0.03268,-4.29616 0.345828,-0.46875 0.705059,-1.32929 0.79829,-1.91233 0.237523,-1.48538 1.560756,-2.86634 2.938556,-3.06675 0.582083,-0.0847 1.524632,-0.46749 2.094552,-0.85072 1.37205,-0.92261 3.286475,-0.94563 4.238792,-0.051 0.357465,0.33582 1.215118,0.71052 1.918988,0.83837 1.60991,0.29244 2.90468,1.57784 3.15289,3.13008 0.0932,0.58304 0.45246,1.44358 0.79829,1.91233 0.87448,1.18529 0.86083,2.9795 -0.0327,4.29616 -0.8479,1.24945 -0.83381,1.68644 0.0662,2.05124 11.77213,4.77184 17.18406,12.49469 17.46576,24.92371 0.11908,5.25396 0.11908,5.25396 0.91808,5.68855 4.76998,2.59448 5.00207,13.25884 0.33543,15.41264 -1.64373,0.75863 -51.802105,0.75863 -53.445836,0 z m 52.784375,-1.81544 c 1.52517,-0.76191 1.85126,-1.77551 1.85126,-5.75428 0,-5.98939 -0.30108,-6.2167 -8.23501,-6.2173 -4.52816,-3.4e-4 -5.51381,-0.068 -5.78708,-0.39729 -0.18116,-0.21828 -0.65741,-0.39687 -1.05834,-0.39687 -0.40092,0 -0.87717,0.17859 -1.05833,0.39687 -0.28696,0.34577 -2.68472,0.39693 -18.619376,0.39729 -22.762898,5.3e-4 -21.067301,-0.49989 -21.067301,6.2173 0,3.97877 0.326094,4.99237 1.851261,5.75428 1.429262,0.71399 50.693656,0.71399 52.122916,0 z m -11.97858,-13.42085 c 0.17757,-0.3173 1.11026,-0.40412 4.97409,-0.46302 5.58943,-0.0852 6.71046,-4.92674 3.30275,-14.26408 -2.65219,-7.26716 -13.44312,-16.64069 -16.19216,-14.06531 -0.69403,0.65018 -1.83393,1.1371 -2.662,1.1371 -0.308571,0 -0.846191,0.26789 -1.194716,0.59532 -0.519565,0.4881 -0.935712,0.59531 -2.310842,0.59531 -1.37513,0 -1.791277,-0.10721 -2.310842,-0.59531 -0.348525,-0.32743 -0.886145,-0.59532 -1.194716,-0.59532 -0.828071,0 -1.967972,-0.48692 -2.661995,-1.1371 -3.750862,-3.5139 -15.800845,9.36506 -17.392672,18.58921 -1.682491,9.74952 -1.839831,9.66157 17.417687,9.73571 15.382756,0.0592 17.689586,0.11915 17.821536,0.46302 0.20397,0.53153 2.10694,0.53507 2.40388,0.004 z M 97.919454,133.42607 c 0.272852,-0.27285 0.548537,-0.65342 0.612635,-0.84571 0.07768,-0.23305 0.508876,-0.32932 1.293193,-0.28872 1.736338,0.0899 2.241608,-0.38749 2.172498,-2.05252 -0.0307,-0.73922 0.0586,-1.34404 0.19844,-1.34404 1.34291,0 1.70212,-2.34225 0.49585,-3.23322 -0.73226,-0.54086 -0.8002,-0.70662 -0.6571,-1.6031 0.22587,-1.41502 -0.76808,-2.4421 -2.118224,-2.18881 -0.812387,0.1524 -1.017783,0.065 -1.802511,-0.76706 -1.111356,-1.17837 -1.59331,-1.17837 -2.704666,0 -0.784728,0.83206 -0.990124,0.91946 -1.802511,0.76706 -1.35014,-0.25329 -2.344091,0.77379 -2.118223,2.18881 0.143098,0.89648 0.07516,1.06224 -0.657104,1.6031 -1.211861,0.8951 -0.845775,3.23322 0.506235,3.23322 0.149513,0 0.239063,0.58706 0.205881,1.34969 -0.07259,1.66833 0.420392,2.13664 2.154675,2.04687 0.784317,-0.0406 1.215511,0.0557 1.293193,0.28872 0.222441,0.66732 1.112264,1.34181 1.770187,1.34181 0.363802,0 0.884701,-0.22325 1.157552,-0.4961 z"
         id="path830"
         inkscape:connector-curvature="0" />
      <path
         style="fill:#6d2838;stroke-width:0.26458332"
         d="m 71.009368,177.65658 c -0.836829,-0.16365 -2.027487,-1.1384 -3.351633,-2.74386 -0.744729,-0.90296 -0.811127,-9.305 -0.08034,-10.1666 0.246854,-0.29104 0.663573,-0.79519 0.926042,-1.12035 0.262469,-0.32515 1.012998,-0.87021 1.667842,-1.21123 1.190625,-0.62005 1.190625,-0.62005 1.354626,-5.89111 0.395412,-12.70873 6.339792,-21.09893 17.76152,-25.06953 0.677589,-0.23555 0.577192,-1.4207 -0.198438,-2.34249 -0.480275,-0.57077 -0.661458,-1.09655 -0.661458,-1.9195 0,-0.77265 0.210536,-1.44364 0.661458,-2.10811 0.363802,-0.5361 0.661459,-1.21138 0.661459,-1.50063 0,-1.69291 1.665541,-3.41499 3.307291,-3.41957 0.52432,-0.001 1.096778,-0.2862 1.686481,-0.83884 1.258147,-1.17907 2.777225,-1.17907 4.035372,0 0.589703,0.55264 1.162161,0.83738 1.68648,0.83884 1.64175,0.005 3.30729,1.72666 3.30729,3.41957 0,0.28925 0.29766,0.96453 0.66146,1.50063 0.89095,1.31288 0.89095,2.86826 0,4.07587 -0.7731,1.04788 -0.86098,2.06391 -0.19844,2.29423 11.4318,3.9741 17.3828,12.37137 17.76632,25.06953 0.1592,5.27106 0.1592,5.27106 1.34983,5.89111 0.65484,0.34103 1.40537,0.88608 1.66784,1.21123 0.26247,0.32516 0.67919,0.82931 0.92604,1.12035 0.38369,0.45238 0.44883,1.18191 0.44883,5.02709 0,5.07324 -0.015,5.11301 -2.798,7.40833 -0.60959,0.50278 -50.157334,0.95036 -52.58787,0.47504 z m 52.903452,-2.42829 c 4.86814,-4.86814 0.89697,-11.93737 -6.70587,-11.93737 -5.1001,0 -5.72191,-0.0478 -6.10315,-0.46907 -0.8592,-0.9494 -0.24593,-1.1025 4.71981,-1.17825 5.58446,-0.0852 6.70459,-4.92981 3.29801,-14.26406 -2.65219,-7.26716 -13.44312,-16.64069 -16.19216,-14.06531 -0.69403,0.65018 -1.83393,1.1371 -2.662,1.1371 -0.308571,0 -0.846191,0.26789 -1.194716,0.59532 -0.91929,0.86362 -3.702394,0.86362 -4.621684,0 -0.348525,-0.32743 -0.886145,-0.59532 -1.194716,-0.59532 -0.828071,0 -1.967972,-0.48692 -2.661995,-1.1371 -3.750862,-3.5139 -15.800845,9.36506 -17.392672,18.58921 -1.682021,9.7468 -1.84409,9.65579 17.452802,9.79998 18.235151,0.13625 18.484531,0.1528 17.477421,1.15991 -0.38559,0.38559 -2.24799,0.42759 -18.960649,0.42759 -22.407603,0 -20.587474,-0.5731 -20.587474,6.48229 0,7.16317 -2.959747,6.48229 28.178125,6.48229 26.123708,0 26.123708,0 27.150918,-1.02721 z M 98.323163,133.57128 c 0.696982,-0.73901 0.978088,-0.86276 1.754067,-0.77217 1.42734,0.16663 2.37321,-0.70346 2.37321,-2.18309 0,-0.92618 0.15508,-1.30614 0.79375,-1.94481 0.54779,-0.54779 0.79375,-1.05342 0.79375,-1.63173 0,-0.59992 -0.22549,-1.03585 -0.79375,-1.53448 -0.6131,-0.53799 -0.79375,-0.91903 -0.79375,-1.67428 0,-1.77196 -1.12067,-2.84949 -2.582102,-2.4827 -0.533384,0.13388 -0.826315,10e-4 -1.411798,-0.63992 -1.028901,-1.12651 -2.360375,-1.12651 -3.389276,0 -0.585483,0.64102 -0.878414,0.7738 -1.411798,0.63992 -1.461433,-0.36679 -2.582106,0.71074 -2.582106,2.4827 0,0.75525 -0.180644,1.13629 -0.79375,1.67428 -1.076786,0.94486 -1.076786,2.08942 0,3.16621 0.615263,0.61526 0.79375,1.02986 0.79375,1.84375 0,1.48508 0.97699,2.44715 2.325252,2.28975 0.832281,-0.0972 1.091363,0.013 1.802029,0.76657 0.551283,0.58453 1.07555,0.88005 1.561261,0.88005 0.485711,0 1.009978,-0.29552 1.561261,-0.88005 z"
         id="path828"
         inkscape:connector-curvature="0" />
    </g>
  </g>
</svg>
